<?xml version="1.0" encoding="UTF-8"?>
<svg xmlns="http://www.w3.org/2000/svg" xmlns:xlink="http://www.w3.org/1999/xlink" width="50px" height="50px" viewBox="0 0 50 50" version="1.1">
<g id="surface1">
<path style=" stroke:none;fill-rule:nonzero;fill:rgb(32.156863%,25.098039%,22.352941%);fill-opacity:1;" d="M 25.375 43.929688 L 25.375 38.679688 C 25.375 38.679688 33.707031 38.429688 33.707031 43.472656 Z M 25.375 43.929688 "/>
<path style=" stroke:none;fill-rule:nonzero;fill:rgb(32.156863%,25.098039%,22.352941%);fill-opacity:1;" d="M 24.660156 43.929688 L 24.660156 38.679688 C 24.660156 38.679688 16.328125 38.429688 16.328125 43.472656 Z M 24.660156 43.929688 "/>
<path style=" stroke:none;fill-rule:nonzero;fill:rgb(99.215686%,80%,60.784314%);fill-opacity:1;" d="M 21.691406 38.679688 L 28.308594 38.679688 L 28.308594 46.09375 L 21.691406 46.09375 Z M 21.691406 38.679688 "/>
<path style=" stroke:none;fill-rule:nonzero;fill:rgb(98.823529%,73.72549%,52.156863%);fill-opacity:1;" d="M 21.691406 39.554688 C 21.691406 39.554688 24.476562 41.328125 28.308594 40.917969 L 28.308594 38.679688 L 21.691406 38.679688 Z M 21.691406 39.554688 "/>
<path style=" stroke:none;fill-rule:nonzero;fill:rgb(98.823529%,73.72549%,52.156863%);fill-opacity:1;" d="M 15.375 27.183594 C 15.375 25.148438 13.929688 23.5 12.144531 23.5 C 10.363281 23.5 8.914062 25.148438 8.914062 27.183594 C 8.914062 29.21875 10.363281 30.871094 12.144531 30.871094 C 13.929688 30.871094 15.375 29.21875 15.375 27.183594 Z M 15.375 27.183594 "/>
<path style=" stroke:none;fill-rule:nonzero;fill:rgb(98.823529%,73.72549%,52.156863%);fill-opacity:1;" d="M 41.085938 27.183594 C 41.085938 25.148438 39.636719 23.5 37.855469 23.5 C 36.070312 23.5 34.625 25.148438 34.625 27.183594 C 34.625 29.21875 36.070312 30.871094 37.855469 30.871094 C 39.636719 30.871094 41.085938 29.21875 41.085938 27.183594 Z M 41.085938 27.183594 "/>
<path style=" stroke:none;fill-rule:nonzero;fill:rgb(99.215686%,80%,60.784314%);fill-opacity:1;" d="M 37.839844 20.144531 C 37.839844 14.71875 33.871094 10.746094 25 10.746094 C 16.128906 10.746094 12.160156 14.71875 12.160156 20.144531 C 12.160156 25.574219 11.230469 39.871094 25 39.871094 C 38.769531 39.871094 37.839844 25.574219 37.839844 20.144531 Z M 37.839844 20.144531 "/>
<path style=" stroke:none;fill-rule:nonzero;fill:rgb(23.137255%,14.509804%,9.803922%);fill-opacity:1;" d="M 20.136719 26.300781 C 20.136719 25.460938 19.511719 24.78125 18.746094 24.78125 C 17.976562 24.78125 17.355469 25.460938 17.355469 26.300781 C 17.355469 27.144531 17.976562 27.824219 18.746094 27.824219 C 19.511719 27.824219 20.136719 27.144531 20.136719 26.300781 Z M 20.136719 26.300781 "/>
<path style=" stroke:none;fill-rule:nonzero;fill:rgb(100%,100%,100%);fill-opacity:1;" d="M 18.554688 25.628906 C 18.554688 25.859375 18.367188 26.046875 18.140625 26.046875 C 17.910156 26.046875 17.722656 25.859375 17.722656 25.628906 C 17.722656 25.402344 17.910156 25.214844 18.140625 25.214844 C 18.367188 25.214844 18.554688 25.402344 18.554688 25.628906 Z M 18.554688 25.628906 "/>
<path style=" stroke:none;fill-rule:nonzero;fill:rgb(25.098039%,9.803922%,0%);fill-opacity:1;" d="M 16.519531 22.527344 C 17.179688 22.859375 18.234375 21.414062 20.648438 22.671875 C 21.089844 22.898438 21.351562 20.710938 18.761719 20.710938 C 16.519531 20.710938 16.125 22.332031 16.519531 22.527344 Z M 16.519531 22.527344 "/>
<path style=" stroke:none;fill-rule:nonzero;fill:rgb(23.137255%,14.509804%,9.803922%);fill-opacity:1;" d="M 32.816406 26.300781 C 32.816406 25.460938 32.195312 24.78125 31.425781 24.78125 C 30.660156 24.78125 30.035156 25.460938 30.035156 26.300781 C 30.035156 27.144531 30.660156 27.824219 31.425781 27.824219 C 32.195312 27.824219 32.816406 27.144531 32.816406 26.300781 Z M 32.816406 26.300781 "/>
<path style=" stroke:none;fill-rule:nonzero;fill:rgb(100%,100%,100%);fill-opacity:1;" d="M 31.238281 25.628906 C 31.238281 25.859375 31.050781 26.046875 30.820312 26.046875 C 30.589844 26.046875 30.40625 25.859375 30.40625 25.628906 C 30.40625 25.398438 30.589844 25.214844 30.820312 25.214844 C 31.050781 25.214844 31.238281 25.398438 31.238281 25.628906 Z M 31.238281 25.628906 "/>
<path style=" stroke:none;fill-rule:nonzero;fill:rgb(25.098039%,9.803922%,0%);fill-opacity:1;" d="M 33.480469 22.527344 C 32.820312 22.859375 31.765625 21.414062 29.351562 22.671875 C 28.910156 22.898438 28.648438 20.710938 31.238281 20.710938 C 33.480469 20.710938 33.875 22.332031 33.480469 22.527344 Z M 33.480469 22.527344 "/>
<path style=" stroke:none;fill-rule:nonzero;fill:rgb(98.823529%,73.72549%,52.156863%);fill-opacity:1;" d="M 25 31.65625 C 23.625 31.65625 22.800781 30.632812 22.800781 31.128906 C 22.800781 31.625 23.195312 32.566406 25 32.566406 C 26.804688 32.566406 27.199219 31.625 27.199219 31.128906 C 27.199219 30.632812 26.375 31.65625 25 31.65625 Z M 25 31.65625 "/>
<path style=" stroke:none;fill-rule:nonzero;fill:rgb(98.823529%,73.72549%,52.156863%);fill-opacity:1;" d="M 25 36.222656 C 24.523438 36.222656 24.238281 35.867188 24.238281 36.039062 C 24.238281 36.210938 24.375 36.535156 25 36.535156 C 25.625 36.535156 25.761719 36.210938 25.761719 36.039062 C 25.761719 35.867188 25.476562 36.222656 25 36.222656 Z M 25 36.222656 "/>
<path style=" stroke:none;fill-rule:nonzero;fill:rgb(96.862745%,58.039216%,36.862745%);fill-opacity:1;" d="M 25 34.957031 C 22.824219 34.957031 21.511719 34.070312 21.511719 34.296875 C 21.511719 34.519531 22.140625 35.402344 25 35.402344 C 27.859375 35.402344 28.488281 34.519531 28.488281 34.296875 C 28.488281 34.070312 27.175781 34.957031 25 34.957031 Z M 25 34.957031 "/>
<path style=" stroke:none;fill-rule:nonzero;fill:rgb(50.588235%,40%,36.470588%);fill-opacity:1;" d="M 25 41.660156 L 25 50 L 8.914062 50 C 8.914062 46.625 17.386719 41.660156 25 41.660156 Z M 25 41.660156 "/>
<path style=" stroke:none;fill-rule:nonzero;fill:rgb(50.588235%,40%,36.470588%);fill-opacity:1;" d="M 25 41.660156 L 25 50 L 41.085938 50 C 41.085938 46.625 32.613281 41.660156 25 41.660156 Z M 25 41.660156 "/>
<path style=" stroke:none;fill-rule:nonzero;fill:rgb(57.647059%,31.764706%,14.509804%);fill-opacity:1;" d="M 25.035156 50 L 19.84375 44.085938 L 21.691406 44.582031 L 25.035156 45.828125 Z M 25.035156 50 "/>
<path style=" stroke:none;fill-rule:nonzero;fill:rgb(57.647059%,31.764706%,14.509804%);fill-opacity:1;" d="M 25 50 L 30.191406 44.085938 L 28.34375 44.582031 L 25 45.828125 Z M 25 50 "/>
<path style=" stroke:none;fill-rule:nonzero;fill:rgb(36.470588%,18.431373%,2.352941%);fill-opacity:1;" d="M 24.925781 41.660156 C 23.179688 41.660156 21.386719 41.921875 19.664062 42.367188 C 20.042969 43.867188 21.226562 46.203125 24.925781 46.203125 C 28.621094 46.203125 29.808594 43.867188 30.1875 42.367188 C 28.464844 41.921875 26.671875 41.660156 24.925781 41.660156 Z M 24.925781 41.660156 "/>
<path style=" stroke:none;fill-rule:nonzero;fill:rgb(99.215686%,80%,60.784314%);fill-opacity:1;" d="M 21.691406 41.949219 C 21.691406 41.949219 21.691406 45.027344 25 45.027344 C 28.308594 45.027344 28.308594 41.949219 28.308594 41.949219 C 28.308594 41.949219 24.875 40.699219 21.691406 41.949219 Z M 21.691406 41.949219 "/>
<path style=" stroke:none;fill-rule:nonzero;fill:rgb(25.098039%,9.803922%,0%);fill-opacity:1;" d="M 43.632812 18.140625 C 45.222656 16.777344 43.632812 14.679688 43.632812 14.679688 C 44.625 12.269531 42.441406 11.011719 42.441406 11.011719 C 42.640625 8.390625 40.355469 7.96875 40.355469 7.96875 C 39.960938 5.558594 37.855469 5.664062 37.855469 5.664062 C 36.941406 3.039062 34.625 3.460938 34.625 3.460938 C 33.757812 1.257812 31.253906 1.992188 31.253906 1.992188 C 29.796875 0.105469 27.765625 1.679688 27.765625 1.679688 C 27.585938 0.839844 26.753906 0 25 0 C 23.246094 0 22.414062 0.839844 22.234375 1.679688 C 22.234375 1.679688 20.203125 0.105469 18.746094 1.992188 C 18.746094 1.992188 16.242188 1.257812 15.375 3.460938 C 15.375 3.460938 13.058594 3.039062 12.144531 5.664062 C 12.144531 5.664062 10.039062 5.558594 9.644531 7.96875 C 9.644531 7.96875 7.359375 8.390625 7.558594 11.011719 C 7.558594 11.011719 5.375 12.269531 6.367188 14.679688 C 6.367188 14.679688 4.777344 16.777344 6.367188 18.140625 C 6.367188 18.140625 4.082031 20.234375 6.167969 22.019531 C 4.679688 25.128906 7.160156 26.769531 7.160156 26.769531 C 6.167969 30.261719 9.445312 30.976562 9.445312 30.976562 C 9.550781 33.265625 12.144531 33.558594 12.144531 33.558594 C 12.144531 33.558594 12.722656 35.234375 14.402344 34.242188 C 16.082031 33.25 13.714844 29.675781 13.714844 29.675781 C 15.105469 28.105469 13.714844 25.566406 13.714844 25.566406 C 15.28125 24.367188 13.714844 22.019531 13.714844 22.019531 C 15.800781 21.808594 15.375 19.085938 15.375 19.085938 C 17.433594 19.503906 18.554688 17.28125 18.554688 17.28125 C 20.914062 18.304688 22.234375 16.675781 22.234375 16.675781 C 24.203125 18.039062 25 16.675781 25 16.675781 C 25 16.675781 25.796875 18.039062 27.765625 16.675781 C 27.765625 16.675781 29.085938 18.304688 31.445312 17.28125 C 31.445312 17.28125 32.566406 19.503906 34.625 19.085938 C 34.625 19.085938 34.199219 21.808594 36.285156 22.019531 C 36.285156 22.019531 34.71875 24.367188 36.285156 25.566406 C 36.285156 25.566406 34.894531 28.105469 36.285156 29.675781 C 36.285156 29.675781 33.917969 33.25 35.597656 34.242188 C 37.277344 35.234375 37.855469 33.558594 37.855469 33.558594 C 37.855469 33.558594 40.449219 33.265625 40.554688 30.976562 C 40.554688 30.976562 43.832031 30.261719 42.839844 26.769531 C 42.839844 26.769531 45.320312 25.128906 43.832031 22.019531 C 45.917969 20.234375 43.632812 18.140625 43.632812 18.140625 Z M 43.632812 18.140625 "/>
<path style=" stroke:none;fill-rule:nonzero;fill:rgb(38.039216%,29.803922%,27.058824%);fill-opacity:1;" d="M 19.953125 42.28125 C 20.050781 41.636719 16.097656 42.113281 16.128906 43.929688 C 16.164062 45.75 20.5 47.148438 21.691406 47.808594 C 22.882812 48.472656 25 50 25 50 C 25 50 25.398438 48.464844 23.542969 47.277344 C 21.691406 46.09375 19.820312 43.140625 19.953125 42.28125 Z M 19.953125 42.28125 "/>
<path style=" stroke:none;fill-rule:nonzero;fill:rgb(38.039216%,29.803922%,27.058824%);fill-opacity:1;" d="M 30.082031 42.28125 C 29.984375 41.636719 33.9375 42.113281 33.90625 43.929688 C 33.875 45.75 29.535156 47.148438 28.34375 47.808594 C 27.152344 48.472656 25 50 25 50 C 25 50 24.640625 48.464844 26.492188 47.277344 C 28.34375 46.09375 30.214844 43.140625 30.082031 42.28125 Z M 30.082031 42.28125 "/>
</g>
</svg>
