<svg xmlns="http://www.w3.org/2000/svg" xmlns:xlink="http://www.w3.org/1999/xlink" viewBox="0,0,256,256" width="50px" height="50px"><g fill="none" fill-rule="nonzero" stroke="none" stroke-width="1" stroke-linecap="butt" stroke-linejoin="miter" stroke-miterlimit="10" stroke-dasharray="" stroke-dashoffset="0" font-family="none" font-weight="none" font-size="none" text-anchor="none" style="mix-blend-mode: normal"><g transform="scale(2.56,2.56)"><path d="M37.297,94.938c-4.641,0 -8.578,-3.319 -9.363,-7.894l-8.278,-48.311c-2.689,-0.796 -4.656,-3.29 -4.656,-6.233c0,-9.098 7.402,-16.5 16.5,-16.5h2.234c2.005,-4.158 6.256,-7 11.146,-7h14.238c4.891,0 9.142,2.842 11.146,7h2.236c9.098,0 16.5,7.402 16.5,16.5c0,2.707 -1.664,5.033 -4.022,6.009l-8.316,48.533c-0.781,4.573 -4.719,7.896 -9.362,7.896z" fill="#000000" opacity="0.35"></path><path d="M35.297,92.938c-4.641,0 -8.578,-3.319 -9.363,-7.894l-8.278,-48.311c-2.689,-0.796 -4.656,-3.29 -4.656,-6.233c0,-9.098 7.402,-16.5 16.5,-16.5h2.234c2.005,-4.158 6.256,-7 11.146,-7h14.238c4.891,0 9.142,2.842 11.146,7h2.236c9.098,0 16.5,7.402 16.5,16.5c0,2.707 -1.664,5.033 -4.022,6.009l-8.316,48.533c-0.781,4.573 -4.719,7.896 -9.362,7.896z" fill="#f2f2f2"></path><path d="M63,25h-26c-0.828,0 -1.5,-0.672 -1.5,-1.5v-4.119c0,-4.069 3.312,-7.381 7.381,-7.381h14.238c4.069,0 7.381,3.312 7.381,7.381v4.119c0,0.828 -0.672,1.5 -1.5,1.5zM38.5,22h23v-2.619c0,-2.416 -1.965,-4.381 -4.381,-4.381h-14.238c-2.416,0 -4.381,1.965 -4.381,4.381z" fill="#ffffff"></path><path d="M22.806,28.303l9.961,58.135h35.061l9.962,-58.135z" fill="#fa5252"></path><path d="M80.5,28.957h-61v0c0,-4.671 3.787,-8.457 8.457,-8.457h44.085c4.671,0 8.458,3.787 8.458,8.457z" fill="#d44848"></path><path d="M65.299,87.938h-30.002c-2.198,0 -4.063,-1.572 -4.436,-3.739l-8.944,-52.199h-2.417c-0.828,0 -1.5,-0.672 -1.5,-1.5c0,-6.341 5.159,-11.5 11.5,-11.5h41c6.341,0 11.5,5.159 11.5,11.5c0,0.828 -0.672,1.5 -1.5,1.5h-1.822l-8.944,52.197c-0.371,2.167 -2.236,3.741 -4.435,3.741zM21.133,29h2.049c0.73,0 1.355,0.526 1.479,1.247l9.158,53.444c0.124,0.722 0.746,1.246 1.479,1.246h30.002c0.732,0 1.354,-0.524 1.478,-1.246l9.158,-53.444c0.122,-0.721 0.747,-1.247 1.477,-1.247h1.454c-0.71,-3.974 -4.192,-7 -8.367,-7h-41c-4.175,0 -7.657,3.026 -8.367,7z" fill="#ffffff"></path><path d="M38.647,76.944c-0.759,0 -1.41,-0.574 -1.49,-1.346l-3.86,-37.445c-0.085,-0.824 0.515,-1.562 1.338,-1.646c0.82,-0.08 1.561,0.514 1.646,1.338l3.86,37.445c0.085,0.824 -0.515,1.562 -1.338,1.646c-0.052,0.005 -0.104,0.008 -0.156,0.008z" fill="#ffffff"></path><path d="M46.414,76.942c-0.805,0 -1.47,-0.638 -1.498,-1.448l-1.298,-37.406c-0.028,-0.828 0.619,-1.522 1.447,-1.551c0.83,-0.034 1.521,0.619 1.551,1.447l1.298,37.406c0.028,0.828 -0.619,1.522 -1.447,1.551c-0.018,0.001 -0.035,0.001 -0.053,0.001z" fill="#ffffff"></path><path d="M54.183,76.941c-0.018,0 -0.034,0 -0.052,-0.001c-0.828,-0.028 -1.477,-0.722 -1.448,-1.55l1.265,-37.368c0.027,-0.828 0.746,-1.492 1.55,-1.448c0.828,0.028 1.477,0.722 1.448,1.55l-1.265,37.368c-0.028,0.811 -0.694,1.449 -1.498,1.449z" fill="#ffffff"></path><path d="M61.949,76.939c-0.052,0 -0.103,-0.003 -0.155,-0.008c-0.824,-0.085 -1.424,-0.821 -1.339,-1.646l3.827,-37.328c0.085,-0.824 0.818,-1.412 1.646,-1.339c0.824,0.085 1.424,0.821 1.339,1.646l-3.827,37.328c-0.08,0.772 -0.731,1.347 -1.491,1.347z" fill="#ffffff"></path></g></g></svg>