<svg xmlns="http://www.w3.org/2000/svg"  viewBox="0 0 100 100" width="50px" height="50px"><circle cx="52" cy="52" r="44" opacity=".35"/><circle cx="50" cy="50" r="44" fill="#f2f2f2"/><path fill="#f2f2f2" d="M50,91C27.393,91,9,72.607,9,50S27.393,9,50,9s41,18.393,41,41S72.607,91,50,91z"/><circle cx="50" cy="50" r="38.026" fill="#70bfff"/><circle cx="50" cy="50" r="37.5" fill="none" stroke="#40396e" stroke-miterlimit="10" stroke-width="3"/><g><path fill="#f2f2f2" d="M50.025,39.346c-1.362,0-2.408-0.316-3.139-0.948c-0.729-0.632-1.094-1.533-1.094-2.7 c0-1.199,0.365-2.116,1.094-2.748C47.617,32.317,48.663,32,50.025,32c2.789,0,4.183,1.234,4.183,3.697 C54.208,38.13,52.814,39.346,50.025,39.346z M50.025,68c-1.201,0-2.117-0.349-2.749-1.046c-0.633-0.697-0.948-1.678-0.948-2.943 V47.374c0-2.692,1.232-4.038,3.697-4.038c1.167,0,2.067,0.349,2.7,1.046c0.632,0.699,0.948,1.696,0.948,2.993v16.638 c0,1.265-0.31,2.246-0.924,2.943C52.132,67.651,51.224,68,50.025,68z"/></g></svg>