<?xml version="1.0" encoding="UTF-8"?>
<svg xmlns="http://www.w3.org/2000/svg" xmlns:xlink="http://www.w3.org/1999/xlink" width="50px" height="50px" viewBox="0 0 50 50" version="1.1">
<g id="surface1">
<path style=" stroke:none;fill-rule:nonzero;fill:rgb(7.058824%,70.196078%,27.843137%);fill-opacity:1;" d="M 41.304688 44.476562 C 41.304688 45.226562 40.695312 45.832031 39.945312 45.832031 L 10.054688 45.832031 C 9.304688 45.832031 8.695312 45.226562 8.695312 44.476562 L 8.695312 5.527344 C 8.695312 4.773438 9.304688 4.167969 10.054688 4.167969 L 29.074219 4.167969 C 29.4375 4.167969 29.78125 4.308594 30.035156 4.566406 L 40.90625 15.433594 C 41.160156 15.6875 41.304688 16.035156 41.304688 16.394531 Z M 41.304688 44.476562 "/>
<path style=" stroke:none;fill-rule:nonzero;fill:rgb(5.882353%,60%,24.313725%);fill-opacity:1;" d="M 41.304688 44.476562 L 41.304688 16.394531 C 41.304688 16.035156 41.160156 15.6875 40.90625 15.433594 L 29.996094 4.5625 C 29.742188 4.308594 29.394531 4.167969 29.035156 4.167969 L 25 4.167969 L 25 45.832031 L 39.945312 45.832031 C 40.695312 45.832031 41.304688 45.226562 41.304688 44.476562 Z M 41.304688 44.476562 "/>
<path style=" stroke:none;fill-rule:nonzero;fill:rgb(7.058824%,70.196078%,27.843137%);fill-opacity:1;" d="M 40.90625 15.433594 L 30.035156 4.566406 C 29.78125 4.308594 29.4375 4.167969 29.074219 4.167969 L 27.71875 4.167969 L 27.71875 16.394531 C 27.71875 17.144531 28.324219 17.753906 29.078125 17.753906 L 41.304688 17.753906 L 41.304688 16.394531 C 41.304688 16.035156 41.160156 15.6875 40.90625 15.433594 Z M 40.90625 15.433594 "/>
<path style=" stroke:none;fill-rule:nonzero;fill:rgb(100%,100%,100%);fill-opacity:1;" d="M 34.511719 21.375 L 15.488281 21.375 C 14.738281 21.375 14.128906 21.984375 14.128906 22.734375 L 14.128906 39.039062 C 14.128906 39.789062 14.738281 40.398438 15.488281 40.398438 L 34.511719 40.398438 C 35.261719 40.398438 35.871094 39.789062 35.871094 39.039062 L 35.871094 22.734375 C 35.871094 21.984375 35.261719 21.375 34.511719 21.375 Z M 16.847656 29.527344 L 22.28125 29.527344 L 22.28125 32.246094 L 16.847656 32.246094 Z M 25 29.527344 L 33.152344 29.527344 L 33.152344 32.246094 L 25 32.246094 Z M 33.152344 26.8125 L 25 26.8125 L 25 24.09375 L 33.152344 24.09375 Z M 22.28125 24.09375 L 22.28125 26.8125 L 16.847656 26.8125 L 16.847656 24.09375 Z M 16.847656 34.964844 L 22.28125 34.964844 L 22.28125 37.679688 L 16.847656 37.679688 Z M 25 37.679688 L 25 34.964844 L 33.152344 34.964844 L 33.152344 37.679688 Z M 25 37.679688 "/>
<path style=" stroke:none;fill-rule:nonzero;fill:rgb(90.196078%,95.294118%,100%);fill-opacity:1;" d="M 34.511719 21.375 L 25 21.375 L 25 24.09375 L 33.152344 24.09375 L 33.152344 26.8125 L 25 26.8125 L 25 29.527344 L 33.152344 29.527344 L 33.152344 32.246094 L 25 32.246094 L 25 34.964844 L 33.152344 34.964844 L 33.152344 37.679688 L 25 37.679688 L 25 40.398438 L 34.511719 40.398438 C 35.261719 40.398438 35.871094 39.789062 35.871094 39.039062 L 35.871094 22.734375 C 35.871094 21.984375 35.261719 21.375 34.511719 21.375 Z M 34.511719 21.375 "/>
</g>
</svg>
