<?xml version="1.0" encoding="UTF-8"?>
<svg xmlns="http://www.w3.org/2000/svg" xmlns:xlink="http://www.w3.org/1999/xlink" width="32px" height="32px" viewBox="0 0 32 32" version="1.1">
<g id="surface1">
<path style=" stroke:none;fill-rule:nonzero;fill:rgb(100%,43.921569%,41.176471%);fill-opacity:1;" d="M 16 3.691406 C 22.800781 3.691406 28.308594 9.199219 28.308594 16 C 28.308594 22.800781 22.800781 28.308594 16 28.308594 C 9.199219 28.308594 3.691406 22.800781 3.691406 16 C 3.691406 9.199219 9.199219 3.691406 16 3.691406 Z M 16 3.691406 "/>
<path style=" stroke:none;fill-rule:nonzero;fill:rgb(89.411765%,90.588235%,92.941176%);fill-opacity:1;" d="M 20.765625 4.652344 L 20.765625 13.054688 L 11.570312 13.054688 L 11.570312 4.511719 C 12.949219 3.980469 14.445312 3.691406 16.003906 3.691406 C 17.695312 3.691406 19.300781 4.03125 20.773438 4.652344 Z M 20.765625 4.652344 "/>
<path style=" stroke:none;fill-rule:nonzero;fill:rgb(77.647059%,79.607843%,83.921569%);fill-opacity:1;" d="M 20.765625 13.054688 C 19.273438 13.054688 17.78125 13.054688 16.289062 13.054688 C 16.429688 8.796875 20.625 8.632812 20.765625 13.054688 Z M 20.765625 13.054688 "/>
<path style=" stroke:none;fill-rule:nonzero;fill:rgb(100%,100%,100%);fill-opacity:1;" d="M 10.089844 9.757812 L 18.519531 9.757812 C 17.414062 9.757812 16.488281 11.007812 16.308594 12.644531 L 16.308594 23.324219 L 15.410156 22.011719 L 14.449219 23.410156 L 13.488281 22.011719 L 12.53125 23.410156 L 11.570312 22.011719 L 10.613281 23.410156 L 9.652344 22.011719 L 8.695312 23.410156 L 7.734375 22.011719 L 6.777344 23.410156 L 6.777344 13.089844 C 6.777344 11.25 8.273438 9.757812 10.105469 9.757812 Z M 10.089844 9.757812 "/>
<path style=" stroke:none;fill-rule:nonzero;fill:rgb(36.470588%,44.313725%,56.078431%);fill-opacity:1;" d="M 17.308594 15.023438 L 26.34375 15.023438 L 26.34375 25.820312 L 17.308594 25.820312 Z M 17.308594 15.023438 "/>
<path style=" stroke:none;fill-rule:nonzero;fill:rgb(100%,100%,100%);fill-opacity:1;" d="M 18.382812 18.550781 L 19.3125 18.550781 C 19.441406 18.550781 19.542969 18.652344 19.542969 18.78125 L 19.542969 19.710938 C 19.542969 19.835938 19.441406 19.941406 19.3125 19.941406 L 18.382812 19.941406 C 18.257812 19.941406 18.152344 19.835938 18.152344 19.710938 L 18.152344 18.78125 C 18.152344 18.652344 18.257812 18.550781 18.382812 18.550781 Z M 18.382812 18.550781 "/>
<path style=" stroke:none;fill-rule:nonzero;fill:rgb(100%,100%,100%);fill-opacity:1;" d="M 20.1875 18.550781 L 21.117188 18.550781 C 21.242188 18.550781 21.347656 18.652344 21.347656 18.78125 L 21.347656 19.710938 C 21.347656 19.835938 21.242188 19.941406 21.117188 19.941406 L 20.1875 19.941406 C 20.058594 19.941406 19.957031 19.835938 19.957031 19.710938 L 19.957031 18.78125 C 19.957031 18.652344 20.058594 18.550781 20.1875 18.550781 Z M 20.1875 18.550781 "/>
<path style=" stroke:none;fill-rule:nonzero;fill:rgb(51.372549%,81.176471%,56.078431%);fill-opacity:1;" d="M 21.988281 18.550781 L 22.921875 18.550781 C 23.046875 18.550781 23.148438 18.652344 23.148438 18.78125 L 23.148438 19.710938 C 23.148438 19.835938 23.046875 19.941406 22.921875 19.941406 L 21.988281 19.941406 C 21.863281 19.941406 21.761719 19.835938 21.761719 19.710938 L 21.761719 18.78125 C 21.761719 18.652344 21.863281 18.550781 21.988281 18.550781 Z M 21.988281 18.550781 "/>
<path style=" stroke:none;fill-rule:nonzero;fill:rgb(100%,89.019608%,33.72549%);fill-opacity:1;" d="M 23.792969 18.550781 L 24.722656 18.550781 C 24.851562 18.550781 24.953125 18.652344 24.953125 18.78125 L 24.953125 19.710938 C 24.953125 19.835938 24.851562 19.941406 24.722656 19.941406 L 23.792969 19.941406 C 23.667969 19.941406 23.5625 19.835938 23.5625 19.710938 L 23.5625 18.78125 C 23.5625 18.652344 23.667969 18.550781 23.792969 18.550781 Z M 23.792969 18.550781 "/>
<path style=" stroke:none;fill-rule:nonzero;fill:rgb(100%,100%,100%);fill-opacity:1;" d="M 18.382812 20.3125 L 19.3125 20.3125 C 19.441406 20.3125 19.542969 20.417969 19.542969 20.542969 L 19.542969 21.472656 C 19.542969 21.601562 19.441406 21.703125 19.3125 21.703125 L 18.382812 21.703125 C 18.257812 21.703125 18.152344 21.601562 18.152344 21.472656 L 18.152344 20.542969 C 18.152344 20.417969 18.257812 20.3125 18.382812 20.3125 Z M 18.382812 20.3125 "/>
<path style=" stroke:none;fill-rule:nonzero;fill:rgb(100%,100%,100%);fill-opacity:1;" d="M 20.1875 20.3125 L 21.117188 20.3125 C 21.242188 20.3125 21.347656 20.417969 21.347656 20.542969 L 21.347656 21.472656 C 21.347656 21.601562 21.242188 21.703125 21.117188 21.703125 L 20.1875 21.703125 C 20.058594 21.703125 19.957031 21.601562 19.957031 21.472656 L 19.957031 20.542969 C 19.957031 20.417969 20.058594 20.3125 20.1875 20.3125 Z M 20.1875 20.3125 "/>
<path style=" stroke:none;fill-rule:nonzero;fill:rgb(100%,100%,100%);fill-opacity:1;" d="M 21.988281 20.3125 L 22.921875 20.3125 C 23.046875 20.3125 23.148438 20.417969 23.148438 20.542969 L 23.148438 21.472656 C 23.148438 21.601562 23.046875 21.703125 22.921875 21.703125 L 21.988281 21.703125 C 21.863281 21.703125 21.761719 21.601562 21.761719 21.472656 L 21.761719 20.542969 C 21.761719 20.417969 21.863281 20.3125 21.988281 20.3125 Z M 21.988281 20.3125 "/>
<path style=" stroke:none;fill-rule:nonzero;fill:rgb(100%,100%,100%);fill-opacity:1;" d="M 23.792969 20.3125 L 24.722656 20.3125 C 24.851562 20.3125 24.953125 20.417969 24.953125 20.542969 L 24.953125 21.472656 C 24.953125 21.601562 24.851562 21.703125 24.722656 21.703125 L 23.792969 21.703125 C 23.667969 21.703125 23.5625 21.601562 23.5625 21.472656 L 23.5625 20.542969 C 23.5625 20.417969 23.667969 20.3125 23.792969 20.3125 Z M 23.792969 20.3125 "/>
<path style=" stroke:none;fill-rule:nonzero;fill:rgb(100%,100%,100%);fill-opacity:1;" d="M 18.382812 22.082031 L 19.3125 22.082031 C 19.441406 22.082031 19.542969 22.183594 19.542969 22.3125 L 19.542969 23.242188 C 19.542969 23.367188 19.441406 23.472656 19.3125 23.472656 L 18.382812 23.472656 C 18.257812 23.472656 18.152344 23.367188 18.152344 23.242188 L 18.152344 22.3125 C 18.152344 22.183594 18.257812 22.082031 18.382812 22.082031 Z M 18.382812 22.082031 "/>
<path style=" stroke:none;fill-rule:nonzero;fill:rgb(100%,100%,100%);fill-opacity:1;" d="M 20.1875 22.082031 L 21.117188 22.082031 C 21.242188 22.082031 21.347656 22.183594 21.347656 22.3125 L 21.347656 23.242188 C 21.347656 23.367188 21.242188 23.472656 21.117188 23.472656 L 20.1875 23.472656 C 20.058594 23.472656 19.957031 23.367188 19.957031 23.242188 L 19.957031 22.3125 C 19.957031 22.183594 20.058594 22.082031 20.1875 22.082031 Z M 20.1875 22.082031 "/>
<path style=" stroke:none;fill-rule:nonzero;fill:rgb(100%,100%,100%);fill-opacity:1;" d="M 21.988281 22.082031 L 22.921875 22.082031 C 23.046875 22.082031 23.148438 22.183594 23.148438 22.3125 L 23.148438 23.242188 C 23.148438 23.367188 23.046875 23.472656 22.921875 23.472656 L 21.988281 23.472656 C 21.863281 23.472656 21.761719 23.367188 21.761719 23.242188 L 21.761719 22.3125 C 21.761719 22.183594 21.863281 22.082031 21.988281 22.082031 Z M 21.988281 22.082031 "/>
<path style=" stroke:none;fill-rule:nonzero;fill:rgb(100%,100%,100%);fill-opacity:1;" d="M 23.792969 22.082031 L 24.722656 22.082031 C 24.851562 22.082031 24.953125 22.183594 24.953125 22.3125 L 24.953125 23.242188 C 24.953125 23.367188 24.851562 23.472656 24.722656 23.472656 L 23.792969 23.472656 C 23.667969 23.472656 23.5625 23.367188 23.5625 23.242188 L 23.5625 22.3125 C 23.5625 22.183594 23.667969 22.082031 23.792969 22.082031 Z M 23.792969 22.082031 "/>
<path style=" stroke:none;fill-rule:nonzero;fill:rgb(100%,100%,100%);fill-opacity:1;" d="M 18.382812 23.84375 L 19.3125 23.84375 C 19.441406 23.84375 19.542969 23.949219 19.542969 24.074219 L 19.542969 25.003906 C 19.542969 25.132812 19.441406 25.234375 19.3125 25.234375 L 18.382812 25.234375 C 18.257812 25.234375 18.152344 25.132812 18.152344 25.003906 L 18.152344 24.074219 C 18.152344 23.949219 18.257812 23.84375 18.382812 23.84375 Z M 18.382812 23.84375 "/>
<path style=" stroke:none;fill-rule:nonzero;fill:rgb(100%,100%,100%);fill-opacity:1;" d="M 20.1875 23.84375 L 21.117188 23.84375 C 21.242188 23.84375 21.347656 23.949219 21.347656 24.074219 L 21.347656 25.003906 C 21.347656 25.132812 21.242188 25.234375 21.117188 25.234375 L 20.1875 25.234375 C 20.058594 25.234375 19.957031 25.132812 19.957031 25.003906 L 19.957031 24.074219 C 19.957031 23.949219 20.058594 23.84375 20.1875 23.84375 Z M 20.1875 23.84375 "/>
<path style=" stroke:none;fill-rule:nonzero;fill:rgb(100%,100%,100%);fill-opacity:1;" d="M 21.988281 23.84375 L 22.921875 23.84375 C 23.046875 23.84375 23.148438 23.949219 23.148438 24.074219 L 23.148438 25.003906 C 23.148438 25.132812 23.046875 25.234375 22.921875 25.234375 L 21.988281 25.234375 C 21.863281 25.234375 21.761719 25.132812 21.761719 25.003906 L 21.761719 24.074219 C 21.761719 23.949219 21.863281 23.84375 21.988281 23.84375 Z M 21.988281 23.84375 "/>
<path style=" stroke:none;fill-rule:nonzero;fill:rgb(100%,100%,100%);fill-opacity:1;" d="M 23.792969 23.84375 L 24.722656 23.84375 C 24.851562 23.84375 24.953125 23.949219 24.953125 24.074219 L 24.953125 25.003906 C 24.953125 25.132812 24.851562 25.234375 24.722656 25.234375 L 23.792969 25.234375 C 23.667969 25.234375 23.5625 25.132812 23.5625 25.003906 L 23.5625 24.074219 C 23.5625 23.949219 23.667969 23.84375 23.792969 23.84375 Z M 23.792969 23.84375 "/>
<path style=" stroke:none;fill-rule:nonzero;fill:rgb(92.54902%,94.117647%,94.509804%);fill-opacity:1;" d="M 17.925781 15.59375 L 25.730469 15.59375 L 25.730469 17.320312 L 17.925781 17.320312 Z M 17.925781 15.59375 "/>
<path style=" stroke:none;fill-rule:nonzero;fill:rgb(50.196078%,49.411765%,49.411765%);fill-opacity:1;" d="M 24.925781 15.800781 C 25.046875 15.800781 25.160156 15.851562 25.242188 15.929688 C 25.320312 16.011719 25.371094 16.125 25.371094 16.246094 L 25.371094 16.574219 C 25.371094 16.699219 25.320312 16.808594 25.242188 16.890625 C 25.160156 16.96875 25.046875 17.023438 24.925781 17.023438 C 24.804688 17.023438 24.691406 16.96875 24.609375 16.890625 C 24.527344 16.808594 24.476562 16.695312 24.476562 16.574219 L 24.476562 16.246094 C 24.476562 16.121094 24.527344 16.011719 24.609375 15.929688 C 24.691406 15.851562 24.804688 15.800781 24.925781 15.800781 Z M 25.125 16.046875 C 25.074219 15.996094 25 15.960938 24.925781 15.960938 C 24.84375 15.960938 24.777344 15.996094 24.722656 16.046875 C 24.671875 16.097656 24.636719 16.171875 24.636719 16.246094 L 24.636719 16.574219 C 24.636719 16.65625 24.671875 16.722656 24.722656 16.773438 C 24.777344 16.828125 24.851562 16.863281 24.925781 16.863281 C 25.003906 16.863281 25.074219 16.828125 25.125 16.773438 C 25.175781 16.722656 25.210938 16.648438 25.210938 16.574219 L 25.210938 16.246094 C 25.210938 16.167969 25.175781 16.097656 25.125 16.046875 Z M 25.125 16.046875 "/>
<path style=" stroke:none;fill-rule:nonzero;fill:rgb(51.372549%,81.176471%,56.078431%);fill-opacity:1;" d="M 9.371094 12.03125 L 13.582031 12.03125 L 13.582031 12.421875 L 9.371094 12.421875 Z M 9.371094 12.03125 "/>
<path style=" stroke:none;fill-rule:nonzero;fill:rgb(77.647059%,79.607843%,83.921569%);fill-opacity:1;" d="M 10.59375 13.054688 L 15.3125 13.054688 L 15.3125 13.445312 L 10.59375 13.445312 Z M 10.59375 13.054688 "/>
<path style=" stroke:none;fill-rule:nonzero;fill:rgb(77.647059%,79.607843%,83.921569%);fill-opacity:1;" d="M 10.59375 14.507812 L 15.3125 14.507812 L 15.3125 14.890625 L 10.59375 14.890625 Z M 10.59375 14.507812 "/>
<path style=" stroke:none;fill-rule:nonzero;fill:rgb(77.647059%,79.607843%,83.921569%);fill-opacity:1;" d="M 10.59375 15.953125 L 15.3125 15.953125 L 15.3125 16.34375 L 10.59375 16.34375 Z M 10.59375 15.953125 "/>
<path style=" stroke:none;fill-rule:nonzero;fill:rgb(77.647059%,79.607843%,83.921569%);fill-opacity:1;" d="M 10.59375 17.40625 L 15.3125 17.40625 L 15.3125 17.792969 L 10.59375 17.792969 Z M 10.59375 17.40625 "/>
<path style=" stroke:none;fill-rule:nonzero;fill:rgb(100%,43.921569%,41.176471%);fill-opacity:1;" d="M 10.59375 18.855469 L 12.957031 18.855469 L 12.957031 19.246094 L 10.59375 19.246094 Z M 10.59375 18.855469 "/>
<path style=" stroke:none;fill-rule:nonzero;fill:rgb(77.647059%,79.607843%,83.921569%);fill-opacity:1;" d="M 7.160156 20.417969 L 7.570312 20.417969 L 7.570312 20.824219 L 7.160156 20.824219 Z M 15.355469 20.417969 L 15.765625 20.417969 L 15.765625 20.824219 L 15.355469 20.824219 Z M 14.445312 20.417969 L 14.851562 20.417969 L 14.851562 20.824219 L 14.445312 20.824219 Z M 13.53125 20.417969 L 13.9375 20.417969 L 13.9375 20.824219 L 13.53125 20.824219 Z M 12.617188 20.417969 L 13.023438 20.417969 L 13.023438 20.824219 L 12.617188 20.824219 Z M 11.703125 20.417969 L 12.113281 20.417969 L 12.113281 20.824219 L 11.703125 20.824219 Z M 10.789062 20.417969 L 11.199219 20.417969 L 11.199219 20.824219 L 10.789062 20.824219 Z M 9.878906 20.417969 L 10.285156 20.417969 L 10.285156 20.824219 L 9.878906 20.824219 Z M 8.964844 20.417969 L 9.371094 20.417969 L 9.371094 20.824219 L 8.964844 20.824219 Z M 8.050781 20.417969 L 8.460938 20.417969 L 8.460938 20.824219 L 8.050781 20.824219 Z M 8.050781 20.417969 "/>
<path style=" stroke:none;fill-rule:nonzero;fill:rgb(100%,89.019608%,33.72549%);fill-opacity:1;" d="M 7.789062 14.195312 C 7.789062 13.957031 7.839844 13.761719 7.9375 13.609375 C 8.035156 13.460938 8.183594 13.363281 8.378906 13.324219 L 8.378906 13.058594 L 8.839844 13.058594 L 8.839844 13.324219 C 9.039062 13.363281 9.1875 13.460938 9.292969 13.605469 C 9.390625 13.753906 9.441406 13.949219 9.441406 14.195312 L 9.441406 14.3125 L 8.90625 14.3125 L 8.90625 14.164062 C 8.90625 14.03125 8.882812 13.945312 8.832031 13.886719 C 8.78125 13.835938 8.710938 13.804688 8.625 13.804688 C 8.539062 13.804688 8.46875 13.835938 8.417969 13.886719 C 8.367188 13.9375 8.34375 14.03125 8.34375 14.164062 C 8.34375 14.28125 8.371094 14.390625 8.425781 14.476562 C 8.476562 14.5625 8.546875 14.648438 8.632812 14.726562 C 8.710938 14.800781 8.796875 14.875 8.894531 14.949219 C 8.988281 15.023438 9.078125 15.105469 9.160156 15.195312 C 9.238281 15.289062 9.308594 15.398438 9.367188 15.515625 C 9.417969 15.636719 9.445312 15.78125 9.445312 15.953125 C 9.445312 16.199219 9.394531 16.394531 9.292969 16.546875 C 9.1875 16.695312 9.039062 16.792969 8.839844 16.832031 L 8.839844 17.089844 L 8.378906 17.089844 L 8.378906 16.832031 C 8.171875 16.792969 8.023438 16.695312 7.917969 16.546875 C 7.820312 16.394531 7.769531 16.195312 7.769531 15.953125 L 7.769531 15.707031 L 8.304688 15.707031 L 8.304688 15.988281 C 8.304688 16.121094 8.332031 16.207031 8.382812 16.257812 C 8.4375 16.308594 8.503906 16.332031 8.597656 16.332031 C 8.683594 16.332031 8.757812 16.308594 8.808594 16.257812 C 8.859375 16.207031 8.890625 16.113281 8.890625 15.988281 C 8.890625 15.867188 8.859375 15.757812 8.808594 15.671875 C 8.757812 15.585938 8.6875 15.5 8.601562 15.425781 C 8.523438 15.351562 8.429688 15.277344 8.339844 15.203125 C 8.246094 15.128906 8.15625 15.046875 8.074219 14.953125 C 7.992188 14.863281 7.925781 14.753906 7.867188 14.632812 C 7.808594 14.511719 7.789062 14.367188 7.789062 14.195312 Z M 7.789062 14.195312 "/>
</g>
</svg>
