<?xml version="1.0" encoding="UTF-8"?>
<svg xmlns="http://www.w3.org/2000/svg" xmlns:xlink="http://www.w3.org/1999/xlink" width="50px" height="50px" viewBox="0 0 50 50" version="1.1">
<g id="surface1">
<path style=" stroke:none;fill-rule:nonzero;fill:rgb(52.54902%,27.45098%,10.588235%);fill-opacity:1;" d="M 44.789062 27.328125 C 44.789062 27.328125 47.859375 29.539062 45.949219 32.898438 C 45.949219 32.898438 49.480469 35.3125 46.78125 39.265625 C 46.78125 39.265625 49.367188 43.023438 46.78125 45.46875 C 46.78125 45.46875 47.402344 48.386719 43.941406 48.527344 C 43.941406 48.527344 43.796875 50 40.773438 50 L 25.023438 46.332031 L 25.023438 26.707031 Z M 44.789062 27.328125 "/>
<path style=" stroke:none;fill-rule:nonzero;fill:rgb(52.54902%,27.45098%,10.588235%);fill-opacity:1;" d="M 5.210938 27.328125 C 5.210938 27.328125 2.140625 29.539062 4.050781 32.898438 C 4.050781 32.898438 0.523438 35.3125 3.21875 39.265625 C 3.21875 39.265625 0.632812 43.023438 3.21875 45.46875 C 3.21875 45.46875 2.597656 48.386719 6.058594 48.527344 C 6.058594 48.527344 6.203125 50 9.226562 50 L 24.976562 46.332031 L 24.976562 26.707031 Z M 5.210938 27.328125 "/>
<path style=" stroke:none;fill-rule:nonzero;fill:rgb(43.921569%,22.352941%,6.27451%);fill-opacity:1;" d="M 14.222656 34.140625 C 14.222656 34.140625 12.222656 37.171875 14.519531 38.355469 C 14.519531 38.355469 12.570312 40.132812 13.964844 41.730469 C 13.964844 41.730469 10.230469 42.820312 12.605469 46.140625 C 14.976562 49.460938 25.023438 47.949219 25.023438 47.949219 L 25.023438 32.089844 Z M 14.222656 34.140625 "/>
<path style=" stroke:none;fill-rule:nonzero;fill:rgb(43.921569%,22.352941%,6.27451%);fill-opacity:1;" d="M 35.777344 34.140625 C 35.777344 34.140625 37.777344 37.171875 35.480469 38.355469 C 35.480469 38.355469 37.429688 40.132812 36.035156 41.730469 C 36.035156 41.730469 39.769531 42.820312 37.394531 46.140625 C 35.023438 49.460938 24.976562 47.949219 24.976562 47.949219 L 24.976562 32.089844 Z M 35.777344 34.140625 "/>
<path style=" stroke:none;fill-rule:nonzero;fill:rgb(99.215686%,80%,60.784314%);fill-opacity:1;" d="M 21.378906 37.699219 L 28.570312 37.699219 L 28.570312 45.757812 L 21.378906 45.757812 Z M 21.378906 37.699219 "/>
<path style=" stroke:none;fill-rule:nonzero;fill:rgb(98.823529%,73.72549%,52.156863%);fill-opacity:1;" d="M 21.378906 38.648438 C 21.378906 38.648438 24.40625 40.578125 28.570312 40.128906 L 28.570312 37.699219 L 21.378906 37.699219 Z M 21.378906 38.648438 "/>
<path style=" stroke:none;fill-rule:nonzero;fill:rgb(98.823529%,73.72549%,52.156863%);fill-opacity:1;" d="M 14.519531 25.210938 C 14.519531 23 12.945312 21.207031 11.007812 21.207031 C 9.070312 21.207031 7.5 23 7.5 25.210938 C 7.5 27.421875 9.070312 29.214844 11.007812 29.214844 C 12.945312 29.214844 14.519531 27.421875 14.519531 25.210938 Z M 14.519531 25.210938 "/>
<path style=" stroke:none;fill-rule:nonzero;fill:rgb(98.823529%,73.72549%,52.156863%);fill-opacity:1;" d="M 42.453125 25.210938 C 42.453125 23 40.882812 21.207031 38.941406 21.207031 C 37.003906 21.207031 35.433594 23 35.433594 25.210938 C 35.433594 27.421875 37.003906 29.214844 38.941406 29.214844 C 40.882812 29.214844 42.453125 27.421875 42.453125 25.210938 Z M 42.453125 25.210938 "/>
<path style=" stroke:none;fill-rule:nonzero;fill:rgb(99.215686%,80%,60.784314%);fill-opacity:1;" d="M 38.929688 17.5625 C 38.929688 11.664062 34.613281 7.347656 24.976562 7.347656 C 15.335938 7.347656 11.023438 11.664062 11.023438 17.5625 C 11.023438 23.460938 10.015625 38.996094 24.976562 38.996094 C 39.9375 38.996094 38.929688 23.460938 38.929688 17.5625 Z M 38.929688 17.5625 "/>
<path style=" stroke:none;fill-rule:nonzero;fill:rgb(23.137255%,14.509804%,9.803922%);fill-opacity:1;" d="M 19.691406 24.25 C 19.691406 23.335938 19.015625 22.597656 18.179688 22.597656 C 17.34375 22.597656 16.667969 23.335938 16.667969 24.25 C 16.667969 25.164062 17.34375 25.90625 18.179688 25.90625 C 19.015625 25.90625 19.691406 25.164062 19.691406 24.25 Z M 19.691406 24.25 "/>
<path style=" stroke:none;fill-rule:nonzero;fill:rgb(100%,100%,100%);fill-opacity:1;" d="M 17.972656 23.519531 C 17.972656 23.769531 17.769531 23.972656 17.519531 23.972656 C 17.269531 23.972656 17.070312 23.769531 17.070312 23.519531 C 17.070312 23.273438 17.269531 23.070312 17.519531 23.070312 C 17.769531 23.070312 17.972656 23.273438 17.972656 23.519531 Z M 17.972656 23.519531 "/>
<path style=" stroke:none;fill-rule:nonzero;fill:rgb(52.54902%,27.45098%,10.588235%);fill-opacity:1;" d="M 15.761719 20.683594 C 16.476562 20.957031 17.625 19.753906 20.25 20.800781 C 20.726562 20.992188 21.011719 19.171875 18.199219 19.171875 C 15.761719 19.171875 15.332031 20.519531 15.761719 20.683594 Z M 15.761719 20.683594 "/>
<path style=" stroke:none;fill-rule:nonzero;fill:rgb(23.137255%,14.509804%,9.803922%);fill-opacity:1;" d="M 33.46875 24.25 C 33.46875 23.335938 32.792969 22.597656 31.957031 22.597656 C 31.125 22.597656 30.449219 23.335938 30.449219 24.25 C 30.449219 25.164062 31.125 25.90625 31.957031 25.90625 C 32.792969 25.90625 33.46875 25.164062 33.46875 24.25 Z M 33.46875 24.25 "/>
<path style=" stroke:none;fill-rule:nonzero;fill:rgb(100%,100%,100%);fill-opacity:1;" d="M 31.75 23.519531 C 31.75 23.769531 31.550781 23.972656 31.300781 23.972656 C 31.050781 23.972656 30.847656 23.769531 30.847656 23.519531 C 30.847656 23.273438 31.050781 23.070312 31.300781 23.070312 C 31.550781 23.070312 31.75 23.273438 31.75 23.519531 Z M 31.75 23.519531 "/>
<path style=" stroke:none;fill-rule:nonzero;fill:rgb(52.54902%,27.45098%,10.588235%);fill-opacity:1;" d="M 34.1875 20.683594 C 33.472656 20.957031 32.328125 19.753906 29.703125 20.800781 C 29.222656 20.992188 28.9375 19.171875 31.75 19.171875 C 34.1875 19.171875 34.621094 20.519531 34.1875 20.683594 Z M 34.1875 20.683594 "/>
<path style=" stroke:none;fill-rule:nonzero;fill:rgb(98.823529%,73.72549%,52.156863%);fill-opacity:1;" d="M 24.976562 30.070312 C 23.484375 30.070312 22.585938 28.953125 22.585938 29.496094 C 22.585938 30.035156 23.015625 31.058594 24.976562 31.058594 C 26.9375 31.058594 27.367188 30.035156 27.367188 29.496094 C 27.367188 28.957031 26.46875 30.070312 24.976562 30.070312 Z M 24.976562 30.070312 "/>
<path style=" stroke:none;fill-rule:nonzero;fill:rgb(98.823529%,73.72549%,52.156863%);fill-opacity:1;" d="M 24.976562 35.03125 C 24.460938 35.03125 24.148438 34.644531 24.148438 34.832031 C 24.148438 35.019531 24.296875 35.371094 24.976562 35.371094 C 25.652344 35.371094 25.804688 35.019531 25.804688 34.832031 C 25.804688 34.644531 25.492188 35.03125 24.976562 35.03125 Z M 24.976562 35.03125 "/>
<path style=" stroke:none;fill-rule:nonzero;fill:rgb(96.862745%,58.039216%,36.862745%);fill-opacity:1;" d="M 24.976562 33.65625 C 22.609375 33.65625 21.183594 32.691406 21.183594 32.9375 C 21.183594 33.179688 21.867188 34.140625 24.976562 34.140625 C 28.082031 34.140625 28.765625 33.179688 28.765625 32.9375 C 28.765625 32.691406 27.339844 33.65625 24.976562 33.65625 Z M 24.976562 33.65625 "/>
<path style=" stroke:none;fill-rule:nonzero;fill:rgb(97.647059%,66.666667%,55.294118%);fill-opacity:1;" d="M 18.289062 29.539062 C 18.289062 30.671875 17.371094 31.585938 16.238281 31.585938 C 15.105469 31.585938 14.1875 30.671875 14.1875 29.539062 C 14.1875 28.40625 15.105469 27.488281 16.238281 27.488281 C 17.371094 27.488281 18.289062 28.40625 18.289062 29.539062 Z M 18.289062 29.539062 "/>
<path style=" stroke:none;fill-rule:nonzero;fill:rgb(97.647059%,66.666667%,55.294118%);fill-opacity:1;" d="M 36.015625 29.539062 C 36.015625 30.667969 35.097656 31.585938 33.964844 31.585938 C 32.835938 31.585938 31.917969 30.667969 31.917969 29.539062 C 31.917969 28.40625 32.835938 27.488281 33.964844 27.488281 C 35.097656 27.488281 36.015625 28.40625 36.015625 29.539062 Z M 36.015625 29.539062 "/>
<path style=" stroke:none;fill-rule:nonzero;fill:rgb(96.862745%,67.45098%,72.941176%);fill-opacity:1;" d="M 24.976562 40.9375 L 24.976562 50 L 9.226562 50 C 9.226562 46.332031 16.703125 40.9375 24.976562 40.9375 Z M 24.976562 40.9375 "/>
<path style=" stroke:none;fill-rule:nonzero;fill:rgb(96.862745%,67.45098%,72.941176%);fill-opacity:1;" d="M 24.976562 40.9375 L 24.976562 50 L 40.726562 50 C 40.726562 46.332031 33.246094 40.9375 24.976562 40.9375 Z M 24.976562 40.9375 "/>
<path style=" stroke:none;fill-rule:nonzero;fill:rgb(96.078431%,56.862745%,61.568627%);fill-opacity:1;" d="M 24.929688 40.9375 C 23.148438 40.9375 21.328125 41.183594 19.5625 41.601562 C 19.574219 41.617188 21.519531 44.101562 24.929688 44.101562 C 28.085938 44.101562 30.183594 41.976562 30.488281 41.648438 C 28.660156 41.199219 26.773438 40.9375 24.929688 40.9375 Z M 24.929688 40.9375 "/>
<path style=" stroke:none;fill-rule:nonzero;fill:rgb(99.215686%,80%,60.784314%);fill-opacity:1;" d="M 21.378906 41.25 C 21.378906 41.25 22.429688 42.554688 24.976562 42.554688 C 27.519531 42.554688 28.570312 41.25 28.570312 41.25 C 28.570312 41.25 24.839844 39.894531 21.378906 41.25 Z M 21.378906 41.25 "/>
<path style=" stroke:none;fill-rule:nonzero;fill:rgb(52.54902%,27.45098%,10.588235%);fill-opacity:1;" d="M 44.253906 18.363281 C 48.277344 21.804688 45.070312 25.210938 45.070312 25.210938 C 46.410156 29.214844 41.878906 30.203125 41.878906 30.203125 C 41.878906 30.203125 40.222656 34.03125 37.957031 32.898438 C 35.691406 31.761719 36.878906 27.992188 36.878906 27.992188 C 35.433594 26.425781 36.988281 24.753906 36.988281 24.753906 C 35.261719 23.136719 36.769531 19.898438 36.769531 19.898438 C 35.042969 19.359375 34.503906 17.09375 34.503906 17.09375 C 31.808594 16.988281 31.054688 13.320312 31.054688 13.320312 C 31.054688 13.320312 30.191406 16.449219 26.738281 15.367188 C 26.738281 15.367188 23.609375 18.171875 21.34375 16.015625 C 21.34375 16.015625 18.105469 18.28125 16.378906 15.800781 C 16.378906 15.800781 16.378906 18.390625 12.820312 18.929688 C 12.820312 18.929688 14.222656 22.597656 12.386719 24.214844 C 12.386719 24.214844 14.546875 28.097656 12.710938 29.71875 C 12.710938 29.71875 15.949219 32.414062 14.222656 34.140625 C 12.496094 35.867188 9.691406 34.570312 9.582031 32.089844 C 9.582031 32.089844 5.484375 32.628906 5.699219 28.097656 C 5.699219 28.097656 2.679688 24.105469 5.160156 20.871094 C 5.160156 20.871094 3.109375 16.988281 6.023438 14.074219 C 6.023438 14.074219 5.699219 8.464844 9.691406 7.277344 C 9.691406 7.277344 11.308594 2.421875 15.625 3.175781 C 15.625 3.175781 18.429688 -0.921875 22.851562 1.128906 C 22.851562 1.128906 27.707031 -1.675781 30.511719 1.558594 C 30.511719 1.558594 33.339844 -0.273438 35.433594 3.175781 C 35.433594 3.175781 39.035156 3.859375 39.359375 7.347656 C 39.359375 7.347656 44.394531 8.429688 43.027344 12.742188 C 43.027344 12.742188 46.792969 14.046875 44.253906 18.363281 Z M 44.253906 18.363281 "/>
<path style=" stroke:none;fill-rule:nonzero;fill:rgb(84.705882%,35.686275%,44.705882%);fill-opacity:1;" d="M 17.269531 42.460938 C 12.578125 44.328125 9.226562 47.546875 9.226562 50 L 19.335938 50 Z M 17.269531 42.460938 "/>
<path style=" stroke:none;fill-rule:nonzero;fill:rgb(72.941176%,22.352941%,41.568627%);fill-opacity:1;" d="M 20.15625 50 C 20.15625 50 18.144531 44.066406 17.925781 41.730469 C 17.925781 41.730469 16.832031 41.796875 15.589844 42.84375 C 15.589844 42.84375 17.171875 47.878906 18.179688 49.964844 Z M 20.15625 50 "/>
<path style=" stroke:none;fill-rule:nonzero;fill:rgb(84.705882%,35.686275%,44.705882%);fill-opacity:1;" d="M 32.683594 42.460938 C 37.371094 44.328125 40.726562 47.546875 40.726562 50 L 30.617188 50 Z M 32.683594 42.460938 "/>
<path style=" stroke:none;fill-rule:nonzero;fill:rgb(72.941176%,22.352941%,41.568627%);fill-opacity:1;" d="M 29.792969 50 C 29.792969 50 31.808594 44.066406 32.023438 41.730469 C 32.023438 41.730469 33.121094 41.796875 34.363281 42.84375 C 34.363281 42.84375 32.78125 47.878906 31.773438 49.964844 Z M 29.792969 50 "/>
</g>
</svg>
