<?xml version="1.0" encoding="UTF-8"?>
<svg xmlns="http://www.w3.org/2000/svg" xmlns:xlink="http://www.w3.org/1999/xlink" width="50px" height="50px" viewBox="0 0 50 50" version="1.1">
<g id="surface1">
<path style=" stroke:none;fill-rule:nonzero;fill:rgb(100%,100%,100%);fill-opacity:1;" d="M 31.898438 12.105469 C 32.117188 11.902344 32.410156 11.796875 32.707031 11.808594 C 33.085938 11.796875 33.445312 11.996094 33.636719 12.324219 C 33.953125 12.871094 33.9375 13.882812 33.726562 14.503906 C 33.578125 14.949219 33.332031 15.625 32.738281 16.109375 C 32.445312 16.355469 32.058594 16.445312 31.6875 16.359375 C 31.367188 17.480469 30.824219 18.527344 30.085938 19.433594 C 29.617188 20.039062 29.03125 20.546875 28.371094 20.929688 L 28.371094 22.035156 C 28.359375 22.238281 28.382812 22.441406 28.441406 22.636719 C 28.527344 22.882812 28.679688 23.101562 28.878906 23.269531 C 29.324219 23.628906 29.777344 23.800781 30.339844 24.011719 L 30.707031 24.15625 C 29.457031 25.1875 27.179688 26.015625 24.808594 26.023438 C 22.449219 26.015625 20.1875 25.199219 18.933594 24.175781 C 19.136719 24.097656 19.351562 24.011719 19.351562 24.011719 C 19.914062 23.800781 20.371094 23.628906 20.816406 23.269531 C 21.015625 23.101562 21.164062 22.882812 21.25 22.636719 C 21.3125 22.441406 21.335938 22.238281 21.324219 22.035156 C 21.324219 22.035156 21.324219 21.660156 21.324219 21.097656 C 20.585938 20.671875 19.9375 20.105469 19.410156 19.433594 C 18.675781 18.53125 18.132812 17.488281 17.816406 16.367188 C 17.457031 16.441406 17.082031 16.34375 16.800781 16.109375 C 16.207031 15.625 15.960938 14.949219 15.8125 14.503906 C 15.601562 13.882812 15.585938 12.871094 15.902344 12.324219 C 16.09375 11.996094 16.453125 11.796875 16.832031 11.808594 C 17.128906 11.796875 17.421875 11.902344 17.640625 12.101562 C 17.640625 12.101562 17.152344 5.207031 24.769531 5.207031 C 31.785156 5.207031 31.898438 12.105469 31.898438 12.105469 Z M 31.898438 12.105469 "/>
<path style=" stroke:none;fill-rule:nonzero;fill:rgb(100%,100%,100%);fill-opacity:1;" d="M 34.8125 25.65625 C 34.5625 25.527344 34.316406 25.414062 34.074219 25.3125 C 33.34375 25.003906 31.792969 24.394531 30.777344 24.105469 L 30.605469 24.234375 C 29.335938 25.230469 27.117188 26.015625 24.804688 26.023438 C 22.414062 26.015625 20.121094 25.175781 18.878906 24.132812 C 17.292969 24.753906 15.492188 25.277344 13.949219 26.253906 C 13.238281 26.707031 12.339844 27.4375 11.878906 28.152344 C 11.265625 29.148438 10.8125 30.234375 10.527344 31.367188 C 10.25 32.535156 10.121094 33.183594 9.863281 34.742188 C 9.382812 37.566406 9.0625 40.414062 8.910156 43.273438 C 8.835938 44.488281 8.953125 45.792969 9.410156 46.917969 C 9.867188 48.042969 11.011719 49.101562 12.148438 49.453125 C 13.035156 49.742188 14 49.6875 14.847656 49.292969 L 14.847656 49.382812 C 14.847656 49.4375 14.855469 49.496094 14.867188 49.550781 C 14.90625 49.605469 14.972656 49.636719 15.039062 49.632812 C 15.777344 49.636719 32.914062 49.621094 34.46875 49.621094 C 34.53125 49.617188 34.589844 49.597656 34.636719 49.558594 C 34.660156 49.519531 34.675781 49.476562 34.675781 49.429688 C 34.6875 48.996094 34.6875 48.605469 34.6875 48.164062 C 35.046875 48.324219 35.414062 48.457031 35.789062 48.566406 C 36.730469 48.828125 38.0625 48.941406 38.964844 48.484375 C 40.761719 47.578125 41.105469 45.683594 41.105469 44.285156 C 41.121094 43.214844 41.070312 42.144531 40.957031 41.082031 C 40.632812 38.386719 39.910156 33.734375 39.332031 31.859375 C 38.714844 29.851562 38.121094 28.207031 36.796875 27.03125 C 36.195312 26.488281 35.527344 26.027344 34.8125 25.65625 Z M 34.8125 25.65625 "/>
<path style=" stroke:none;fill-rule:nonzero;fill:rgb(52.156863%,50.196078%,49.803922%);fill-opacity:1;" d="M 32.964844 6.363281 C 32.613281 5.285156 32.035156 4.328125 31.195312 3.65625 L 30.246094 2.660156 C 29.171875 1.246094 27.421875 0.476562 24.925781 0.367188 C 21.675781 0.257812 19.277344 1.710938 18.214844 3.0625 L 18.433594 3.289062 C 16.230469 5.203125 15.429688 8.621094 16.496094 11.859375 C 16.605469 11.828125 16.71875 11.8125 16.832031 11.808594 C 17.128906 11.796875 17.417969 11.902344 17.636719 12.105469 L 18.777344 11.148438 C 19.632812 10.195312 21.144531 8.757812 22.203125 8.203125 C 22.328125 8.136719 22.484375 8.222656 22.535156 8.433594 C 22.578125 8.59375 22.589844 8.761719 22.570312 8.929688 C 22.550781 9.023438 22.589844 9.121094 22.667969 9.183594 C 22.746094 9.242188 22.851562 9.25 22.9375 9.207031 C 23.695312 8.785156 25.042969 7.941406 25.996094 7.539062 L 27.414062 7.710938 C 27.890625 7.910156 28.332031 8.1875 28.71875 8.53125 C 29.578125 9.273438 30.40625 10.289062 30.769531 11.207031 L 31.898438 12.101562 C 32.117188 11.902344 32.410156 11.796875 32.707031 11.808594 C 32.835938 11.8125 32.960938 11.832031 33.082031 11.871094 C 33.519531 10.140625 33.53125 8.09375 32.964844 6.363281 Z M 32.964844 6.363281 "/>
<path style=" stroke:none;fill-rule:nonzero;fill:rgb(12.941176%,9.019608%,8.235294%);fill-opacity:1;" d="M 18.75 24.492188 C 20.03125 25.488281 21.648438 26.042969 23.242188 26.269531 C 25.046875 26.527344 26.890625 26.335938 28.605469 25.710938 C 29.417969 25.421875 30.179688 25.011719 30.863281 24.496094 C 31.007812 24.351562 31.007812 24.121094 30.863281 23.980469 C 30.71875 23.839844 30.492188 23.839844 30.347656 23.980469 C 29.183594 24.882812 27.652344 25.355469 26.210938 25.5625 C 24.5625 25.789062 22.882812 25.613281 21.316406 25.050781 C 20.582031 24.800781 19.886719 24.441406 19.265625 23.980469 C 19.121094 23.84375 18.894531 23.84375 18.75 23.980469 C 18.609375 24.121094 18.609375 24.351562 18.75 24.496094 Z M 18.75 24.492188 "/>
<path style=" stroke:none;fill-rule:nonzero;fill:rgb(12.941176%,9.019608%,8.235294%);fill-opacity:1;" d="M 28.003906 21.121094 L 28.003906 21.859375 C 27.984375 22.152344 28.011719 22.449219 28.089844 22.734375 C 28.28125 23.265625 28.675781 23.628906 29.160156 23.898438 C 29.742188 24.21875 30.394531 24.421875 31.011719 24.664062 C 31.207031 24.71875 31.40625 24.605469 31.460938 24.410156 C 31.507812 24.21875 31.394531 24.019531 31.207031 23.960938 C 30.691406 23.761719 30.152344 23.585938 29.660156 23.335938 C 29.285156 23.148438 28.90625 22.910156 28.777344 22.488281 C 28.726562 22.242188 28.710938 21.992188 28.734375 21.746094 L 28.734375 21.121094 C 28.734375 20.652344 28.003906 20.652344 28.003906 21.121094 Z M 28.003906 21.121094 "/>
<path style=" stroke:none;fill-rule:nonzero;fill:rgb(12.941176%,9.019608%,8.235294%);fill-opacity:1;" d="M 20.960938 21.285156 L 20.960938 21.953125 C 20.976562 22.164062 20.953125 22.378906 20.882812 22.582031 C 20.710938 22.972656 20.34375 23.191406 19.964844 23.371094 C 19.492188 23.597656 18.976562 23.769531 18.488281 23.960938 C 18.296875 24.019531 18.183594 24.21875 18.230469 24.410156 C 18.285156 24.605469 18.488281 24.71875 18.679688 24.664062 C 19.289062 24.453125 19.882812 24.210938 20.460938 23.9375 C 20.933594 23.6875 21.335938 23.359375 21.546875 22.863281 C 21.757812 22.375 21.6875 21.808594 21.6875 21.285156 C 21.6875 20.816406 20.960938 20.816406 20.960938 21.285156 Z M 20.960938 21.285156 "/>
<path style=" stroke:none;fill-rule:nonzero;fill:rgb(12.941176%,9.019608%,8.235294%);fill-opacity:1;" d="M 13.332031 42.640625 C 14.1875 42.007812 15.085938 41.429688 15.941406 40.792969 C 16.113281 40.691406 16.167969 40.472656 16.074219 40.296875 C 15.972656 40.125 15.75 40.066406 15.574219 40.164062 C 14.71875 40.800781 13.820312 41.378906 12.964844 42.011719 C 12.792969 42.117188 12.738281 42.335938 12.832031 42.511719 C 12.933594 42.683594 13.15625 42.742188 13.332031 42.640625 Z M 13.332031 42.640625 "/>
<path style=" stroke:none;fill-rule:nonzero;fill:rgb(12.941176%,9.019608%,8.235294%);fill-opacity:1;" d="M 13.796875 32.492188 C 14.136719 34.207031 14.570312 35.902344 15.101562 37.566406 C 15.25 38.007812 15.953125 37.820312 15.804688 37.371094 C 15.273438 35.707031 14.835938 34.011719 14.5 32.296875 C 14.402344 31.839844 13.699219 32.035156 13.796875 32.492188 Z M 13.796875 32.492188 "/>
<path style=" stroke:none;fill-rule:nonzero;fill:rgb(12.941176%,9.019608%,8.235294%);fill-opacity:1;" d="M 16.429688 47.917969 C 15.539062 48.550781 14.546875 49.234375 13.414062 49.269531 C 12.257812 49.304688 11.210938 48.730469 10.453125 47.886719 C 9.628906 46.96875 9.339844 45.726562 9.269531 44.519531 C 9.246094 43.863281 9.265625 43.203125 9.320312 42.546875 C 9.363281 41.910156 9.414062 41.273438 9.46875 40.640625 C 9.648438 38.542969 9.9375 36.460938 10.289062 34.386719 C 10.460938 33.378906 10.652344 32.375 10.898438 31.382812 C 11.160156 30.265625 11.621094 29.203125 12.257812 28.246094 C 12.605469 27.773438 13.027344 27.359375 13.5 27.011719 C 13.988281 26.644531 14.507812 26.320312 15.058594 26.046875 C 16.164062 25.488281 17.347656 25.097656 18.503906 24.664062 C 18.785156 24.558594 19.066406 24.449219 19.34375 24.335938 C 19.53125 24.277344 19.644531 24.082031 19.597656 23.886719 C 19.542969 23.695312 19.34375 23.582031 19.148438 23.632812 C 16.753906 24.617188 14.152344 25.253906 12.257812 27.132812 C 11.371094 28.015625 10.839844 29.207031 10.4375 30.375 C 10.121094 31.378906 9.878906 32.40625 9.71875 33.445312 C 9.320312 35.648438 8.996094 37.871094 8.789062 40.101562 C 8.730469 40.730469 8.675781 41.359375 8.632812 41.988281 C 8.582031 42.683594 8.519531 43.382812 8.527344 44.082031 C 8.542969 45.382812 8.769531 46.8125 9.539062 47.898438 C 10.265625 48.921875 11.359375 49.730469 12.613281 49.9375 C 13.839844 50.136719 14.960938 49.738281 15.992188 49.089844 C 16.265625 48.917969 16.535156 48.734375 16.796875 48.546875 C 16.96875 48.441406 17.023438 48.222656 16.929688 48.046875 C 16.824219 47.875 16.605469 47.816406 16.429688 47.917969 Z M 16.429688 47.917969 "/>
<path style=" stroke:none;fill-rule:nonzero;fill:rgb(12.941176%,9.019608%,8.235294%);fill-opacity:1;" d="M 18.472656 3.320312 C 19.429688 2.113281 20.882812 1.359375 22.359375 0.992188 C 23.34375 0.75 24.363281 0.671875 25.375 0.757812 C 26.253906 0.8125 27.117188 1.007812 27.933594 1.339844 C 28.71875 1.660156 29.40625 2.179688 29.929688 2.847656 C 30.035156 3.015625 30.253906 3.070312 30.429688 2.976562 C 30.601562 2.875 30.660156 2.652344 30.558594 2.476562 C 30.054688 1.8125 29.40625 1.265625 28.664062 0.878906 C 27.804688 0.457031 26.882812 0.191406 25.933594 0.0859375 C 23.878906 -0.175781 21.734375 0.152344 19.921875 1.179688 C 19.167969 1.59375 18.503906 2.144531 17.957031 2.804688 C 17.820312 2.949219 17.820312 3.175781 17.957031 3.320312 C 18.101562 3.460938 18.332031 3.460938 18.472656 3.320312 Z M 18.472656 3.320312 "/>
<path style=" stroke:none;fill-rule:nonzero;fill:rgb(12.941176%,9.019608%,8.235294%);fill-opacity:1;" d="M 16.835938 11.726562 C 16.117188 9.496094 16.238281 6.960938 17.5 4.945312 C 17.824219 4.421875 18.226562 3.953125 18.691406 3.546875 C 19.046875 3.238281 18.527344 2.722656 18.175781 3.03125 C 16.300781 4.671875 15.496094 7.257812 15.691406 9.695312 C 15.753906 10.453125 15.902344 11.199219 16.132812 11.917969 C 16.277344 12.363281 16.980469 12.171875 16.835938 11.726562 Z M 16.835938 11.726562 "/>
<path style=" stroke:none;fill-rule:nonzero;fill:rgb(12.941176%,9.019608%,8.235294%);fill-opacity:1;" d="M 30.9375 3.914062 C 32.675781 5.320312 33.140625 7.761719 33.019531 9.886719 C 32.984375 10.511719 32.890625 11.128906 32.742188 11.734375 C 32.628906 12.191406 33.332031 12.386719 33.445312 11.929688 C 34.007812 9.636719 33.917969 6.945312 32.699219 4.871094 C 32.375 4.308594 31.953125 3.808594 31.453125 3.398438 C 31.308594 3.261719 31.082031 3.261719 30.9375 3.398438 C 30.796875 3.542969 30.796875 3.769531 30.9375 3.914062 Z M 30.9375 3.914062 "/>
<path style=" stroke:none;fill-rule:nonzero;fill:rgb(12.941176%,9.019608%,8.235294%);fill-opacity:1;" d="M 17.324219 15.910156 C 17.558594 16.980469 17.984375 18 18.582031 18.917969 C 19.222656 19.894531 20.066406 20.8125 21.09375 21.386719 C 21.613281 21.679688 22.179688 21.878906 22.769531 21.96875 C 22.964844 22.015625 23.160156 21.90625 23.21875 21.714844 C 23.269531 21.519531 23.15625 21.320312 22.964844 21.265625 C 20.859375 20.945312 19.292969 19.101562 18.5 17.226562 C 18.296875 16.738281 18.136719 16.234375 18.027344 15.71875 C 17.925781 15.257812 17.222656 15.453125 17.324219 15.910156 Z M 17.324219 15.910156 "/>
<path style=" stroke:none;fill-rule:nonzero;fill:rgb(12.941176%,9.019608%,8.235294%);fill-opacity:1;" d="M 31.472656 15.71875 C 31.210938 16.9375 30.679688 18.082031 29.917969 19.066406 C 29.542969 19.5625 29.097656 20 28.589844 20.363281 C 28.121094 20.679688 27.605469 20.925781 27.066406 21.09375 C 26.621094 21.238281 26.8125 21.945312 27.257812 21.796875 C 28.214844 21.503906 29.085938 20.988281 29.800781 20.292969 C 30.621094 19.46875 31.269531 18.488281 31.703125 17.410156 C 31.90625 16.925781 32.0625 16.421875 32.175781 15.910156 C 32.277344 15.453125 31.574219 15.257812 31.472656 15.714844 Z M 31.472656 15.71875 "/>
<path style=" stroke:none;fill-rule:nonzero;fill:rgb(12.941176%,9.019608%,8.235294%);fill-opacity:1;" d="M 23.445312 18.085938 C 23.875 18.308594 24.359375 18.417969 24.84375 18.410156 C 25.347656 18.429688 25.84375 18.285156 26.257812 17.992188 C 26.398438 17.847656 26.398438 17.621094 26.257812 17.476562 C 26.113281 17.339844 25.886719 17.339844 25.742188 17.476562 C 25.851562 17.390625 25.765625 17.457031 25.738281 17.472656 C 25.710938 17.492188 25.679688 17.507812 25.652344 17.523438 C 25.636719 17.53125 25.621094 17.539062 25.605469 17.546875 C 25.546875 17.578125 25.621094 17.542969 25.621094 17.542969 C 25.582031 17.558594 25.542969 17.574219 25.5 17.585938 C 25.390625 17.621094 25.28125 17.644531 25.167969 17.660156 C 25.222656 17.652344 25.15625 17.660156 25.136719 17.664062 C 25.101562 17.667969 25.070312 17.671875 25.039062 17.671875 C 24.957031 17.679688 24.878906 17.679688 24.800781 17.679688 C 24.730469 17.679688 24.65625 17.675781 24.585938 17.671875 C 24.554688 17.667969 24.523438 17.667969 24.488281 17.664062 C 24.484375 17.664062 24.367188 17.648438 24.441406 17.660156 C 24.335938 17.640625 24.234375 17.621094 24.132812 17.589844 C 24.085938 17.578125 24.042969 17.5625 24 17.546875 C 23.910156 17.515625 24.054688 17.574219 23.972656 17.535156 C 23.917969 17.507812 23.863281 17.484375 23.8125 17.453125 C 23.636719 17.359375 23.417969 17.414062 23.3125 17.585938 C 23.214844 17.757812 23.273438 17.980469 23.445312 18.085938 Z M 23.445312 18.085938 "/>
<path style=" stroke:none;fill-rule:nonzero;fill:rgb(12.941176%,9.019608%,8.235294%);fill-opacity:1;" d="M 24.660156 14.785156 C 24.722656 15.019531 24.773438 15.253906 24.8125 15.496094 L 24.800781 15.398438 C 24.804688 15.429688 24.804688 15.460938 24.804688 15.496094 L 24.816406 15.398438 C 24.8125 15.414062 24.808594 15.425781 24.804688 15.441406 L 24.84375 15.355469 C 24.835938 15.363281 24.832031 15.375 24.828125 15.382812 L 24.882812 15.308594 C 24.878906 15.316406 24.871094 15.324219 24.859375 15.332031 L 24.933594 15.273438 C 24.917969 15.285156 24.898438 15.296875 24.878906 15.304688 L 24.964844 15.269531 C 24.933594 15.28125 24.902344 15.289062 24.871094 15.296875 L 24.96875 15.28125 C 24.9375 15.285156 24.910156 15.285156 24.878906 15.28125 L 24.976562 15.296875 C 24.941406 15.292969 24.910156 15.28125 24.875 15.277344 C 24.828125 15.261719 24.78125 15.261719 24.730469 15.273438 C 24.683594 15.273438 24.636719 15.289062 24.597656 15.316406 C 24.421875 15.417969 24.363281 15.640625 24.464844 15.8125 C 24.511719 15.898438 24.589844 15.957031 24.683594 15.980469 C 24.757812 15.992188 24.832031 16.011719 24.910156 16.015625 C 25.027344 16.015625 25.140625 15.988281 25.246094 15.933594 C 25.378906 15.875 25.476562 15.757812 25.515625 15.613281 C 25.539062 15.5 25.539062 15.382812 25.511719 15.269531 C 25.472656 15.042969 25.421875 14.816406 25.363281 14.59375 C 25.308594 14.398438 25.109375 14.285156 24.914062 14.339844 C 24.71875 14.394531 24.605469 14.59375 24.660156 14.789062 Z M 24.660156 14.785156 "/>
<path style=" stroke:none;fill-rule:nonzero;fill:rgb(12.941176%,9.019608%,8.235294%);fill-opacity:1;" d="M 20.921875 12.785156 C 20.804688 13.167969 20.878906 14.050781 21.609375 14.125 C 22.570312 14.121094 22.621094 13.050781 22.296875 12.550781 C 22.03125 12.140625 21.253906 11.96875 20.921875 12.785156 Z M 20.921875 12.785156 "/>
<path style=" stroke:none;fill-rule:nonzero;fill:rgb(12.941176%,9.019608%,8.235294%);fill-opacity:1;" d="M 28.617188 12.785156 C 28.734375 13.167969 28.65625 14.050781 27.929688 14.125 C 26.96875 14.121094 26.917969 13.050781 27.242188 12.550781 C 27.507812 12.140625 28.285156 11.96875 28.617188 12.785156 Z M 28.617188 12.785156 "/>
<path style=" stroke:none;fill-rule:nonzero;fill:rgb(12.941176%,9.019608%,8.235294%);fill-opacity:1;" d="M 17.894531 11.847656 C 17.417969 11.421875 16.734375 11.324219 16.160156 11.601562 C 15.753906 11.820312 15.472656 12.210938 15.386719 12.660156 C 15.15625 13.734375 15.378906 14.855469 16 15.761719 C 16.433594 16.390625 17.050781 16.84375 17.84375 16.734375 C 18.039062 16.679688 18.152344 16.480469 18.101562 16.285156 C 18.042969 16.09375 17.84375 15.984375 17.652344 16.03125 C 17.105469 16.105469 16.679688 15.519531 16.457031 15.109375 C 16.222656 14.691406 16.078125 14.230469 16.035156 13.757812 C 16.007812 13.488281 16.019531 13.222656 16.066406 12.957031 C 16.085938 12.847656 16.113281 12.738281 16.15625 12.632812 C 16.175781 12.582031 16.203125 12.535156 16.230469 12.488281 C 16.234375 12.476562 16.292969 12.394531 16.269531 12.429688 C 16.382812 12.296875 16.539062 12.207031 16.714844 12.183594 C 16.953125 12.136719 17.195312 12.203125 17.378906 12.359375 C 17.726562 12.675781 18.242188 12.160156 17.894531 11.847656 Z M 17.894531 11.847656 "/>
<path style=" stroke:none;fill-rule:nonzero;fill:rgb(12.941176%,9.019608%,8.235294%);fill-opacity:1;" d="M 32.15625 12.359375 C 32.492188 12.082031 32.988281 12.113281 33.28125 12.441406 C 33.230469 12.378906 33.300781 12.472656 33.308594 12.488281 C 33.335938 12.535156 33.363281 12.582031 33.382812 12.632812 C 33.421875 12.730469 33.449219 12.828125 33.46875 12.933594 C 33.519531 13.203125 33.53125 13.480469 33.503906 13.757812 C 33.460938 14.222656 33.320312 14.675781 33.09375 15.085938 C 32.871094 15.503906 32.441406 16.109375 31.886719 16.03125 C 31.691406 15.984375 31.496094 16.097656 31.4375 16.285156 C 31.386719 16.480469 31.5 16.679688 31.691406 16.734375 C 32.988281 16.910156 33.742188 15.648438 34.085938 14.582031 C 34.25 14.027344 34.289062 13.441406 34.191406 12.871094 C 34.144531 12.402344 33.90625 11.976562 33.53125 11.691406 C 32.9375 11.3125 32.164062 11.375 31.640625 11.847656 C 31.292969 12.160156 31.808594 12.675781 32.15625 12.363281 Z M 32.15625 12.359375 "/>
<path style=" stroke:none;fill-rule:nonzero;fill:rgb(12.941176%,9.019608%,8.235294%);fill-opacity:1;" d="M 27.230469 8.027344 C 27.925781 8.347656 28.554688 8.804688 29.070312 9.371094 C 29.609375 9.929688 30.125 10.578125 30.417969 11.304688 C 30.476562 11.496094 30.671875 11.605469 30.867188 11.558594 C 31.058594 11.503906 31.171875 11.304688 31.121094 11.109375 C 30.765625 10.285156 30.261719 9.535156 29.628906 8.898438 C 29.058594 8.265625 28.371094 7.753906 27.597656 7.398438 C 27.421875 7.300781 27.203125 7.359375 27.097656 7.527344 C 27 7.703125 27.058594 7.925781 27.230469 8.027344 Z M 27.230469 8.027344 "/>
<path style=" stroke:none;fill-rule:nonzero;fill:rgb(12.941176%,9.019608%,8.235294%);fill-opacity:1;" d="M 19.035156 11.402344 C 19.886719 10.460938 20.824219 9.535156 21.878906 8.820312 C 21.996094 8.746094 22.109375 8.671875 22.230469 8.601562 C 22.265625 8.585938 22.300781 8.5625 22.332031 8.539062 C 22.285156 8.53125 22.234375 8.523438 22.1875 8.511719 C 22.175781 8.523438 22.203125 8.625 22.199219 8.59375 C 22.207031 8.722656 22.210938 8.851562 22.203125 8.976562 C 22.207031 9.183594 22.308594 9.371094 22.476562 9.488281 C 22.789062 9.707031 23.085938 9.542969 23.375 9.378906 C 23.648438 9.222656 23.917969 9.0625 24.1875 8.902344 C 24.832031 8.511719 25.496094 8.160156 26.179688 7.851562 C 26.355469 7.75 26.410156 7.527344 26.3125 7.355469 C 26.207031 7.183594 25.988281 7.128906 25.8125 7.222656 C 25.199219 7.5 24.601562 7.808594 24.027344 8.15625 C 23.734375 8.324219 23.445312 8.496094 23.15625 8.664062 C 23.046875 8.726562 22.9375 8.789062 22.828125 8.851562 C 22.800781 8.863281 22.777344 8.875 22.753906 8.890625 C 22.757812 8.878906 22.84375 8.863281 22.878906 8.882812 L 22.921875 8.925781 C 22.929688 8.988281 22.933594 8.996094 22.933594 8.953125 C 22.941406 8.914062 22.945312 8.871094 22.941406 8.832031 C 22.957031 8.480469 22.875 8.042969 22.527344 7.875 C 22.210938 7.722656 21.921875 7.929688 21.660156 8.097656 C 21.101562 8.464844 20.578125 8.875 20.089844 9.328125 C 19.539062 9.820312 19.015625 10.339844 18.519531 10.890625 C 18.207031 11.238281 18.71875 11.753906 19.035156 11.402344 Z M 19.035156 11.402344 "/>
<path style=" stroke:none;fill-rule:nonzero;fill:rgb(12.941176%,9.019608%,8.235294%);fill-opacity:1;" d="M 14.484375 49.382812 C 14.496094 49.59375 14.527344 49.777344 14.71875 49.902344 C 14.816406 49.964844 14.933594 50 15.054688 50 C 15.089844 50 15.125 50 15.15625 50 L 15.554688 50 C 16.03125 50 16.507812 50 16.984375 50 C 18.542969 50 20.105469 49.996094 21.664062 49.996094 L 27.296875 49.992188 L 32.164062 49.984375 L 34.28125 49.984375 C 34.335938 49.984375 34.390625 49.988281 34.449219 49.984375 C 34.605469 49.992188 34.761719 49.933594 34.875 49.820312 C 34.988281 49.707031 35.046875 49.554688 35.042969 49.394531 C 35.066406 48.988281 35.054688 48.574219 35.054688 48.164062 C 35.054688 47.695312 34.324219 47.695312 34.324219 48.164062 C 34.324219 48.367188 34.324219 48.566406 34.324219 48.765625 C 34.324219 48.859375 34.320312 48.949219 34.320312 49.042969 C 34.304688 49.148438 34.304688 49.253906 34.316406 49.359375 L 34.3125 49.429688 L 34.441406 49.257812 C 34.441406 49.199219 34.484375 49.269531 34.460938 49.253906 C 34.453125 49.25 34.4375 49.257812 34.429688 49.253906 C 34.402344 49.253906 34.378906 49.253906 34.351562 49.253906 L 33.90625 49.253906 L 32.449219 49.257812 L 27.878906 49.261719 L 22.425781 49.265625 C 20.832031 49.265625 19.242188 49.269531 17.648438 49.269531 C 16.804688 49.269531 15.960938 49.269531 15.117188 49.269531 C 15.101562 49.269531 15.085938 49.269531 15.070312 49.269531 C 15.007812 49.28125 15.066406 49.226562 15.125 49.292969 L 15.21875 49.453125 C 15.203125 49.402344 15.21875 49.5 15.214844 49.382812 C 15.191406 48.917969 14.460938 48.914062 14.484375 49.382812 Z M 14.484375 49.382812 "/>
<path style=" stroke:none;fill-rule:nonzero;fill:rgb(12.941176%,9.019608%,8.235294%);fill-opacity:1;" d="M 30.207031 24.335938 C 31.195312 24.546875 32.160156 24.9375 33.101562 25.308594 C 33.316406 25.390625 33.53125 25.476562 33.746094 25.566406 C 33.785156 25.582031 33.828125 25.601562 33.867188 25.617188 C 33.875 25.621094 33.945312 25.648438 33.902344 25.632812 C 33.855469 25.609375 33.957031 25.65625 33.96875 25.660156 C 34.105469 25.71875 34.242188 25.78125 34.378906 25.847656 C 34.957031 26.125 35.507812 26.460938 36.015625 26.851562 C 36.511719 27.21875 36.953125 27.65625 37.324219 28.148438 C 37.660156 28.621094 37.941406 29.125 38.167969 29.65625 C 38.597656 30.648438 38.9375 31.671875 39.1875 32.722656 C 39.710938 34.851562 40.039062 37.03125 40.34375 39.199219 C 40.53125 40.390625 40.65625 41.589844 40.71875 42.792969 C 40.761719 43.894531 40.820312 45.019531 40.5 46.070312 C 40.210938 47.015625 39.546875 47.910156 38.589844 48.25 C 37.519531 48.632812 36.28125 48.394531 35.25 48.003906 C 34.96875 47.898438 34.695312 47.773438 34.433594 47.628906 C 34.023438 47.398438 33.652344 48.03125 34.0625 48.257812 C 35.167969 48.886719 36.421875 49.195312 37.691406 49.152344 C 38.328125 49.128906 38.949219 48.941406 39.492188 48.601562 C 39.988281 48.28125 40.410156 47.855469 40.722656 47.351562 C 41.257812 46.480469 41.453125 45.4375 41.46875 44.429688 C 41.488281 43.03125 41.402344 41.636719 41.214844 40.253906 C 40.914062 37.925781 40.5625 35.59375 40.066406 33.300781 C 39.84375 32.277344 39.554688 31.269531 39.195312 30.28125 C 38.773438 29.113281 38.230469 27.964844 37.355469 27.058594 C 36.429688 26.105469 35.261719 25.414062 34.042969 24.90625 C 33.058594 24.484375 32.046875 24.113281 31.023438 23.796875 C 30.816406 23.734375 30.609375 23.675781 30.398438 23.632812 C 29.941406 23.535156 29.746094 24.238281 30.207031 24.335938 Z M 30.207031 24.335938 "/>
<path style=" stroke:none;fill-rule:nonzero;fill:rgb(100%,100%,100%);fill-opacity:1;" d="M 20.089844 39.914062 L 24.46875 22.351562 L 38.617188 25.878906 L 34.238281 43.441406 Z M 20.089844 39.914062 "/>
<path style=" stroke:none;fill-rule:nonzero;fill:rgb(99.607843%,74.509804%,41.176471%);fill-opacity:1;" d="M 24.3125 22.980469 L 20.089844 39.914062 L 21.703125 40.316406 C 22.941406 35.355469 25.453125 25.273438 26.082031 22.753906 L 24.46875 22.351562 Z M 24.3125 22.980469 "/>
<path style=" stroke:none;fill-rule:nonzero;fill:rgb(12.941176%,9.019608%,8.235294%);fill-opacity:1;" d="M 22.085938 40.289062 L 23.925781 32.914062 L 25.789062 25.445312 C 26.003906 24.578125 26.21875 23.714844 26.433594 22.847656 C 26.546875 22.394531 25.84375 22.199219 25.730469 22.65625 C 25.265625 24.519531 24.804688 26.378906 24.339844 28.242188 C 23.675781 30.898438 23.015625 33.554688 22.351562 36.210938 C 22.027344 37.507812 21.707031 38.800781 21.382812 40.09375 C 21.269531 40.550781 21.972656 40.742188 22.085938 40.289062 Z M 22.085938 40.289062 "/>
<path style=" stroke:none;fill-rule:nonzero;fill:rgb(12.941176%,9.019608%,8.235294%);fill-opacity:1;" d="M 24.082031 22.402344 L 23.71875 23.863281 L 22.820312 27.457031 L 21.691406 31.992188 L 20.621094 36.28125 L 19.910156 39.140625 C 19.867188 39.3125 19.816406 39.484375 19.777344 39.660156 C 19.707031 39.941406 19.871094 40.226562 20.152344 40.304688 C 20.214844 40.328125 20.285156 40.339844 20.347656 40.355469 L 23.054688 41.03125 L 27.453125 42.125 L 31.695312 43.183594 C 32.441406 43.371094 33.1875 43.570312 33.941406 43.742188 C 34.078125 43.789062 34.226562 43.777344 34.355469 43.710938 C 34.484375 43.644531 34.582031 43.527344 34.625 43.390625 C 34.636719 43.359375 34.640625 43.320312 34.648438 43.289062 L 34.839844 42.53125 L 35.628906 39.355469 L 36.730469 34.941406 L 37.84375 30.480469 L 38.671875 27.160156 L 38.886719 26.296875 C 38.898438 26.242188 38.917969 26.1875 38.925781 26.132812 C 39 25.851562 38.832031 25.5625 38.550781 25.484375 C 37.898438 25.28125 37.210938 25.152344 36.542969 24.984375 L 32.390625 23.949219 L 27.941406 22.839844 L 25.03125 22.113281 C 24.710938 22.035156 24.292969 21.902344 24.117188 22.3125 C 24.023438 22.488281 24.082031 22.707031 24.25 22.8125 C 24.421875 22.914062 24.644531 22.855469 24.746094 22.679688 C 24.648438 22.910156 24.433594 22.703125 24.550781 22.746094 C 24.582031 22.753906 24.609375 22.761719 24.640625 22.769531 L 24.984375 22.855469 L 26.230469 23.164062 L 30.164062 24.144531 L 34.609375 25.253906 L 37.785156 26.046875 L 38.183594 26.144531 C 38.238281 26.167969 38.300781 26.183594 38.363281 26.191406 C 38.332031 26.097656 38.285156 26.011719 38.226562 25.9375 C 38.214844 25.945312 38.21875 25.972656 38.210938 25.988281 C 38.1875 26.066406 38.167969 26.148438 38.152344 26.226562 L 37.535156 28.695312 L 36.527344 32.753906 L 35.40625 37.246094 L 34.449219 41.082031 L 33.945312 43.101562 C 33.9375 43.125 33.929688 43.148438 33.925781 43.175781 C 33.933594 43.300781 34.125 42.988281 34.183594 43.054688 C 34.167969 43.03125 34.078125 43.027344 34.054688 43.019531 L 33.152344 42.796875 L 29.589844 41.910156 L 25.105469 40.789062 L 21.472656 39.882812 L 20.511719 39.644531 C 20.476562 39.636719 20.375 39.589844 20.339844 39.601562 C 20.371094 39.59375 20.441406 39.90625 20.480469 39.855469 C 20.492188 39.84375 20.492188 39.8125 20.496094 39.796875 C 20.570312 39.589844 20.605469 39.355469 20.660156 39.140625 L 20.976562 37.871094 L 21.917969 34.089844 L 23.039062 29.601562 L 24.058594 25.503906 L 24.695312 22.949219 L 24.785156 22.59375 C 24.898438 22.140625 24.195312 21.945312 24.082031 22.402344 Z M 24.082031 22.402344 "/>
<path style=" stroke:none;fill-rule:nonzero;fill:rgb(12.941176%,9.019608%,8.235294%);fill-opacity:1;" d="M 33.328125 35.777344 L 25.984375 33.949219 C 25.527344 33.835938 25.335938 34.535156 25.789062 34.652344 L 33.136719 36.480469 C 33.589844 36.59375 33.785156 35.894531 33.328125 35.777344 Z M 33.328125 35.777344 "/>
<path style=" stroke:none;fill-rule:nonzero;fill:rgb(99.607843%,74.509804%,41.176471%);fill-opacity:1;" d="M 33.972656 32.894531 L 26.65625 31.070312 L 27.796875 26.496094 L 35.113281 28.320312 Z M 33.972656 32.894531 "/>
<path style=" stroke:none;fill-rule:nonzero;fill:rgb(12.941176%,9.019608%,8.235294%);fill-opacity:1;" d="M 34.070312 32.542969 L 26.753906 30.71875 L 27.007812 31.167969 L 28.007812 27.15625 L 28.148438 26.59375 L 27.699219 26.847656 L 35.015625 28.671875 L 34.761719 28.222656 L 33.761719 32.234375 L 33.621094 32.796875 C 33.507812 33.253906 34.210938 33.445312 34.324219 32.992188 L 35.324219 28.980469 L 35.464844 28.417969 C 35.515625 28.222656 35.402344 28.023438 35.210938 27.96875 L 27.890625 26.144531 C 27.699219 26.09375 27.5 26.207031 27.445312 26.398438 L 26.445312 30.410156 L 26.304688 30.972656 C 26.253906 31.164062 26.367188 31.363281 26.558594 31.421875 L 33.875 33.246094 C 34.332031 33.359375 34.523438 32.65625 34.070312 32.542969 Z M 34.070312 32.542969 "/>
<path style=" stroke:none;fill-rule:nonzero;fill:rgb(100%,100%,100%);fill-opacity:1;" d="M 34.390625 37.300781 C 33.96875 37.171875 33.523438 37.144531 33.089844 37.21875 C 32.699219 37.3125 32.410156 37.707031 32.554688 38.085938 C 32.664062 38.300781 32.835938 38.476562 33.054688 38.585938 C 33.910156 39.132812 34.820312 39.585938 35.769531 39.949219 C 34.671875 39.800781 33.570312 39.652344 32.46875 39.503906 C 32.238281 39.460938 32.003906 39.453125 31.769531 39.476562 C 31.53125 39.5 31.316406 39.625 31.175781 39.816406 C 31.019531 40.109375 31.039062 40.464844 31.226562 40.742188 C 31.335938 40.886719 31.480469 41 31.648438 41.070312 L 31.382812 41.109375 C 31.007812 41.175781 30.738281 41.507812 30.753906 41.886719 C 30.761719 42.242188 30.96875 42.558594 31.289062 42.714844 C 31.535156 42.835938 31.792969 42.925781 32.0625 42.980469 C 31.945312 43.113281 31.871094 43.199219 31.871094 43.199219 C 31.671875 43.460938 31.652344 43.816406 31.828125 44.09375 C 32.222656 44.769531 33.398438 44.933594 34.246094 45.054688 C 34.816406 45.140625 35.398438 45.089844 35.949219 44.910156 C 36.8125 44.621094 37.351562 44.269531 37.839844 43.347656 C 38.171875 42.722656 38.261719 42.019531 38.273438 41.277344 C 38.273438 40.734375 38.179688 40.195312 37.996094 39.679688 C 37.855469 39.3125 37.613281 38.992188 37.296875 38.757812 C 37.070312 38.585938 36.800781 38.402344 36.507812 38.21875 C 35.851562 37.808594 35.136719 37.5 34.390625 37.300781 Z M 34.390625 37.300781 "/>
<path style=" stroke:none;fill-rule:nonzero;fill:rgb(12.941176%,9.019608%,8.235294%);fill-opacity:1;" d="M 35.4375 39.425781 C 34.695312 39.113281 33.980469 38.738281 33.296875 38.308594 C 33.128906 38.203125 32.785156 38.023438 32.902344 37.777344 C 33 37.582031 33.246094 37.546875 33.402344 37.542969 C 34.007812 37.515625 34.621094 37.71875 35.175781 37.941406 C 35.828125 38.21875 36.445312 38.574219 37.011719 39 C 37.578125 39.414062 37.789062 40.039062 37.875 40.714844 C 37.964844 41.378906 37.910156 42.054688 37.71875 42.695312 C 37.554688 43.25 37.226562 43.746094 36.777344 44.109375 C 36.296875 44.453125 35.730469 44.664062 35.140625 44.714844 C 34.421875 44.757812 33.699219 44.667969 33.015625 44.449219 C 32.75 44.382812 32.503906 44.261719 32.292969 44.089844 C 32.148438 43.960938 31.960938 43.664062 32.128906 43.457031 C 32.265625 43.3125 32.265625 43.085938 32.128906 42.941406 C 31.984375 42.800781 31.753906 42.800781 31.609375 42.941406 C 31.066406 43.617188 31.445312 44.472656 32.128906 44.863281 C 32.734375 45.214844 33.464844 45.3125 34.148438 45.40625 C 34.996094 45.527344 35.859375 45.394531 36.636719 45.03125 C 37.257812 44.734375 37.769531 44.25 38.09375 43.640625 C 38.519531 42.886719 38.664062 41.992188 38.636719 41.132812 C 38.613281 40.308594 38.425781 39.402344 37.859375 38.777344 C 37.546875 38.46875 37.195312 38.203125 36.816406 37.984375 C 36.464844 37.757812 36.09375 37.558594 35.710938 37.386719 C 35.023438 37.078125 34.261719 36.808594 33.496094 36.8125 C 33.082031 36.8125 32.667969 36.914062 32.394531 37.246094 C 32.078125 37.617188 32.082031 38.164062 32.40625 38.53125 C 32.707031 38.882812 33.203125 39.117188 33.601562 39.339844 C 34.078125 39.605469 34.566406 39.84375 35.070312 40.058594 C 35.242188 40.152344 35.460938 40.09375 35.566406 39.925781 C 35.667969 39.753906 35.609375 39.53125 35.4375 39.425781 Z M 35.4375 39.425781 "/>
<path style=" stroke:none;fill-rule:nonzero;fill:rgb(12.941176%,9.019608%,8.235294%);fill-opacity:1;" d="M 35.492188 39.546875 C 34.484375 39.410156 33.476562 39.273438 32.46875 39.140625 C 32.035156 39.082031 31.5625 39.058594 31.179688 39.3125 C 30.816406 39.5625 30.640625 40.003906 30.726562 40.433594 C 30.832031 41.117188 31.441406 41.445312 32.054688 41.605469 C 32.523438 41.730469 33 41.832031 33.476562 41.9375 C 33.953125 42.042969 34.429688 42.148438 34.90625 42.25 C 35.363281 42.347656 35.558594 41.644531 35.101562 41.546875 C 34.292969 41.371094 33.484375 41.199219 32.675781 41.007812 C 32.339844 40.929688 31.9375 40.867188 31.652344 40.65625 C 31.46875 40.523438 31.34375 40.207031 31.492188 40 C 31.664062 39.757812 32.082031 39.820312 32.328125 39.851562 C 33.320312 39.96875 34.308594 40.117188 35.296875 40.25 C 35.492188 40.296875 35.6875 40.183594 35.746094 39.996094 C 35.800781 39.800781 35.683594 39.601562 35.492188 39.546875 Z M 35.492188 39.546875 "/>
<path style=" stroke:none;fill-rule:nonzero;fill:rgb(12.941176%,9.019608%,8.235294%);fill-opacity:1;" d="M 31.285156 40.757812 C 30.765625 40.871094 30.390625 41.328125 30.386719 41.859375 C 30.394531 42.378906 30.703125 42.847656 31.175781 43.066406 C 31.871094 43.402344 32.699219 43.476562 33.453125 43.617188 C 33.773438 43.675781 34.097656 43.738281 34.417969 43.796875 C 34.613281 43.84375 34.808594 43.730469 34.867188 43.539062 C 34.917969 43.347656 34.804688 43.148438 34.613281 43.09375 C 33.953125 42.976562 33.296875 42.851562 32.640625 42.730469 C 32.21875 42.652344 31.667969 42.59375 31.324219 42.304688 C 31.023438 42.046875 31.046875 41.542969 31.480469 41.460938 C 31.671875 41.40625 31.785156 41.207031 31.734375 41.015625 C 31.675781 40.824219 31.480469 40.710938 31.285156 40.757812 Z M 31.285156 40.757812 "/>
<path style=" stroke:none;fill-rule:nonzero;fill:rgb(100%,100%,100%);fill-opacity:1;" d="M 19.539062 34.988281 C 20.378906 34.566406 21.300781 34.332031 22.238281 34.300781 C 22.574219 34.296875 22.929688 34.328125 23.207031 34.511719 C 23.460938 34.660156 23.578125 34.960938 23.5 35.242188 C 23.445312 35.441406 23.289062 35.597656 23.089844 35.65625 C 22.871094 35.710938 22.65625 35.78125 22.445312 35.859375 C 21.925781 36.03125 21.425781 36.253906 20.949219 36.53125 L 20.855469 37.144531 C 21.539062 37.257812 22.21875 37.40625 22.890625 37.589844 C 23.261719 37.683594 23.617188 37.824219 23.957031 38.003906 C 24.191406 38.105469 24.386719 38.277344 24.515625 38.496094 C 24.601562 38.65625 24.636719 38.839844 24.617188 39.019531 C 24.59375 39.238281 24.453125 39.421875 24.253906 39.503906 C 24.035156 39.605469 23.789062 39.632812 23.558594 39.578125 C 23.363281 39.53125 23.164062 39.484375 22.96875 39.433594 C 23.535156 39.71875 23.574219 39.933594 23.675781 40.253906 C 23.722656 40.4375 23.695312 40.636719 23.601562 40.800781 C 23.394531 41.027344 23.082031 41.128906 22.78125 41.058594 C 22.542969 41 22.324219 40.945312 22.097656 40.898438 C 22.253906 41.007812 22.363281 41.085938 22.363281 41.085938 C 22.835938 41.421875 22.710938 42.207031 22.308594 42.339844 C 21.976562 42.445312 21.4375 42.351562 20.859375 42.304688 C 20.800781 43.109375 20.007812 43.894531 19.726562 44.050781 C 19.554688 44.152344 19.011719 44.394531 18.59375 44.386719 C 17.714844 44.371094 16.988281 43.765625 16.503906 43.039062 C 16.199219 42.585938 16.183594 41.804688 16.441406 41.324219 C 16.832031 40.597656 17.136719 39.824219 17.34375 39.023438 C 17.574219 38.101562 18.128906 36.417969 18.6875 35.738281 Z M 19.539062 34.988281 "/>
<path style=" stroke:none;fill-rule:nonzero;fill:rgb(12.941176%,9.019608%,8.235294%);fill-opacity:1;" d="M 19.722656 35.300781 C 20.308594 35.019531 20.925781 34.824219 21.566406 34.714844 C 21.871094 34.667969 22.183594 34.652344 22.492188 34.671875 C 22.707031 34.683594 23.011719 34.734375 23.128906 34.941406 C 23.199219 35.0625 23.160156 35.214844 23.039062 35.289062 C 22.898438 35.34375 22.753906 35.386719 22.605469 35.417969 C 22.460938 35.464844 22.320312 35.519531 22.179688 35.570312 C 21.691406 35.746094 21.21875 35.964844 20.765625 36.214844 C 20.359375 36.445312 20.726562 37.078125 21.132812 36.84375 C 21.539062 36.617188 21.960938 36.421875 22.398438 36.265625 C 22.660156 36.167969 22.921875 36.085938 23.183594 36.003906 C 23.449219 35.929688 23.667969 35.746094 23.789062 35.496094 C 24.070312 34.902344 23.710938 34.304688 23.140625 34.074219 C 22.59375 33.851562 21.9375 33.921875 21.371094 34.015625 C 20.671875 34.136719 19.992188 34.359375 19.355469 34.671875 C 19.183594 34.773438 19.125 34.996094 19.226562 35.171875 C 19.328125 35.339844 19.550781 35.398438 19.722656 35.300781 Z M 19.722656 35.300781 "/>
<path style=" stroke:none;fill-rule:nonzero;fill:rgb(12.941176%,9.019608%,8.235294%);fill-opacity:1;" d="M 18.429688 35.480469 C 17.867188 36.179688 17.558594 37.085938 17.28125 37.929688 C 17.148438 38.34375 17.042969 38.769531 16.921875 39.191406 C 16.761719 39.746094 16.554688 40.285156 16.300781 40.804688 C 16.167969 41.039062 16.058594 41.28125 15.972656 41.535156 C 15.777344 42.269531 15.96875 43.058594 16.484375 43.621094 C 17.121094 44.398438 18.113281 44.941406 19.132812 44.675781 C 19.5625 44.578125 19.957031 44.371094 20.28125 44.078125 C 20.691406 43.695312 20.996094 43.214844 21.164062 42.679688 C 21.292969 42.226562 20.589844 42.035156 20.460938 42.484375 C 20.339844 42.867188 20.121094 43.21875 19.832031 43.496094 C 19.769531 43.558594 19.707031 43.617188 19.644531 43.671875 C 19.554688 43.746094 19.671875 43.652344 19.621094 43.6875 C 19.601562 43.703125 19.585938 43.714844 19.566406 43.726562 C 19.4375 43.800781 19.300781 43.863281 19.15625 43.910156 C 18.777344 44.054688 18.359375 44.046875 17.984375 43.890625 C 17.613281 43.722656 17.289062 43.46875 17.035156 43.148438 C 16.777344 42.875 16.632812 42.515625 16.625 42.136719 C 16.625 41.6875 16.851562 41.351562 17.035156 40.957031 C 17.25 40.488281 17.433594 40.007812 17.582031 39.519531 C 17.699219 39.132812 17.792969 38.738281 17.914062 38.351562 C 18.046875 37.90625 18.203125 37.464844 18.382812 37.035156 C 18.46875 36.828125 18.566406 36.625 18.671875 36.429688 C 18.71875 36.347656 18.761719 36.265625 18.8125 36.1875 C 18.859375 36.117188 18.914062 36.03125 18.945312 35.996094 C 19.082031 35.851562 19.082031 35.625 18.945312 35.480469 C 18.800781 35.339844 18.570312 35.339844 18.429688 35.480469 Z M 18.429688 35.480469 "/>
<path style=" stroke:none;fill-rule:nonzero;fill:rgb(12.941176%,9.019608%,8.235294%);fill-opacity:1;" d="M 20.757812 37.496094 C 21.410156 37.601562 22.058594 37.742188 22.699219 37.914062 C 22.980469 37.984375 23.25 38.074219 23.511719 38.191406 C 23.722656 38.289062 24 38.394531 24.144531 38.585938 C 24.257812 38.738281 24.324219 39.011719 24.164062 39.140625 C 23.925781 39.328125 23.582031 39.210938 23.324219 39.148438 C 22.617188 38.976562 21.917969 38.789062 21.199219 38.675781 C 21.003906 38.628906 20.808594 38.738281 20.75 38.929688 C 20.699219 39.121094 20.8125 39.324219 21.003906 39.378906 C 21.675781 39.484375 22.335938 39.65625 22.996094 39.816406 C 23.304688 39.894531 23.621094 39.996094 23.945312 39.960938 C 24.265625 39.9375 24.5625 39.789062 24.773438 39.550781 C 25.175781 39.054688 24.96875 38.292969 24.5 37.921875 C 24.070312 37.582031 23.511719 37.382812 22.984375 37.238281 C 22.316406 37.050781 21.636719 36.902344 20.953125 36.792969 C 20.757812 36.746094 20.5625 36.859375 20.503906 37.046875 C 20.453125 37.242188 20.566406 37.441406 20.757812 37.496094 Z M 20.757812 37.496094 "/>
<path style=" stroke:none;fill-rule:nonzero;fill:rgb(12.941176%,9.019608%,8.235294%);fill-opacity:1;" d="M 23.082031 39.925781 C 23.164062 39.984375 23.226562 40.070312 23.261719 40.164062 C 23.289062 40.238281 23.3125 40.308594 23.332031 40.382812 C 23.320312 40.332031 23.332031 40.398438 23.332031 40.421875 C 23.332031 40.457031 23.332031 40.492188 23.328125 40.523438 C 23.335938 40.480469 23.308594 40.589844 23.308594 40.585938 C 23.316406 40.550781 23.289062 40.59375 23.316406 40.574219 C 23.269531 40.613281 23.222656 40.644531 23.171875 40.671875 C 23.039062 40.726562 22.894531 40.726562 22.761719 40.679688 C 22.023438 40.5 21.277344 40.363281 20.527344 40.269531 C 20.328125 40.269531 20.164062 40.429688 20.164062 40.632812 C 20.167969 40.832031 20.328125 40.992188 20.527344 40.996094 C 20.972656 41.054688 21.417969 41.125 21.859375 41.21875 C 22.304688 41.3125 22.792969 41.519531 23.25 41.414062 C 23.484375 41.359375 23.695312 41.234375 23.859375 41.058594 C 24.003906 40.878906 24.074219 40.652344 24.0625 40.421875 C 24.042969 39.96875 23.816406 39.554688 23.449219 39.292969 C 23.277344 39.195312 23.054688 39.253906 22.949219 39.425781 C 22.855469 39.597656 22.910156 39.820312 23.082031 39.921875 Z M 23.082031 39.925781 "/>
<path style=" stroke:none;fill-rule:nonzero;fill:rgb(12.941176%,9.019608%,8.235294%);fill-opacity:1;" d="M 22.179688 41.398438 C 22.097656 41.339844 22.183594 41.410156 22.199219 41.425781 C 22.210938 41.4375 22.222656 41.449219 22.230469 41.460938 C 22.199219 41.417969 22.195312 41.414062 22.21875 41.445312 C 22.234375 41.46875 22.246094 41.492188 22.261719 41.515625 C 22.308594 41.589844 22.246094 41.457031 22.265625 41.523438 C 22.277344 41.554688 22.285156 41.582031 22.292969 41.613281 C 22.296875 41.628906 22.300781 41.644531 22.300781 41.660156 C 22.308594 41.699219 22.308594 41.6875 22.300781 41.628906 C 22.292969 41.683594 22.292969 41.738281 22.300781 41.789062 C 22.296875 41.855469 22.316406 41.703125 22.296875 41.804688 C 22.289062 41.824219 22.285156 41.847656 22.277344 41.867188 C 22.273438 41.878906 22.269531 41.894531 22.265625 41.90625 C 22.25 41.945312 22.253906 41.933594 22.277344 41.878906 C 22.261719 41.902344 22.25 41.925781 22.238281 41.953125 C 22.195312 42.023438 22.25 41.945312 22.25 41.941406 C 22.234375 41.960938 22.214844 41.980469 22.195312 41.996094 C 22.246094 41.960938 22.253906 41.953125 22.222656 41.976562 C 22.214844 41.980469 22.203125 41.988281 22.191406 41.996094 C 22.148438 42.03125 22.277344 41.972656 22.199219 41.992188 C 22.171875 41.996094 22.148438 42.003906 22.121094 42.011719 C 22.105469 42.011719 22.089844 42.015625 22.074219 42.019531 C 22.128906 42.011719 22.136719 42.011719 22.09375 42.015625 C 22.03125 42.019531 21.964844 42.023438 21.902344 42.023438 C 21.742188 42.023438 21.582031 42.007812 21.421875 41.996094 C 21.054688 41.953125 20.6875 41.925781 20.320312 41.921875 C 20.121094 41.921875 19.957031 42.085938 19.957031 42.285156 C 19.957031 42.488281 20.121094 42.652344 20.320312 42.652344 C 20.652344 42.652344 20.988281 42.675781 21.316406 42.714844 C 21.589844 42.75 21.867188 42.761719 22.144531 42.738281 C 22.433594 42.722656 22.695312 42.574219 22.855469 42.335938 C 22.988281 42.125 23.050781 41.878906 23.027344 41.628906 C 23.003906 41.285156 22.824219 40.972656 22.546875 40.769531 C 22.371094 40.671875 22.148438 40.726562 22.046875 40.902344 C 21.949219 41.078125 22.007812 41.296875 22.175781 41.398438 Z M 22.179688 41.398438 "/>
</g>
</svg>
