<?xml version="1.0" encoding="UTF-8"?>
<svg xmlns="http://www.w3.org/2000/svg" xmlns:xlink="http://www.w3.org/1999/xlink" width="32px" height="32px" viewBox="0 0 32 32" version="1.1">
<g id="surface1">
<path style=" stroke:none;fill-rule:nonzero;fill:rgb(17.647059%,39.215686%,73.72549%);fill-opacity:1;" d="M 23.011719 28.308594 C 23.847656 28.300781 24.519531 27.625 24.519531 26.789062 L 24.519531 13.53125 L 22.511719 13.027344 Z M 23.011719 28.308594 "/>
<path style=" stroke:none;fill-rule:nonzero;fill:rgb(87.843137%,29.803922%,0%);fill-opacity:1;" d="M 18.183594 28.308594 L 14.839844 28.308594 L 13.332031 16 L 14.839844 3.691406 L 18.183594 3.691406 Z M 18.183594 28.308594 "/>
<path style=" stroke:none;fill-rule:nonzero;fill:rgb(100%,55.686275%,0%);fill-opacity:1;" d="M 6.675781 4.003906 L 5.667969 16.351562 L 6.675781 28.308594 C 7.511719 28.308594 8.191406 27.628906 8.191406 26.789062 L 8.191406 5.546875 Z M 6.675781 4.003906 "/>
<path style=" stroke:none;fill-rule:nonzero;fill:rgb(100%,72.941176%,0%);fill-opacity:1;" d="M 6.675781 4.003906 L 6.171875 7.3125 L 8.191406 7.3125 L 8.191406 5.546875 Z M 6.675781 4.003906 "/>
<path style=" stroke:none;fill-rule:nonzero;fill:rgb(100%,72.941176%,0%);fill-opacity:1;" d="M 6.675781 4.003906 L 5.15625 5.546875 L 5.15625 26.789062 C 5.15625 27.628906 5.835938 28.308594 6.675781 28.308594 Z M 6.675781 4.003906 "/>
<path style=" stroke:none;fill-rule:nonzero;fill:rgb(17.647059%,39.215686%,73.72549%);fill-opacity:1;" d="M 25.335938 5.210938 L 25.335938 6.53125 L 23.011719 6.53125 L 23.011719 8.039062 L 25.335938 8.039062 L 25.335938 15.359375 L 26.84375 15.359375 L 26.84375 5.210938 Z M 25.335938 5.210938 "/>
<path style=" stroke:none;fill-rule:nonzero;fill:rgb(100%,49.019608%,23.529412%);fill-opacity:1;" d="M 11.492188 3.691406 L 14.839844 3.691406 L 14.839844 28.308594 L 11.492188 28.308594 Z M 11.492188 3.691406 "/>
<path style=" stroke:none;fill-rule:nonzero;fill:rgb(100%,72.54902%,58.431373%);fill-opacity:1;" d="M 14.214844 25.09375 L 18.183594 25.09375 L 18.183594 26.601562 L 14.214844 26.601562 Z M 14.214844 25.09375 "/>
<path style=" stroke:none;fill-rule:nonzero;fill:rgb(100%,72.54902%,58.431373%);fill-opacity:1;" d="M 13.441406 22.632812 L 18.183594 22.632812 L 18.183594 24.136719 L 13.441406 24.136719 Z M 13.441406 22.632812 "/>
<path style=" stroke:none;fill-rule:nonzero;fill:rgb(100%,72.54902%,58.431373%);fill-opacity:1;" d="M 14.214844 20.167969 L 18.183594 20.167969 L 18.183594 21.675781 L 14.214844 21.675781 Z M 14.214844 20.167969 "/>
<path style=" stroke:none;fill-rule:nonzero;fill:rgb(100%,72.54902%,58.431373%);fill-opacity:1;" d="M 13.441406 17.707031 L 18.183594 17.707031 L 18.183594 19.214844 L 13.441406 19.214844 Z M 13.441406 17.707031 "/>
<path style=" stroke:none;fill-rule:nonzero;fill:rgb(100%,72.54902%,58.431373%);fill-opacity:1;" d="M 14.214844 15.246094 L 18.183594 15.246094 L 18.183594 16.753906 L 14.214844 16.753906 Z M 14.214844 15.246094 "/>
<path style=" stroke:none;fill-rule:nonzero;fill:rgb(100%,72.54902%,58.431373%);fill-opacity:1;" d="M 13.441406 12.785156 L 18.183594 12.785156 L 18.183594 14.292969 L 13.441406 14.292969 Z M 13.441406 12.785156 "/>
<path style=" stroke:none;fill-rule:nonzero;fill:rgb(100%,72.54902%,58.431373%);fill-opacity:1;" d="M 14.214844 10.324219 L 18.183594 10.324219 L 18.183594 11.832031 L 14.214844 11.832031 Z M 14.214844 10.324219 "/>
<path style=" stroke:none;fill-rule:nonzero;fill:rgb(100%,72.54902%,58.431373%);fill-opacity:1;" d="M 13.441406 7.863281 L 18.183594 7.863281 L 18.183594 9.367188 L 13.441406 9.367188 Z M 13.441406 7.863281 "/>
<path style=" stroke:none;fill-rule:nonzero;fill:rgb(100%,72.54902%,58.431373%);fill-opacity:1;" d="M 14.214844 5.398438 L 18.183594 5.398438 L 18.183594 6.90625 L 14.214844 6.90625 Z M 14.214844 5.398438 "/>
<path style=" stroke:none;fill-rule:nonzero;fill:rgb(99.215686%,87.843137%,61.176471%);fill-opacity:1;" d="M 6.675781 4.003906 L 5.15625 5.546875 L 5.15625 7.3125 L 6.675781 7.3125 Z M 6.675781 4.003906 "/>
<path style=" stroke:none;fill-rule:nonzero;fill:rgb(87.843137%,29.803922%,0%);fill-opacity:1;" d="M 6.171875 24.046875 L 6.675781 28.308594 C 7.511719 28.308594 8.191406 27.628906 8.191406 26.789062 L 8.191406 24.550781 Z M 6.171875 24.046875 "/>
<path style=" stroke:none;fill-rule:nonzero;fill:rgb(100%,49.019608%,23.529412%);fill-opacity:1;" d="M 6.675781 24.046875 L 5.15625 24.550781 L 5.15625 26.789062 C 5.15625 27.628906 5.835938 28.308594 6.675781 28.308594 Z M 6.675781 24.046875 "/>
<path style=" stroke:none;fill-rule:nonzero;fill:rgb(60.784314%,83.921569%,100%);fill-opacity:1;" d="M 6.675781 22.476562 L 6.171875 23.515625 L 6.675781 24.550781 L 8.191406 24.550781 L 8.191406 22.476562 Z M 6.675781 22.476562 "/>
<path style=" stroke:none;fill-rule:nonzero;fill:rgb(76.862745%,91.764706%,100%);fill-opacity:1;" d="M 5.15625 22.476562 L 6.675781 22.476562 L 6.675781 24.550781 L 5.15625 24.550781 Z M 5.15625 22.476562 "/>
<path style=" stroke:none;fill-rule:nonzero;fill:rgb(39.215686%,60%,95.294118%);fill-opacity:1;" d="M 21.484375 13.539062 L 21.484375 26.789062 C 21.484375 27.628906 22.164062 28.308594 23 28.308594 L 23 13.035156 Z M 21.484375 13.539062 "/>
<path style=" stroke:none;fill-rule:nonzero;fill:rgb(60.784314%,83.921569%,100%);fill-opacity:1;" d="M 23.011719 3.691406 L 22.511719 13.53125 L 24.519531 13.53125 L 24.519531 5.210938 C 24.519531 4.375 23.847656 3.699219 23.011719 3.691406 Z M 23.011719 3.691406 "/>
<path style=" stroke:none;fill-rule:nonzero;fill:rgb(76.862745%,91.764706%,100%);fill-opacity:1;" d="M 23 3.691406 C 22.164062 3.691406 21.484375 4.371094 21.484375 5.210938 L 21.484375 13.53125 L 23 13.53125 Z M 23 3.691406 "/>
</g>
</svg>
