<?xml version="1.0" encoding="UTF-8"?>
<svg version="1.1" xmlns="http://www.w3.org/2000/svg" width="128" height="128">
<path d="M0 0 C1.31457184 -0.0232988 2.62914368 -0.0465976 3.98355103 -0.07060242 C6.75913631 -0.11228177 9.53320649 -0.1255124 12.30908203 -0.12133789 C15.11440876 -0.12077165 17.91166553 -0.16883495 20.71533203 -0.26489258 C39.04829242 -0.88427827 52.31055507 0.74860477 66.30636597 13.59695435 C68.29730924 15.4130235 68.29730924 15.4130235 71.64355469 16.94213867 C74.6051299 19.56664968 74.60376882 20.22521234 74.90869141 24.02929688 C74.93481621 26.04671484 74.9265117 28.06476332 74.890625 30.08203125 C74.89212051 31.69555481 74.89212051 31.69555481 74.89364624 33.3416748 C74.88896433 35.62141287 74.86950394 37.90116117 74.83642578 40.18066406 C74.78960524 43.63573065 74.79525473 47.0876694 74.80859375 50.54296875 C74.79742634 52.76434102 74.78319791 54.98570042 74.765625 57.20703125 C74.76835922 58.73583923 74.76835922 58.73583923 74.77114868 60.29553223 C74.44496621 77.18671851 66.10934887 90.85289849 55.1640625 103.17578125 C54.56078125 103.86285156 53.9575 104.54992187 53.3359375 105.2578125 C44.43402495 114.75963655 31.46733785 124.73799149 19.1640625 129.17578125 C4.67803768 128.6032111 -12.17533861 112.593957 -21.74609375 102.61328125 C-36.21421016 85.73831931 -40.40471716 69.65282081 -40.86572266 47.88964844 C-40.92903311 45.58644663 -41.02459138 43.28389862 -41.15283203 40.98339844 C-42.16989082 22.44265576 -42.16989082 22.44265576 -38.36853027 17.12182617 C-34.73276199 13.67233897 -30.61283683 11.454363 -26.08895874 9.37321472 C-23.51186526 8.00354366 -21.44066376 6.30180085 -19.16601562 4.47680664 C-13.05686792 0.12113003 -7.32729686 0.0459631 0 0 Z " fill="#01B3FD" transform="translate(46.8359375,-1.17578125)"/>
<path d="M0 0 C1.31457184 -0.0232988 2.62914368 -0.0465976 3.98355103 -0.07060242 C6.75913631 -0.11228177 9.53320649 -0.1255124 12.30908203 -0.12133789 C15.11440876 -0.12077165 17.91166553 -0.16883495 20.71533203 -0.26489258 C39.04829242 -0.88427827 52.31055507 0.74860477 66.30636597 13.59695435 C68.29730924 15.4130235 68.29730924 15.4130235 71.64355469 16.94213867 C74.6051299 19.56664968 74.60376882 20.22521234 74.90869141 24.02929688 C74.93481621 26.04671484 74.9265117 28.06476332 74.890625 30.08203125 C74.89212051 31.69555481 74.89212051 31.69555481 74.89364624 33.3416748 C74.88896433 35.62141287 74.86950394 37.90116117 74.83642578 40.18066406 C74.78960524 43.63573065 74.79525473 47.0876694 74.80859375 50.54296875 C74.79742634 52.76434102 74.78319791 54.98570042 74.765625 57.20703125 C74.76835922 58.73583923 74.76835922 58.73583923 74.77114868 60.29553223 C74.44496621 77.18671851 66.10934887 90.85289849 55.1640625 103.17578125 C54.56078125 103.86285156 53.9575 104.54992187 53.3359375 105.2578125 C44.43402495 114.75963655 31.46733785 124.73799149 19.1640625 129.17578125 C4.67803768 128.6032111 -12.17533861 112.593957 -21.74609375 102.61328125 C-36.21421016 85.73831931 -40.40471716 69.65282081 -40.86572266 47.88964844 C-40.92903311 45.58644663 -41.02459138 43.28389862 -41.15283203 40.98339844 C-42.16989082 22.44265576 -42.16989082 22.44265576 -38.36853027 17.12182617 C-34.73276199 13.67233897 -30.61283683 11.454363 -26.08895874 9.37321472 C-23.51186526 8.00354366 -21.44066376 6.30180085 -19.16601562 4.47680664 C-13.05686792 0.12113003 -7.32729686 0.0459631 0 0 Z M-28.8359375 26.17578125 C-31.65265907 32.48919331 -30.98019129 38.96086399 -30.3984375 45.67578125 C-30.34078865 47.37211902 -30.29191923 49.06877853 -30.25195312 50.765625 C-29.50741245 71.15459449 -21.57200138 86.37697077 -6.87890625 100.53125 C-1.59750575 105.26078369 4.26094129 109.26951833 10.1640625 113.17578125 C11.00195312 113.78421875 11.83984375 114.39265625 12.703125 115.01953125 C16.01446608 116.57533595 17.68370794 116.20467784 21.1640625 115.17578125 C30.30344696 110.38848463 37.87025514 103.35846412 45.1640625 96.17578125 C46.40542969 94.97115234 46.40542969 94.97115234 47.671875 93.7421875 C60.06417293 80.95081557 63.70276826 65.89787116 64.13891602 48.58935547 C64.19715326 46.81952737 64.28585218 45.05042943 64.40551758 43.28369141 C65.31009174 33.2788334 65.31009174 33.2788334 61.71746826 24.29370117 C58.18215133 20.94416206 54.21305767 18.40990914 49.92219543 16.13328552 C48.1640625 15.17578125 48.1640625 15.17578125 45.87744141 13.4465332 C38.7744123 10.11998412 29.3683437 11.28479132 21.66870117 11.18041992 C19.31667864 11.13615148 16.96500389 11.06163035 14.61499023 10.95483398 C-1.93212893 10.20721261 -18.24111167 11.73004445 -28.8359375 26.17578125 Z " fill="#01368F" transform="translate(46.8359375,-1.17578125)"/>
<path d="M0 0 C3.38815428 0.08294824 6.75248421 0.02082757 10.14038086 -0.0559082 C26.14789614 -0.08290971 36.34788193 4.17377344 48.31811523 14.77026367 C50.37596856 16.828117 49.53057448 21.14488303 49.55639648 23.97729492 C49.56446823 24.81306564 49.57253998 25.64883636 49.58085632 26.50993347 C49.59472627 28.28964145 49.60543532 30.06937636 49.61328125 31.84912109 C49.6303039 34.5336644 49.67413671 37.21691361 49.71850586 39.90112305 C49.89742532 59.55819346 43.90921851 72.57778414 30.31811523 86.77026367 C29.76510742 87.38643555 29.21209961 88.00260742 28.64233398 88.63745117 C23.332731 94.35548516 16.81705652 98.52538556 10.31811523 102.77026367 C9.46475586 103.37354492 8.61139648 103.97682617 7.73217773 104.59838867 C5.31811523 105.77026367 5.31811523 105.77026367 2.91577148 105.69995117 C-0.42040601 104.50595081 -3.29428381 102.82299143 -6.24438477 100.89526367 C-7.15812866 100.30177124 -7.15812866 100.30177124 -8.09033203 99.69628906 C-24.22796281 88.90085723 -38.01864681 73.98661079 -42.68188477 54.77026367 C-43.59412595 49.19280238 -43.92323628 43.6151749 -44.08227539 37.97143555 C-44.14862842 36.25536419 -44.25803041 34.54041488 -44.41040039 32.82983398 C-45.01466527 25.96485949 -45.32783515 19.3478748 -41.06130981 13.57907104 C-29.60046021 1.70752759 -15.8289579 -0.44641953 0 0 Z M-33.63311768 18.04199219 C-36.78380797 23.23403935 -36.36563114 29.38964039 -36.01269531 35.24633789 C-35.86988144 37.63694968 -35.82832958 40.01251111 -35.80493164 42.40698242 C-35.49534633 56.11400983 -31.71706482 66.31855115 -22.68188477 76.77026367 C-21.92907227 77.72803711 -21.17625977 78.68581055 -20.40063477 79.67260742 C-17.5396101 83.10713552 -14.22218277 85.75336937 -10.68188477 88.45776367 C-9.77696289 89.16642578 -9.77696289 89.16642578 -8.85375977 89.8894043 C-3.15270955 94.83314184 -3.15270955 94.83314184 3.75170898 96.69604492 C17.65549252 91.68052483 32.08677322 76.92724765 38.31811523 63.77026367 C41.60693462 55.79460401 42.13169486 47.56133498 42.31347656 39.03881836 C42.35827135 37.52524307 42.43355754 36.01226697 42.5390625 34.50170898 C42.985592 28.04764572 43.34292539 21.72690843 38.9699707 16.52514648 C29.97444217 8.04177663 18.20050089 8.23386574 6.52319336 8.46655273 C3.31981868 8.52023513 0.13044012 8.46689951 -3.07250977 8.40307617 C-14.30012576 8.35480831 -25.91739356 8.77865934 -33.63311768 18.04199219 Z " fill="#C1DDEA" transform="translate(60.681884765625,9.229736328125)"/>
<path d="M0 0 C17.15402524 -1.50735448 30.90991817 -2.6820136 44.93261719 8.66845703 C46.30251807 9.8400908 47.65384164 11.03425054 48.97485352 12.26074219 C51.04719002 14.19250076 51.04719002 14.19250076 54.1965332 15.53417969 C57.38561223 18.33916951 57.44683783 18.82518586 57.74462891 22.85351562 C57.77075371 24.87093359 57.7624492 26.88898207 57.7265625 28.90625 C57.72755951 29.98193237 57.72855652 31.05761475 57.72958374 32.16589355 C57.72490183 34.44563162 57.70544144 36.72537992 57.67236328 39.00488281 C57.62554274 42.4599494 57.63119223 45.91188815 57.64453125 49.3671875 C57.63336384 51.58855977 57.61913541 53.80991917 57.6015625 56.03125 C57.60429672 57.56005798 57.60429672 57.56005798 57.60708618 59.11975098 C57.28090371 76.01093726 48.94528637 89.67711724 38 102 C37.39671875 102.68707031 36.7934375 103.37414062 36.171875 104.08203125 C26.77308536 114.11421759 14.4797093 122.31328954 2 128 C1.34 128 0.68 128 0 128 C-0.61308576 123.85145302 -0.82587031 120.12935153 0 116 C2.82023423 112.82050026 6.31452539 111.0529825 10 109 C26.48036391 98.11674081 40.46765962 83.82862936 45 64 C48.34131324 40.76175141 48.34131324 40.76175141 41.6796875 19.56640625 C30.34792375 9.59752543 14.18257946 10.32674136 0 11 C0 7.37 0 3.74 0 0 Z " fill="#012555" transform="translate(64,0)"/>
<path d="M0 0 C4.2360222 1.41484846 7.0535283 3.60246935 9.4375 7.375 C10.98711882 10.97011565 11.37596783 13.14632977 11 17 C12.98 17 14.96 17 17 17 C17 27.89 17 38.78 17 50 C3.14 50 -10.72 50 -25 50 C-25 39.11 -25 28.22 -25 17 C-23.02 17 -21.04 17 -19 17 C-19.0825 16.13375 -19.165 15.2675 -19.25 14.375 C-18.85527742 9.04624515 -16.29993834 6.14518378 -12.375 2.6875 C-8.30348082 -0.20542152 -4.92229984 -0.62307593 0 0 Z " fill="#FBB42B" transform="translate(68,29)"/>
<path d="M0 0 C25.64114194 -1.89466566 25.64114194 -1.89466566 34.19921875 4.05664062 C39.59064511 9.42716998 39.10179372 17.44607045 39.13891602 24.57525635 C39.01859638 44.45913124 34.86793658 57.89342726 20.8125 72.625 C6.04451439 87 6.04451439 87 0 87 C0 78.09 0 69.18 0 60 C6.93 60 13.86 60 21 60 C21 49.11 21 38.22 21 27 C19.02 27 17.04 27 15 27 C14.91363281 26.40832031 14.82726562 25.81664063 14.73828125 25.20703125 C13.75580188 19.68171149 12.69639592 16.47124916 8 13 C5.35880006 11.7896542 2.77593228 10.89394429 0 10 C0 6.7 0 3.4 0 0 Z " fill="#0274F8" transform="translate(64,19)"/>
<path d="M0 0 C0 1.98 0 3.96 0 6 C-0.62342285 5.9779248 -1.2468457 5.95584961 -1.88916016 5.93310547 C-4.80245164 5.86063553 -7.7108561 5.86773281 -10.625 5.875 C-11.6046875 5.83890625 -12.584375 5.8028125 -13.59375 5.765625 C-21.66894402 5.87049765 -28.10657552 8.52198336 -34.234375 13.69677734 C-38.23135355 17.8071578 -38.53460459 22.20269951 -38.5489502 27.73739624 C-38.49900586 29.31783936 -38.42592608 30.89770547 -38.33081055 32.47607422 C-38.18799667 34.866686 -38.14644482 37.24224744 -38.12304688 39.63671875 C-37.81284924 53.37471818 -34.00934248 63.499178 -25 74 C-24.11441406 75.19302734 -24.11441406 75.19302734 -23.2109375 76.41015625 C-20.50188664 79.58347908 -17.49248636 81.97619224 -14.1875 84.5 C-13.59646484 84.96019531 -13.00542969 85.42039062 -12.39648438 85.89453125 C-9.97318986 87.77080072 -7.57148221 89.62584604 -5.00610352 91.30541992 C-0.15292225 94.49928886 -0.15292225 94.49928886 0.68359375 97.23828125 C0.45572917 99.15885417 0.22786458 101.07942708 0 103 C-17.34024539 96.67442954 -33.67734341 80.15084199 -42 64 C-48.54789225 49.37850716 -49.7596614 28.59493167 -46 13 C-43.19230882 7.04360252 -38.97642695 4.07254647 -33.0234375 1.5234375 C-22.34145716 -1.72571013 -10.98546674 -1.04101373 0 0 Z " fill="#E6EFF7" transform="translate(64,12)"/>
<path d="M0 0 C3.625 0.375 3.625 0.375 6.0625 2 C8.02144605 4.977598 7.94285906 6.87855037 7.625 10.375 C5.315 10.375 3.005 10.375 0.625 10.375 C0.625 14.335 0.625 18.295 0.625 22.375 C-0.695 22.375 -2.015 22.375 -3.375 22.375 C-3.375 25.015 -3.375 27.655 -3.375 30.375 C-2.055 30.375 -0.735 30.375 0.625 30.375 C0.625 34.335 0.625 38.295 0.625 42.375 C-6.305 42.375 -13.235 42.375 -20.375 42.375 C-20.375 31.485 -20.375 20.595 -20.375 9.375 C-18.395 9.375 -16.415 9.375 -14.375 9.375 C-14.375 7.395 -14.375 5.415 -14.375 3.375 C-14.045 3.375 -13.715 3.375 -13.375 3.375 C-13.375 5.355 -13.375 7.335 -13.375 9.375 C-11.065 9.375 -8.755 9.375 -6.375 9.375 C-6.25125 8.26125 -6.1275 7.1475 -6 6 C-5.19277472 1.31809337 -4.74665058 0.52740562 0 0 Z " fill="#F3DE5D" transform="translate(63.375,36.625)"/>
<path d="M0 0 C4.85866985 2.4345593 6.932402 5.39676639 9.06640625 10.34765625 C9.31640625 13.78515625 9.31640625 13.78515625 9.06640625 16.34765625 C6.42640625 16.34765625 3.78640625 16.34765625 1.06640625 16.34765625 C0.77765625 15.21328125 0.48890625 14.07890625 0.19140625 12.91015625 C-0.17984375 11.73453125 -0.55109375 10.55890625 -0.93359375 9.34765625 C-3.97659691 7.82615467 -6.58767875 8.10866232 -9.93359375 8.34765625 C-11.87869375 11.26530625 -12.38635692 12.9730291 -12.93359375 16.34765625 C-15.24359375 16.34765625 -17.55359375 16.34765625 -19.93359375 16.34765625 C-20.64854702 9.55560018 -20.64854702 9.55560018 -18.73828125 6.328125 C-13.66374316 0.27182954 -7.95370861 -2.6833724 0 0 Z " fill="#F78C09" transform="translate(69.93359375,29.65234375)"/>
<path d="M0 0 C0 2.64 0 5.28 0 8 C-0.78375 8.185625 -1.5675 8.37125 -2.375 8.5625 C-5.39376342 9.83961627 -5.39376342 9.83961627 -6.3125 13.625 C-6.539375 14.73875 -6.76625 15.8525 -7 17 C-9.31 17 -11.62 17 -14 17 C-14.71495327 10.20794393 -14.71495327 10.20794393 -12.8046875 6.98046875 C-8.95450052 2.38539635 -6.18898114 0 0 0 Z " fill="#F7B42E" transform="translate(64,29)"/>
<path d="M0 0 C3.625 0.375 3.625 0.375 6.0625 2.0625 C7.625 4.375 7.625 4.375 7.625 9.375 C3.005 9.375 -1.615 9.375 -6.375 9.375 C-5.4 0.6 -5.4 0.6 0 0 Z " fill="#05B3F9" transform="translate(63.375,36.625)"/>
<path d="M0 0 C2.64 0 5.28 0 8 0 C8 2.64 8 5.28 8 8 C5.36 8 2.72 8 0 8 C0 5.36 0 2.72 0 0 Z " fill="#FE9005" transform="translate(60,59)"/>
<path d="M0 0 C2.375 0.3125 2.375 0.3125 5 1 C7.1519437 4.22791555 7.20086443 5.28400809 7 9 C4.69 9 2.38 9 0 9 C0 6.03 0 3.06 0 0 Z " fill="#0774F4" transform="translate(64,37)"/>
<path d="M0 0 C1.32 0 2.64 0 4 0 C4 2.64 4 5.28 4 8 C2.68 8 1.36 8 0 8 C0 5.36 0 2.72 0 0 Z " fill="#FEBA2D" transform="translate(60,59)"/>
</svg>
