<?xml version="1.0" encoding="UTF-8"?>
<svg version="1.1" xmlns="http://www.w3.org/2000/svg" width="128" height="128">
<path d="M0 0 C6.6 0 13.2 0 20 0 C20 2.31 20 4.62 20 7 C20.66418945 6.95286865 21.32837891 6.9057373 22.01269531 6.85717773 C43.74673215 5.51717598 43.74673215 5.51717598 50.625 10.8125 C52.44137761 12.51569088 54.23176565 14.24687876 56 16 C58.45512331 17.99656309 60.98008947 19.89873011 63.5 21.8125 C73.70132756 29.70575277 73.70132756 29.70575277 74.75 34.25 C74.8325 35.1575 74.915 36.065 75 37 C78.61757412 35.95159476 81.86569673 34.61214499 85.171875 32.8359375 C85.91953125 32.43632813 86.6671875 32.03671875 87.4375 31.625 C88.97039446 30.7964084 90.49661913 29.95534856 92.015625 29.1015625 C97.57702108 26.16849745 102.70197329 24.82594794 109 26 C111.75744404 27.73903011 112.35845488 28.99050062 114 32 C114.625 35.5 114.625 35.5 114 39 C110.65882098 43.69762423 107.76851268 46.03973833 102.484375 48.54296875 C101.8691095 48.83810867 101.25384399 49.1332486 100.61993408 49.43733215 C99.32556783 50.05486697 98.02786064 50.66544361 96.72705078 51.26928711 C94.76222318 52.18182312 92.80842792 53.11510742 90.85546875 54.05273438 C78.49939999 59.93591629 66.75331759 65.20135402 52.9375 60.625 C41.61304397 55.97478024 30.56696293 50.1688216 20 44 C20 45.98 20 47.96 20 50 C13.4 50 6.8 50 0 50 C0 33.5 0 17 0 0 Z " fill="#FFCDBE" transform="translate(7,66)"/>
<path d="M0 0 C5.35014983 3.2215956 10.3157625 8.63758261 12.5625 14.5 C13.81702586 23.83678099 13.00798566 30.41074412 7.3203125 38.11328125 C5.11436759 41.10846423 3.87039814 44.0379167 2.5625 47.5 C1.9025 47.5 1.2425 47.5 0.5625 47.5 C0.5625 50.14 0.5625 52.78 0.5625 55.5 C-1.9125 55.995 -1.9125 55.995 -4.4375 56.5 C-4.3446875 57.6446875 -4.3446875 57.6446875 -4.25 58.8125 C-4.4375 61.5 -4.4375 61.5 -5.5 63.3125 C-8.57379218 65.19643714 -10.92135658 64.93180709 -14.4375 64.5 C-16.875 62.75 -16.875 62.75 -18.4375 60.5 C-18.4375 59.18 -18.4375 57.86 -18.4375 56.5 C-20.0875 56.17 -21.7375 55.84 -23.4375 55.5 C-23.4375 52.86 -23.4375 50.22 -23.4375 47.5 C-24.4275 47.17 -25.4175 46.84 -26.4375 46.5 C-27.16718931 44.57627365 -27.88890179 42.64863938 -28.546875 40.69921875 C-29.95983175 37.21020712 -32.19431045 34.5105965 -34.4375 31.5 C-36.52236175 25.24541476 -36.65441582 17.21711522 -33.9375 11.125 C-26.9760284 -0.56829038 -12.74615199 -5.64829481 0 0 Z " fill="#FDD302" transform="translate(92.4375,18.5)"/>
<path d="M0 0 C6.6 0 13.2 0 20 0 C20 16.5 20 33 20 50 C13.4 50 6.8 50 0 50 C0 33.5 0 17 0 0 Z " fill="#464E6E" transform="translate(7,66)"/>
<path d="M0 0 C7.92 0 15.84 0 24 0 C24 2.64 24 5.28 24 8 C22.35 8.33 20.7 8.66 19 9 C19.061875 9.763125 19.12375 10.52625 19.1875 11.3125 C19 14 19 14 17.9375 15.8125 C14.86370782 17.69643714 12.51614342 17.43180709 9 17 C6.5625 15.25 6.5625 15.25 5 13 C5 11.68 5 10.36 5 9 C3.35 8.67 1.7 8.34 0 8 C0 5.36 0 2.72 0 0 Z " fill="#A7D2D7" transform="translate(69,66)"/>
<path d="M0 0 C-3 2 -3 2 -6.3125 3.6875 C-11.68725511 6.77342931 -15.69600183 10.9415171 -17.375 17 C-18.64843818 23.81355069 -18.2254706 28.77150505 -15 35 C-13.7270086 36.81411007 -12.40576628 38.58407069 -11.07421875 40.35546875 C-9.67826133 42.49255265 -9.22956805 44.47475149 -9 47 C-5.535 47.495 -5.535 47.495 -2 48 C-2 48.33 -2 48.66 -2 49 C-5.96 49 -9.92 49 -14 49 C-14.556875 47.659375 -15.11375 46.31875 -15.6875 44.9375 C-17.65270963 40.48068531 -20.11023546 36.90508721 -23 33 C-25.08486175 26.74541476 -25.21691582 18.71711522 -22.5 12.625 C-19.39553442 7.41038166 -14.68528374 3.50637868 -9.4375 0.5625 C-6.24973624 -0.17313779 -3.25800746 -0.127765 0 0 Z " fill="#ECC606" transform="translate(81,17)"/>
<path d="M0 0 C2 1 2 1 3 3 C3.54016969 6.70402074 3.79253894 9.84721609 1.625 13 C0 14 0 14 -2 14 C-2 19.94 -2 25.88 -2 32 C-3.32 32 -4.64 32 -6 32 C-6 26.06 -6 20.12 -6 14 C-7.32 13.34 -8.64 12.68 -10 12 C-11.52491998 8.95016004 -11.23562548 6.3576631 -11 3 C-8.82711325 -1.20996808 -4.16043122 -0.60672955 0 0 Z " fill="#FDA812" transform="translate(85,34)"/>
<path d="M0 0 C5.45124969 0.3374081 8.69248693 3.63659424 12.6875 7 C14.0235917 8.10555538 15.36078047 9.20978667 16.69921875 10.3125 C17.57839966 11.04919922 17.57839966 11.04919922 18.4753418 11.80078125 C21.89620052 14.49145507 24.72371144 14.44237468 29 14 C31.26877535 11.58119071 31.26877535 11.58119071 33 9 C33.99 9 34.98 9 36 9 C35.78466133 12.76842665 35.00263823 13.99717333 32.375 16.8125 C29.97040255 18.60595273 28.74480519 19.05296496 25.6875 19.6875 C20.43332795 18.7079086 17.20913917 16.19292375 13 13 C11.84567738 12.15929702 10.69068693 11.3195105 9.53515625 10.48046875 C8.33466405 9.5928656 7.1354407 8.70354374 5.9375 7.8125 C5.35274902 7.38469238 4.76799805 6.95688477 4.16552734 6.51611328 C2.71953441 5.41577946 1.35194419 4.21403335 0 3 C0 2.01 0 1.02 0 0 Z " fill="#FFB2A0" transform="translate(46,94)"/>
<path d="M0 0 C4.62 0 9.24 0 14 0 C14 5 14 5 12.9375 6.8125 C9.86370782 8.69643714 7.51614342 8.43180709 4 8 C1.5625 6.25 1.5625 6.25 0 4 C0 2.68 0 1.36 0 0 Z " fill="#78A2B1" transform="translate(74,75)"/>
<path d="M0 0 C1.65 0 3.3 0 5 0 C5.33 2.31 5.66 4.62 6 7 C10.29 7.33 14.58 7.66 19 8 C19 8.33 19 8.66 19 9 C16.02077407 9.02683987 13.04178705 9.04676037 10.0625 9.0625 C8.78729492 9.07506836 8.78729492 9.07506836 7.48632812 9.08789062 C6.67744141 9.09111328 5.86855469 9.09433594 5.03515625 9.09765625 C4.2862915 9.10289307 3.53742676 9.10812988 2.76586914 9.11352539 C1 9 1 9 0 8 C-0.14115161 5.32941149 -0.04247107 2.67567762 0 0 Z " fill="#91BCC6" transform="translate(69,66)"/>
<path d="M0 0 C2.375 0.25 2.375 0.25 5 1 C7.17831524 3.90442032 7.19715281 6.45124947 7 10 C5.1875 9.8125 5.1875 9.8125 3 9 C0.46629412 5.65188866 0 4.29875783 0 0 Z " fill="#FED301" transform="translate(60,5)"/>
<path d="M0 0 C1.98 0 3.96 0 6 0 C6.309375 0.94875 6.61875 1.8975 6.9375 2.875 C7.87394742 5.86080408 7.87394742 5.86080408 9 8 C5.625 7.6875 5.625 7.6875 2 7 C0 4 0 4 0 0 Z " fill="#6A8F9B" transform="translate(74,75)"/>
<path d="M0 0 C4.21912747 0.4794463 6.79663178 1.16625119 10 4 C9.67 4.99 9.34 5.98 9 7 C5.26512223 6.5020163 3.18762365 6.12508244 0 4 C0 2.68 0 1.36 0 0 Z " fill="#FED201" transform="translate(46,19)"/>
<path d="M0 0 C1.32 0 2.64 0 4 0 C3.5205537 4.21912747 2.83374881 6.79663178 0 10 C-0.99 9.67 -1.98 9.34 -3 9 C-2.5020163 5.26512223 -2.12508244 3.18762365 0 0 Z " fill="#FED501" transform="translate(98,5)"/>
<path d="M0 0 C0 1.32 0 2.64 0 4 C-3.30134918 6.56771603 -4.72874492 7 -9 7 C-8.75 4.625 -8.75 4.625 -8 2 C-5.10189884 -0.09862498 -3.71621139 0 0 0 Z " fill="#FED401" transform="translate(116,19)"/>
<path d="M0 0 C3.37462715 0.54723683 5.08235 1.0549 8 3 C8 4.32 8 5.64 8 7 C4.26512223 6.5020163 2.18762365 6.12508244 -1 4 C-0.67 2.68 -0.34 1.36 0 0 Z " fill="#FED401" transform="translate(108,54)"/>
<path d="M0 0 C0.556875 0.226875 1.11375 0.45375 1.6875 0.6875 C1.4375 2.5625 1.4375 2.5625 0.6875 4.6875 C-2.25245019 6.71505186 -3.58954003 6.6875 -7.3125 6.6875 C-7.3125 5.3675 -7.3125 4.0475 -7.3125 2.6875 C-4.7516601 0.62460119 -3.3245861 -0.44926839 0 0 Z " fill="#FED501" transform="translate(53.3125,54.3125)"/>
<path d="M0 0 C1.32 0 2.64 0 4 0 C4 3.3 4 6.6 4 10 C2.68 10 1.36 10 0 10 C0 6.7 0 3.4 0 0 Z " fill="#FED401" transform="translate(79,0)"/>
<path d="M0 0 C3.3 0 6.6 0 10 0 C10 1.32 10 2.64 10 4 C6.7 4 3.4 4 0 4 C0 2.68 0 1.36 0 0 Z " fill="#FED602" transform="translate(41,38)"/>
<path d="M0 0 C2.97 0 5.94 0 9 0 C9 1.32 9 2.64 9 4 C6.03 4 3.06 4 0 4 C0 2.68 0 1.36 0 0 Z " fill="#FED402" transform="translate(112,38)"/>
</svg>
