<?xml version="1.0" encoding="UTF-8"?>
<svg version="1.1" xmlns="http://www.w3.org/2000/svg" width="128" height="128">
<path d="M0 0 C3.02724842 1.26135351 3.80337308 2.30913202 6 5 C7.02594053 7.97821572 7.55606498 10.89088893 8 14 C8.41435303 13.50547333 8.82870605 13.01094666 9.25561523 12.50143433 C13.38519044 8.19952326 16.47794113 6.50258796 22.47265625 6.09423828 C25.00219954 6.048295 27.53269217 6.04252001 30.0625 6.0703125 C31.421965 6.06558679 32.78142419 6.05878458 34.14086914 6.05001831 C36.97893029 6.03974527 39.81544073 6.05453753 42.65332031 6.08740234 C46.27215503 6.12729277 49.88735606 6.10430243 53.50605774 6.0623951 C56.310047 6.03696951 59.11318955 6.04520817 61.91720581 6.06328964 C63.89347728 6.07015947 65.8697831 6.04908442 67.84594727 6.02737427 C74.04646779 6.13999232 78.08637287 6.39402149 82.87890625 10.55810547 C83.95143545 11.67539357 85.00532878 12.8128687 86 14 C86.0913623 13.3601416 86.18272461 12.7202832 86.27685547 12.06103516 C86.9403457 7.77580018 87.70869135 5.3568531 90.5 1.9375 C93.9812278 -0.51130485 97.42117278 -0.70120282 101.58984375 -0.5 C105.5271311 0.31681164 107.28634241 2.07759951 110 5 C111.87079631 8.74159261 111.53120124 12.92537402 111 17 C109.73864649 20.02724842 108.69086798 20.80337308 106 23 C103.03080891 24.02283171 100.11169019 24.60680168 97 25 C97.74056641 25.79664063 97.74056641 25.79664063 98.49609375 26.609375 C99.13675781 27.31578125 99.77742188 28.0221875 100.4375 28.75 C101.07558594 29.44609375 101.71367188 30.1421875 102.37109375 30.859375 C105.10734517 34.45521619 105.12862801 37.87606388 105.16113281 42.30004883 C105.17074036 43.35827347 105.1803479 44.41649811 105.19024658 45.50679016 C105.19449646 46.64536972 105.19874634 47.78394928 105.203125 48.95703125 C105.20882507 50.13335617 105.21452515 51.30968109 105.22039795 52.52165222 C105.22984246 55.01060081 105.23637975 57.49956187 105.24023438 59.98852539 C105.24993614 63.78749512 105.28096411 67.58592293 105.3125 71.38476562 C105.31903071 73.80468429 105.32428091 76.22460682 105.328125 78.64453125 C105.3404718 79.77703812 105.3528186 80.90954498 105.36553955 82.07637024 C105.34362074 89.87428291 104.74082519 95.00421433 99.3125 100.9375 C98.549375 101.618125 97.78625 102.29875 97 103 C97.59167969 103.07476562 98.18335937 103.14953125 98.79296875 103.2265625 C103.12650332 103.94764003 105.59469304 104.66913717 109.0625 107.5 C111.51130485 110.9812278 111.70120282 114.42117278 111.5 118.58984375 C110.68318836 122.5271311 108.92240049 124.28634241 106 127 C102.25840739 128.87079631 98.07462598 128.53120124 94 128 C90.97275158 126.73864649 90.19662692 125.69086798 88 123 C86.97405947 120.02178428 86.44393502 117.10911107 86 114 C85.37847046 114.74179001 85.37847046 114.74179001 84.74438477 115.49856567 C80.61480956 119.80047674 77.52205887 121.49741204 71.52734375 121.90576172 C68.99780046 121.951705 66.46730783 121.95747999 63.9375 121.9296875 C62.578035 121.93441321 61.21857581 121.94121542 59.85913086 121.94998169 C57.02106971 121.96025473 54.18455927 121.94546247 51.34667969 121.91259766 C47.72784497 121.87270723 44.11264394 121.89569757 40.49394226 121.9376049 C37.689953 121.96303049 34.88681045 121.95479183 32.08279419 121.93671036 C30.10652272 121.92984053 28.1302169 121.95091558 26.15405273 121.97262573 C19.95353221 121.86000768 15.91362713 121.60597851 11.12109375 117.44189453 C10.04856455 116.32460643 8.99467122 115.1871313 8 114 C7.86295654 114.9597876 7.86295654 114.9597876 7.72314453 115.93896484 C7.0596543 120.22419982 6.29130865 122.6431469 3.5 126.0625 C0.0187722 128.51130485 -3.42117278 128.70120282 -7.58984375 128.5 C-11.5271311 127.68318836 -13.28634241 125.92240049 -16 123 C-17.87079631 119.25840739 -17.53120124 115.07462598 -17 111 C-15.73864649 107.97275158 -14.69086798 107.19662692 -12 105 C-9.03080891 103.97716829 -6.11169019 103.39319832 -3 103 C-3.74056641 102.20335938 -3.74056641 102.20335938 -4.49609375 101.390625 C-5.13675781 100.68421875 -5.77742187 99.9778125 -6.4375 99.25 C-7.39462891 98.20585937 -7.39462891 98.20585937 -8.37109375 97.140625 C-11.10734517 93.54478381 -11.12862801 90.12393612 -11.16113281 85.69995117 C-11.17074036 84.64172653 -11.1803479 83.58350189 -11.19024658 82.49320984 C-11.19449646 81.35463028 -11.19874634 80.21605072 -11.203125 79.04296875 C-11.20882507 77.86664383 -11.21452515 76.69031891 -11.22039795 75.47834778 C-11.22984246 72.98939919 -11.23637975 70.50043813 -11.24023438 68.01147461 C-11.24993614 64.21250488 -11.28096411 60.41407707 -11.3125 56.61523438 C-11.31903071 54.19531571 -11.32428091 51.77539318 -11.328125 49.35546875 C-11.3404718 48.22296188 -11.3528186 47.09045502 -11.36553955 45.92362976 C-11.34362074 38.12571709 -10.74082519 32.99578567 -5.3125 27.0625 C-4.1678125 26.0415625 -4.1678125 26.0415625 -3 25 C-3.59167969 24.92523437 -4.18335938 24.85046875 -4.79296875 24.7734375 C-9.12650332 24.05235997 -11.59469304 23.33086283 -15.0625 20.5 C-17.51130485 17.0187722 -17.70120282 13.57882722 -17.5 9.41015625 C-16.68318836 5.4728689 -14.92240049 3.71365759 -12 1 C-8.25840739 -0.87079631 -4.07462598 -0.53120124 0 0 Z M29 23 C30.98 25.31 32.96 27.62 35 30 C35.86625 31.134375 36.7325 32.26875 37.625 33.4375 C40.38617479 36.06205416 42.86040511 36.70834562 46.625 37.125 C53.52473146 36.85696532 56.87779529 33.13728277 61.34228516 28.35791016 C63.87431307 26.00038009 63.87431307 26.00038009 65 23 C53.12 23 41.24 23 29 23 Z M6 46 C6 57.88 6 69.76 6 82 C8.31 80.02 10.62 78.04 13 76 C14.134375 75.13375 15.26875 74.2675 16.4375 73.375 C19.06205416 70.61382521 19.70834562 68.13959489 20.125 64.375 C19.85696532 57.47526854 16.13728277 54.12220471 11.35791016 49.65771484 C9.00038009 47.12568693 9.00038009 47.12568693 6 46 Z M79.26953125 52.890625 C75.9919723 56.37807688 73.97559096 59.07470189 73.5 64 C74.1858079 71.10233936 79.20351 75.2921825 84.27734375 79.796875 C86.54583362 82.10483963 86.54583362 82.10483963 88 82 C88 70.12 88 58.24 88 46 C85.14065442 46 81.29669989 50.89668863 79.26953125 52.890625 Z M29 104 C29 104.33 29 104.66 29 105 C40.88 105 52.76 105 65 105 C63.02 102.69 61.04 100.38 59 98 C58.13375 96.865625 57.2675 95.73125 56.375 94.5625 C53.61382521 91.93794584 51.13959489 91.29165438 47.375 90.875 C38.88357666 91.20486732 34.0081787 97.81081462 29 104 Z " fill="#2EE66B" transform="translate(17,0)"/>
<path d="M0 0 C5.61 0 11.22 0 17 0 C17.08114056 4.35454354 17.14057664 8.7075656 17.1875 13.0625 C17.21263672 14.29162109 17.23777344 15.52074219 17.26367188 16.78710938 C17.33121231 25.13960952 17.1216591 30.58795401 11.3125 36.9375 C10.549375 37.618125 9.78625 38.29875 9 39 C9.59167969 39.07476562 10.18335938 39.14953125 10.79296875 39.2265625 C15.12650332 39.94764003 17.59469304 40.66913717 21.0625 43.5 C23.51130485 46.9812278 23.70120282 50.42117278 23.5 54.58984375 C22.68318836 58.5271311 20.92240049 60.28634241 18 63 C14.25840739 64.87079631 10.07462598 64.53120124 6 64 C2.97275158 62.73864649 2.19662692 61.69086798 0 59 C-1.02594053 56.02178428 -1.55606498 53.10911107 -2 50 C-2.391875 50.50023682 -2.78375 51.00047363 -3.1875 51.51586914 C-6.41141063 54.9964246 -8.80530558 56.80650007 -13.56640625 57.57763672 C-17.73131412 57.68806988 -21.83988464 57.6126081 -26 57.4375 C-27.45695606 57.4023321 -28.91399408 57.37040271 -30.37109375 57.34179688 C-33.91776464 57.27118625 -37.45291248 57.13429478 -41 57 C-41 51.72 -41 46.44 -41 41 C-32.585 40.505 -32.585 40.505 -24 40 C-27.61469564 36.46439742 -27.61469564 36.46439742 -31.24023438 32.93994141 C-32.53106775 31.66354376 -33.76736513 30.3326864 -35 29 C-35 28.34 -35 27.68 -35 27 C-34.33613281 26.69707031 -33.67226562 26.39414063 -32.98828125 26.08203125 C-24.44725682 22.02972039 -19.50818062 17.28811668 -15 9 C-14.67 8.01 -14.34 7.02 -14 6 C-8.5548038 8.27299474 -5.0435976 12.83747306 -1 17 C-0.67 11.39 -0.34 5.78 0 0 Z " fill="#E52E2E" transform="translate(105,64)"/>
<path d="M0 0 C5.61 0 11.22 0 17 0 C17.495 8.415 17.495 8.415 18 17 C21.53560258 13.38530436 21.53560258 13.38530436 25.06005859 9.75976562 C26.33645624 8.46893225 27.6673136 7.23263487 29 6 C29.66 6 30.32 6 31 6 C31.30292969 6.66386719 31.60585938 7.32773438 31.91796875 8.01171875 C35.97027961 16.55274318 40.71188332 21.49181938 49 26 C49.99 26.33 50.98 26.66 52 27 C49.72700526 32.4451962 45.16252694 35.9564024 41 40 C46.61 40.33 52.22 40.66 58 41 C58 46.28 58 51.56 58 57 C53.72822108 57.16173201 49.46723956 57.30064526 45.19482422 57.38452148 C43.74556316 57.41950365 42.29654519 57.46710991 40.84814453 57.52807617 C27.27104592 58.08482143 27.27104592 58.08482143 22 53.47265625 C20.1875 51.51586914 20.1875 51.51586914 19 50 C18.9086377 50.6398584 18.81727539 51.2797168 18.72314453 51.93896484 C18.0596543 56.22419982 17.29130865 58.6431469 14.5 62.0625 C11.0187722 64.51130485 7.57882722 64.70120282 3.41015625 64.5 C-0.5271311 63.68318836 -2.28634241 61.92240049 -5 59 C-6.87079631 55.25840739 -6.53120124 51.07462598 -6 47 C-4.73864649 43.97275158 -3.69086798 43.19662692 -1 41 C1.96919109 39.97716829 4.88830981 39.39319832 8 39 C7.50628906 38.46890625 7.01257812 37.9378125 6.50390625 37.390625 C5.86324219 36.68421875 5.22257813 35.9778125 4.5625 35.25 C3.92441406 34.55390625 3.28632813 33.8578125 2.62890625 33.140625 C-0.32989399 29.25232157 -0.12019341 25.48100265 -0.09765625 20.703125 C-0.09443359 19.49785156 -0.09121094 18.29257813 -0.08789062 17.05078125 C-0.07951172 15.79652344 -0.07113281 14.54226562 -0.0625 13.25 C-0.05798828 11.98027344 -0.05347656 10.71054688 -0.04882812 9.40234375 C-0.03704566 6.26820905 -0.01911036 3.13409858 0 0 Z " fill="#7FAAFE" transform="translate(6,64)"/>
<path d="M0 0 C3.02724842 1.26135351 3.80337308 2.30913202 6 5 C7.02594053 7.97821572 7.55606498 10.89088893 8 14 C8.391875 13.49976318 8.78375 12.99952637 9.1875 12.48413086 C12.41141063 9.0035754 14.80530558 7.19349993 19.56640625 6.42236328 C23.73131412 6.31193012 27.83988464 6.3873919 32 6.5625 C33.45695606 6.5976679 34.91399408 6.62959729 36.37109375 6.65820312 C39.91776464 6.72881375 43.45291248 6.86570522 47 7 C47 12.28 47 17.56 47 23 C38.585 23.495 38.585 23.495 30 24 C33.61469564 27.53560258 33.61469564 27.53560258 37.24023438 31.06005859 C38.53106775 32.33645624 39.76736513 33.6673136 41 35 C41 35.66 41 36.32 41 37 C40.00419922 37.47179688 40.00419922 37.47179688 38.98828125 37.953125 C38.10527344 38.38109375 37.22226562 38.8090625 36.3125 39.25 C35.44238281 39.66765625 34.57226562 40.0853125 33.67578125 40.515625 C28.14277914 43.58502763 25.37458954 46.5008782 22.6875 52.25 C22.17574219 53.32765625 21.66398437 54.4053125 21.13671875 55.515625 C20.76160156 56.33546875 20.38648438 57.1553125 20 58 C14.5548038 55.72700526 11.0435976 51.16252694 7 47 C6.67 52.61 6.34 58.22 6 64 C0.39 64 -5.22 64 -11 64 C-11.08114056 59.64545646 -11.14057664 55.2924344 -11.1875 50.9375 C-11.21263672 49.70837891 -11.23777344 48.47925781 -11.26367188 47.21289062 C-11.33121231 38.86039048 -11.1216591 33.41204599 -5.3125 27.0625 C-4.1678125 26.0415625 -4.1678125 26.0415625 -3 25 C-3.59167969 24.92523437 -4.18335938 24.85046875 -4.79296875 24.7734375 C-9.12650332 24.05235997 -11.59469304 23.33086283 -15.0625 20.5 C-17.51130485 17.0187722 -17.70120282 13.57882722 -17.5 9.41015625 C-16.68318836 5.4728689 -14.92240049 3.71365759 -12 1 C-8.25840739 -0.87079631 -4.07462598 -0.53120124 0 0 Z " fill="#FEC34D" transform="translate(17,0)"/>
<path d="M0 0 C1.53888622 0.8860254 3.06279029 1.79916741 4.5625 2.75 C5.92375 3.5853125 5.92375 3.5853125 7.3125 4.4375 C14.20811587 11.52466075 16.99193057 19.08932223 16.9140625 28.796875 C16.12189189 35.45110813 12.26566006 42.04683994 7.5625 46.75 C-0.455565 52.53518614 -7.46689911 54.97772324 -17.4375 53.75 C-26.65930901 50.55293638 -32.89418317 45.3105654 -37.4375 36.75 C-40.49084548 30.15048837 -40.62890125 23.46463507 -38.41015625 16.546875 C-34.4687325 7.85609023 -29.1874181 3.52825398 -21.125 -1.1875 C-13.76623618 -3.30782178 -6.9675577 -3.36938611 0 0 Z " fill="#30E56C" transform="translate(75.4375,38.25)"/>
<path d="M0 0 C9.09745067 1.01082785 14.48190549 2.39647933 20.859375 8.89453125 C26.2868519 15.70574607 28.66424982 22.46200649 28.421875 31.1875 C27.43267831 37.78214461 23.6889348 44.3110652 19 49 C12.81728585 53.46094565 7.71858281 56.11630741 0 56 C-1.63192618 38.66531751 -1.63192618 38.66531751 2.26171875 33.2421875 C4.03293029 31.13043153 5.89123443 29.3451484 7.91015625 27.4453125 C10.34239178 25.17672717 10.34239178 25.17672717 9.80859375 22.1796875 C9.54175781 21.46039063 9.27492188 20.74109375 9 20 C4.71309943 20.63509638 3.85853147 21.91317483 0 25 C0 16.75 0 8.5 0 0 Z " fill="#25B282" transform="translate(64,36)"/>
<path d="M0 0 C3.74624361 1.66499716 5.81723041 3.5638193 8 7 C8.80503292 11.06541625 8.95254041 15.23956421 6.9453125 18.94921875 C4.56190654 21.86148698 2.60234486 23.79826593 -1.171875 24.2734375 C-8.99068626 24.58145128 -8.99068626 24.58145128 -12.5625 21.6875 C-15.85458634 18.05776378 -16.45285147 15.01838201 -16.42578125 10.13671875 C-15.64365115 6.21171725 -12.91214543 3.60282428 -10 1 C-6.80657621 -0.59671189 -3.47454369 -0.37418163 0 0 Z " fill="#FEA58B" transform="translate(120,104)"/>
<path d="M0 0 C3.3249149 2.06615171 6.23445396 4.46890792 8 8 C8.35017306 13.3401391 8.46830225 16.66462219 5 21 C1.21050298 24.37117592 -1.58504716 24.56088501 -6.51953125 24.4296875 C-10.54378559 23.73257257 -12.25081366 21.96066221 -15 19 C-16.86356079 15.27287842 -16.56549975 11.0579268 -16 7 C-12.70565409 0.62753938 -6.89871703 -1.37469864 0 0 Z " fill="#D58678" transform="translate(16,104)"/>
<path d="M0 0 C3.12001504 1.68818449 5.39047471 3.78094941 7 7 C7.51436888 11.08555854 7.92098732 15.21847627 5.98828125 18.95703125 C3.85188119 21.59384934 2.23364822 22.92211726 -1 24 C-8.63119919 24.75060976 -8.63119919 24.75060976 -12.375 21.6875 C-15.67030392 18.31373646 -16.92847776 16.88687574 -17.3125 12.125 C-17.20787568 8.32364963 -16.41999831 6.02499788 -14 3 C-9.6774466 -0.84538842 -5.57079728 -0.96502 0 0 Z " fill="#C66D58" transform="translate(121,0)"/>
<path d="M0 0 C3.62531608 1.8741654 5.69121639 4.07364917 7 8 C7.78580372 14.73546047 7.78580372 14.73546047 5.73046875 18.04296875 C3.65802155 20.4885573 1.8866612 22.5566694 -1 24 C-6.3401391 24.35017306 -9.66462219 24.46830225 -14 21 C-17.37117592 17.21050298 -17.56088501 14.41495284 -17.4296875 9.48046875 C-16.73257257 5.45621441 -14.96066221 3.74918634 -12 1 C-8.27287842 -0.86356079 -4.0579268 -0.56549975 0 0 Z " fill="#FFBDA9" transform="translate(17,0)"/>
<path d="M0 0 C2.3125 0.1875 2.3125 0.1875 4 1 C4.8203125 3.07421875 4.8203125 3.07421875 5 6 C3.37440638 8.53961788 1.84678232 10.57930714 -0.125 12.8125 C-0.61226562 13.40998047 -1.09953125 14.00746094 -1.6015625 14.62304688 C-3.76568004 17.14113577 -5.31234711 18.83533613 -8.59375 19.62109375 C-11.70779242 18.81730683 -13.12947965 17.53725864 -15.375 15.25 C-16.08398438 14.55390625 -16.79296875 13.8578125 -17.5234375 13.140625 C-19 11 -19 11 -18.7265625 8.734375 C-18.48679688 8.16203125 -18.24703125 7.5896875 -18 7 C-15.6875 6.375 -15.6875 6.375 -13 6 C-12.01 6.66 -11.02 7.32 -10 8 C-10 8.66 -10 9.32 -10 10 C-9.278125 9.278125 -8.55625 8.55625 -7.8125 7.8125 C-6.4203125 6.4203125 -6.4203125 6.4203125 -5 5 C-4.154375 4.05125 -3.30875 3.1025 -2.4375 2.125 C-1.633125 1.42375 -0.82875 0.7225 0 0 Z " fill="#DFF1ED" transform="translate(70,55)"/>
<path d="M0 0 C0.87205078 0.33257812 0.87205078 0.33257812 1.76171875 0.671875 C2.56640625 2.77734375 2.56640625 2.77734375 2.76171875 5.671875 C1.20783604 8.02633227 -0.24209402 9.92004914 -2.11328125 11.984375 C-2.82291016 12.80905273 -2.82291016 12.80905273 -3.546875 13.65039062 C-4.74280316 15.02178972 -5.98685439 16.35092442 -7.23828125 17.671875 C-7.56828125 17.671875 -7.89828125 17.671875 -8.23828125 17.671875 C-10.23611831 8.38780867 -10.23611831 8.38780867 -7.88671875 4.34765625 C-3.28306138 -0.48128648 -3.28306138 -0.48128648 0 0 Z " fill="#C7E3E1" transform="translate(72.23828125,55.328125)"/>
</svg>
