<?xml version="1.0" encoding="UTF-8"?>
<svg xmlns="http://www.w3.org/2000/svg" xmlns:xlink="http://www.w3.org/1999/xlink" width="50px" height="50px" viewBox="0 0 50 50" version="1.1">
<g id="surface1">
<path style=" stroke:none;fill-rule:nonzero;fill:rgb(66.27451%,54.117647%,45.882353%);fill-opacity:1;" d="M 17.445312 25.320312 C 15.1875 25.695312 13.746094 23.902344 13.757812 22.613281 C 13.792969 21.523438 13.949219 20.445312 14.214844 19.390625 C 14.574219 18.113281 14.832031 15.863281 14.832031 12.746094 C 14.675781 8.144531 15.886719 4.804688 17.796875 2.980469 C 18.945312 1.878906 21.539062 0.378906 24.449219 0.378906 C 25.902344 0.355469 27.339844 0.628906 28.679688 1.1875 L 29.976562 1.828125 C 30.539062 2.160156 30.738281 2.441406 31.316406 2.992188 C 32.765625 4.382812 33.773438 6.886719 33.9375 9.128906 C 33.984375 9.773438 34.074219 11.316406 34.03125 12.621094 C 34.03125 14.859375 34.34375 17.089844 34.960938 19.242188 C 35.332031 20.5 35.832031 22.117188 35.429688 23.367188 C 34.9375 24.886719 33.179688 25.824219 31.652344 25.28125 Z M 17.445312 25.320312 "/>
<path style=" stroke:none;fill-rule:nonzero;fill:rgb(100%,100%,100%);fill-opacity:1;" d="M 18.042969 11.5 C 19.421875 10.367188 20.90625 8.957031 22.265625 7.621094 C 22.210938 8.109375 22.007812 8.945312 21.972656 9.453125 C 21.960938 9.65625 22.003906 9.726562 22.160156 9.800781 C 22.292969 9.835938 22.4375 9.828125 22.570312 9.78125 C 24.542969 9.136719 26.265625 7.882812 27.484375 6.203125 C 27.753906 7.234375 28.136719 8.523438 28.46875 9.148438 C 29.292969 10.703125 30.6875 12.007812 31.925781 12.386719 C 32.152344 12.179688 32.453125 12.070312 32.761719 12.085938 C 33.152344 12.074219 33.523438 12.28125 33.71875 12.621094 C 34.042969 13.191406 34.023438 14.230469 33.804688 14.875 C 33.648438 15.332031 33.390625 16.03125 32.773438 16.53125 C 32.5 16.753906 32.144531 16.855469 31.792969 16.808594 L 31.703125 16.792969 C 31.609375 17.105469 31.492188 17.410156 31.359375 17.707031 C 31.113281 18.371094 29.765625 20.671875 28.058594 21.617188 C 28.066406 21.972656 28.054688 22.101562 28.085938 22.550781 C 28.09375 22.761719 28.128906 22.96875 28.191406 23.167969 C 28.28125 23.421875 28.4375 23.648438 28.644531 23.824219 C 29.101562 24.191406 29.574219 24.371094 30.152344 24.585938 L 30.757812 24.824219 C 29.226562 25.871094 26.699219 26.457031 24.554688 26.503906 C 22.441406 26.457031 19.941406 25.886719 18.410156 24.863281 L 19.117188 24.585938 C 19.699219 24.367188 20.167969 24.191406 20.628906 23.820312 C 20.832031 23.648438 20.988281 23.421875 21.078125 23.167969 C 21.144531 22.96875 21.179688 22.757812 21.183594 22.550781 C 21.214844 22.136719 21.207031 21.992188 21.210938 21.691406 C 20.414062 21.308594 19.699219 20.695312 19.019531 19.875 C 18.257812 18.953125 17.695312 17.882812 17.367188 16.734375 C 16.992188 16.8125 16.601562 16.714844 16.308594 16.464844 C 15.699219 15.960938 15.445312 15.261719 15.292969 14.804688 C 15.078125 14.160156 15.066406 13.117188 15.394531 12.550781 C 15.59375 12.210938 15.964844 12.007812 16.359375 12.023438 C 16.621094 12.011719 16.878906 12.089844 17.089844 12.246094 C 17.398438 12.015625 17.71875 11.765625 18.042969 11.5 Z M 18.042969 11.5 "/>
<path style=" stroke:none;fill-rule:nonzero;fill:rgb(12.941176%,9.019608%,8.235294%);fill-opacity:1;" d="M 31.480469 16.152344 C 31.410156 16.464844 31.320312 16.773438 31.210938 17.078125 C 31.128906 17.308594 31.0625 17.453125 30.972656 17.667969 C 30.957031 17.710938 31.007812 17.59375 30.988281 17.636719 C 30.980469 17.648438 30.976562 17.664062 30.96875 17.679688 C 30.953125 17.710938 30.941406 17.738281 30.925781 17.769531 C 30.890625 17.84375 30.851562 17.917969 30.8125 17.992188 C 30.722656 18.164062 30.625 18.332031 30.523438 18.496094 C 30 19.382812 29.328125 20.175781 28.539062 20.84375 C 28.109375 21.207031 27.601562 21.46875 27.054688 21.605469 C 26.585938 21.714844 26.785156 22.4375 27.253906 22.332031 C 28.375 22.074219 29.3125 21.257812 30.046875 20.410156 C 30.679688 19.707031 31.207031 18.914062 31.617188 18.058594 C 31.640625 18.003906 31.664062 17.949219 31.683594 17.894531 C 31.695312 17.871094 31.742188 17.765625 31.699219 17.863281 C 31.761719 17.722656 31.820312 17.578125 31.878906 17.429688 C 32.015625 17.078125 32.121094 16.71875 32.203125 16.351562 C 32.300781 15.878906 31.578125 15.679688 31.480469 16.152344 Z M 31.480469 16.152344 "/>
<path style=" stroke:none;fill-rule:nonzero;fill:rgb(12.941176%,9.019608%,8.235294%);fill-opacity:1;" d="M 16.859375 16.269531 C 17.101562 17.367188 17.542969 18.410156 18.160156 19.351562 C 18.824219 20.351562 19.695312 21.289062 20.753906 21.878906 C 21.292969 22.179688 21.878906 22.382812 22.488281 22.476562 C 22.6875 22.523438 22.890625 22.410156 22.949219 22.214844 C 23.003906 22.015625 22.886719 21.808594 22.6875 21.753906 C 20.519531 21.421875 18.902344 19.542969 18.074219 17.617188 C 17.863281 17.117188 17.699219 16.597656 17.585938 16.070312 C 17.480469 15.597656 16.757812 15.796875 16.863281 16.269531 Z M 16.859375 16.269531 "/>
<path style=" stroke:none;fill-rule:nonzero;fill:rgb(12.941176%,9.019608%,8.235294%);fill-opacity:1;" d="M 23.160156 18.558594 C 23.605469 18.789062 24.101562 18.90625 24.605469 18.898438 C 25.125 18.921875 25.636719 18.769531 26.0625 18.472656 C 26.210938 18.324219 26.210938 18.089844 26.0625 17.941406 C 25.914062 17.800781 25.683594 17.800781 25.535156 17.941406 C 25.648438 17.851562 25.558594 17.921875 25.53125 17.9375 C 25.5 17.957031 25.472656 17.976562 25.441406 17.992188 C 25.425781 18 25.410156 18.007812 25.390625 18.015625 C 25.332031 18.046875 25.40625 18.011719 25.40625 18.007812 C 25.367188 18.027344 25.328125 18.042969 25.285156 18.054688 C 25.171875 18.089844 25.054688 18.117188 24.9375 18.132812 C 24.992188 18.125 24.925781 18.132812 24.90625 18.132812 C 24.871094 18.136719 24.835938 18.140625 24.804688 18.140625 C 24.722656 18.148438 24.640625 18.148438 24.558594 18.148438 C 24.484375 18.148438 24.410156 18.144531 24.339844 18.140625 C 24.304688 18.136719 24.269531 18.132812 24.238281 18.128906 C 24.113281 18.117188 24.304688 18.144531 24.1875 18.125 C 24.082031 18.105469 23.972656 18.082031 23.867188 18.050781 C 23.820312 18.039062 23.777344 18.023438 23.734375 18.007812 C 23.636719 17.972656 23.789062 18.035156 23.703125 17.992188 C 23.648438 17.96875 23.59375 17.941406 23.539062 17.910156 C 23.359375 17.804688 23.128906 17.867188 23.027344 18.046875 C 22.921875 18.222656 22.980469 18.453125 23.160156 18.558594 Z M 23.160156 18.558594 "/>
<path style=" stroke:none;fill-rule:nonzero;fill:rgb(12.941176%,9.019608%,8.235294%);fill-opacity:1;" d="M 24.425781 15.15625 C 24.492188 15.398438 24.546875 15.640625 24.582031 15.886719 L 24.570312 15.789062 C 24.574219 15.820312 24.574219 15.855469 24.574219 15.890625 L 24.585938 15.789062 C 24.582031 15.804688 24.582031 15.820312 24.574219 15.835938 L 24.613281 15.746094 C 24.609375 15.753906 24.601562 15.765625 24.597656 15.773438 L 24.65625 15.699219 C 24.648438 15.707031 24.640625 15.714844 24.632812 15.722656 L 24.707031 15.664062 C 24.6875 15.675781 24.667969 15.683594 24.648438 15.695312 L 24.738281 15.65625 C 24.707031 15.667969 24.675781 15.679688 24.640625 15.683594 L 24.742188 15.671875 C 24.710938 15.675781 24.679688 15.675781 24.648438 15.671875 L 24.75 15.683594 C 24.714844 15.679688 24.679688 15.671875 24.648438 15.667969 C 24.550781 15.644531 24.445312 15.65625 24.359375 15.703125 C 24.179688 15.808594 24.117188 16.039062 24.222656 16.214844 C 24.269531 16.300781 24.351562 16.363281 24.445312 16.386719 C 24.523438 16.398438 24.601562 16.417969 24.679688 16.421875 C 24.800781 16.425781 24.921875 16.394531 25.027344 16.339844 C 25.164062 16.28125 25.265625 16.160156 25.304688 16.011719 C 25.328125 15.894531 25.328125 15.773438 25.300781 15.65625 C 25.261719 15.421875 25.210938 15.1875 25.148438 14.957031 C 25.09375 14.757812 24.886719 14.640625 24.6875 14.695312 C 24.488281 14.75 24.371094 14.957031 24.425781 15.15625 Z M 24.425781 15.15625 "/>
<path style=" stroke:none;fill-rule:nonzero;fill:rgb(12.941176%,9.019608%,8.235294%);fill-opacity:1;" d="M 20.574219 13.070312 C 20.449219 13.46875 20.527344 14.378906 21.273438 14.460938 C 22.269531 14.457031 22.324219 13.355469 21.992188 12.835938 C 21.722656 12.410156 20.917969 12.230469 20.574219 13.070312 Z M 20.574219 13.070312 "/>
<path style=" stroke:none;fill-rule:nonzero;fill:rgb(12.941176%,9.019608%,8.235294%);fill-opacity:1;" d="M 28.523438 13.101562 C 28.644531 13.5 28.558594 14.410156 27.808594 14.484375 C 26.816406 14.476562 26.765625 13.375 27.105469 12.855469 C 27.378906 12.433594 28.183594 12.257812 28.523438 13.101562 Z M 28.523438 13.101562 "/>
<path style=" stroke:none;fill-rule:nonzero;fill:rgb(12.941176%,9.019608%,8.235294%);fill-opacity:1;" d="M 32.191406 12.652344 C 32.539062 12.359375 33.058594 12.402344 33.355469 12.746094 C 33.304688 12.679688 33.367188 12.765625 33.375 12.78125 C 33.394531 12.816406 33.417969 12.855469 33.4375 12.898438 C 33.484375 13.011719 33.519531 13.128906 33.542969 13.25 C 33.59375 13.523438 33.605469 13.800781 33.582031 14.074219 C 33.535156 14.554688 33.394531 15.023438 33.164062 15.449219 C 32.929688 15.890625 32.476562 16.527344 31.894531 16.445312 C 31.695312 16.398438 31.492188 16.511719 31.433594 16.707031 C 31.378906 16.910156 31.496094 17.113281 31.695312 17.171875 C 33.039062 17.359375 33.828125 16.039062 34.179688 14.929688 C 34.351562 14.355469 34.386719 13.75 34.285156 13.160156 C 34.234375 12.679688 33.980469 12.242188 33.59375 11.957031 C 32.984375 11.574219 32.195312 11.644531 31.660156 12.121094 C 31.300781 12.445312 31.832031 12.972656 32.191406 12.652344 Z M 32.191406 12.652344 "/>
<path style=" stroke:none;fill-rule:nonzero;fill:rgb(12.941176%,9.019608%,8.235294%);fill-opacity:1;" d="M 17.453125 12.066406 C 16.96875 11.628906 16.269531 11.527344 15.679688 11.800781 C 15.269531 12.011719 14.972656 12.394531 14.875 12.847656 C 14.585938 13.910156 14.855469 15.140625 15.453125 16.054688 C 15.855469 16.667969 16.5 17.230469 17.285156 17.128906 C 17.492188 17.121094 17.65625 16.957031 17.660156 16.753906 C 17.660156 16.570312 17.488281 16.351562 17.285156 16.378906 C 16.65625 16.460938 16.222656 15.933594 15.953125 15.429688 C 15.714844 14.996094 15.566406 14.519531 15.523438 14.03125 C 15.5 13.746094 15.511719 13.457031 15.566406 13.179688 C 15.585938 13.074219 15.617188 12.96875 15.65625 12.871094 C 15.675781 12.816406 15.703125 12.765625 15.734375 12.71875 C 15.742188 12.707031 15.8125 12.609375 15.757812 12.675781 C 16.0625 12.335938 16.578125 12.300781 16.925781 12.59375 C 17.28125 12.917969 17.8125 12.390625 17.453125 12.066406 Z M 17.453125 12.066406 "/>
<path style=" stroke:none;fill-rule:nonzero;fill:rgb(12.941176%,9.019608%,8.235294%);fill-opacity:1;" d="M 27.148438 6.390625 C 27.417969 7.410156 27.683594 8.492188 28.191406 9.425781 C 28.734375 10.421875 29.476562 11.292969 30.378906 11.980469 C 30.8125 12.316406 31.300781 12.578125 31.824219 12.75 C 32.289062 12.894531 32.484375 12.171875 32.023438 12.027344 C 30.894531 11.671875 29.945312 10.71875 29.285156 9.765625 C 28.539062 8.695312 28.199219 7.441406 27.871094 6.191406 C 27.746094 5.726562 27.023438 5.921875 27.148438 6.390625 Z M 27.148438 6.390625 "/>
<path style=" stroke:none;fill-rule:nonzero;fill:rgb(12.941176%,9.019608%,8.235294%);fill-opacity:1;" d="M 27.15625 6.023438 C 26.496094 6.910156 25.691406 7.683594 24.773438 8.300781 C 24.308594 8.609375 23.816406 8.878906 23.308594 9.105469 C 23.054688 9.214844 22.792969 9.316406 22.53125 9.402344 C 22.472656 9.421875 22.417969 9.4375 22.359375 9.449219 C 22.339844 9.445312 22.320312 9.445312 22.300781 9.449219 C 22.230469 9.476562 22.304688 9.417969 22.308594 9.460938 C 22.3125 9.488281 22.335938 9.578125 22.347656 9.535156 C 22.355469 9.46875 22.359375 9.402344 22.359375 9.335938 C 22.417969 8.761719 22.570312 8.195312 22.640625 7.621094 C 22.683594 7.285156 22.214844 7.148438 22 7.355469 C 20.632812 8.703125 19.238281 10.035156 17.753906 11.253906 C 17.609375 11.402344 17.609375 11.636719 17.753906 11.785156 C 17.902344 11.925781 18.132812 11.925781 18.28125 11.785156 C 19.769531 10.566406 21.160156 9.234375 22.53125 7.886719 L 21.890625 7.621094 C 21.824219 8.15625 21.664062 8.765625 21.609375 9.335938 C 21.578125 9.660156 21.644531 9.949219 21.945312 10.113281 C 22.269531 10.289062 22.644531 10.15625 22.964844 10.042969 C 24.195312 9.597656 25.328125 8.925781 26.304688 8.054688 C 26.859375 7.558594 27.359375 7.003906 27.804688 6.402344 C 27.90625 6.222656 27.847656 5.992188 27.667969 5.886719 C 27.488281 5.789062 27.261719 5.847656 27.15625 6.023438 Z M 27.15625 6.023438 "/>
<path style=" stroke:none;fill-rule:nonzero;fill:rgb(12.941176%,9.019608%,8.235294%);fill-opacity:1;" d="M 33.65625 12.621094 C 33.667969 14.933594 33.996094 17.234375 34.632812 19.457031 C 34.910156 20.402344 35.214844 21.375 35.203125 22.371094 C 35.214844 23.199219 34.839844 23.984375 34.1875 24.496094 C 33.5 25.039062 32.582031 25.199219 31.753906 24.921875 C 31.296875 24.761719 31.097656 25.488281 31.554688 25.644531 C 33.328125 26.253906 35.382812 25.101562 35.839844 23.292969 C 36.109375 22.226562 35.867188 21.085938 35.582031 20.046875 C 35.28125 18.933594 34.949219 17.839844 34.753906 16.699219 C 34.53125 15.351562 34.414062 13.988281 34.40625 12.621094 C 34.398438 12.136719 33.648438 12.136719 33.65625 12.621094 Z M 33.65625 12.621094 "/>
<path style=" stroke:none;fill-rule:nonzero;fill:rgb(12.941176%,9.019608%,8.235294%);fill-opacity:1;" d="M 29.785156 2.152344 C 30.078125 2.332031 30.347656 2.550781 30.582031 2.796875 C 30.855469 3.066406 31.136719 3.328125 31.390625 3.613281 C 31.886719 4.191406 32.296875 4.839844 32.609375 5.53125 C 32.945312 6.253906 33.199219 7.015625 33.363281 7.792969 C 33.5 8.460938 33.578125 9.136719 33.605469 9.8125 C 33.65625 10.746094 33.683594 11.683594 33.65625 12.617188 C 33.640625 13.101562 34.390625 13.101562 34.40625 12.617188 C 34.433594 11.746094 34.40625 10.875 34.363281 10.003906 C 34.339844 9.265625 34.261719 8.535156 34.132812 7.808594 C 33.8125 6.191406 33.148438 4.585938 32.101562 3.300781 C 31.804688 2.953125 31.488281 2.621094 31.152344 2.308594 C 30.859375 2 30.527344 1.730469 30.164062 1.503906 C 29.75 1.257812 29.371094 1.90625 29.785156 2.152344 Z M 29.785156 2.152344 "/>
<path style=" stroke:none;fill-rule:nonzero;fill:rgb(12.941176%,9.019608%,8.235294%);fill-opacity:1;" d="M 28.777344 0.824219 C 27.285156 0.21875 25.679688 -0.0585938 24.070312 0.0117188 C 22.40625 0.101562 20.785156 0.582031 19.339844 1.410156 C 18.277344 1.984375 17.355469 2.785156 16.632812 3.753906 C 15.890625 4.8125 15.34375 5.992188 15.023438 7.246094 C 14.535156 9.027344 14.398438 10.902344 14.457031 12.746094 C 14.472656 13.226562 15.21875 13.226562 15.203125 12.746094 C 15.117188 9.957031 15.457031 6.941406 17 4.542969 C 17.589844 3.632812 18.375 2.871094 19.296875 2.304688 C 20.566406 1.5 22 0.988281 23.492188 0.804688 C 25.222656 0.628906 26.972656 0.886719 28.578125 1.550781 C 28.777344 1.601562 28.984375 1.484375 29.039062 1.289062 C 29.089844 1.089844 28.976562 0.886719 28.777344 0.828125 Z M 28.777344 0.824219 "/>
<path style=" stroke:none;fill-rule:nonzero;fill:rgb(12.941176%,9.019608%,8.235294%);fill-opacity:1;" d="M 14.457031 12.746094 C 14.453125 14.035156 14.414062 15.332031 14.296875 16.617188 C 14.230469 17.46875 14.097656 18.316406 13.894531 19.144531 C 13.613281 20.199219 13.445312 21.277344 13.386719 22.367188 C 13.355469 23.234375 13.6875 24.074219 14.304688 24.683594 C 15.15625 25.558594 16.359375 25.871094 17.546875 25.683594 C 17.746094 25.628906 17.859375 25.421875 17.808594 25.222656 C 17.75 25.027344 17.546875 24.910156 17.347656 24.960938 C 16.457031 25.113281 15.550781 24.835938 14.898438 24.21875 C 14.636719 23.96875 14.429688 23.667969 14.285156 23.339844 C 14.21875 23.175781 14.171875 23.007812 14.144531 22.835938 C 14.132812 22.773438 14.140625 22.855469 14.136719 22.773438 C 14.136719 22.730469 14.132812 22.691406 14.132812 22.648438 C 14.128906 22.535156 14.136719 22.425781 14.140625 22.3125 C 14.199219 21.304688 14.359375 20.304688 14.621094 19.328125 C 14.816406 18.507812 14.953125 17.679688 15.023438 16.839844 C 15.160156 15.480469 15.203125 14.109375 15.203125 12.746094 C 15.203125 12.261719 14.453125 12.261719 14.453125 12.746094 Z M 14.457031 12.746094 "/>
<path style=" stroke:none;fill-rule:nonzero;fill:rgb(12.941176%,9.019608%,8.235294%);fill-opacity:1;" d="M 20.835938 21.816406 C 20.832031 22.007812 20.832031 22.199219 20.820312 22.390625 C 20.820312 22.621094 20.785156 22.847656 20.71875 23.066406 C 20.550781 23.492188 20.167969 23.722656 19.773438 23.917969 C 19.273438 24.160156 18.738281 24.335938 18.222656 24.539062 C 18.027344 24.597656 17.910156 24.800781 17.960938 25 C 18.015625 25.199219 18.222656 25.316406 18.421875 25.261719 C 19.039062 25.019531 19.691406 24.8125 20.277344 24.5 C 20.527344 24.371094 20.757812 24.210938 20.964844 24.023438 C 21.167969 23.824219 21.324219 23.578125 21.421875 23.3125 C 21.601562 22.855469 21.582031 22.304688 21.582031 21.816406 C 21.585938 21.335938 20.835938 21.335938 20.832031 21.816406 Z M 20.835938 21.816406 "/>
<path style=" stroke:none;fill-rule:nonzero;fill:rgb(12.941176%,9.019608%,8.235294%);fill-opacity:1;" d="M 27.6875 21.816406 C 27.6875 22.304688 27.667969 22.855469 27.847656 23.3125 C 27.945312 23.578125 28.101562 23.824219 28.304688 24.023438 C 28.511719 24.210938 28.742188 24.371094 28.992188 24.5 C 29.578125 24.8125 30.230469 25.019531 30.847656 25.261719 C 31.046875 25.316406 31.253906 25.199219 31.308594 25 C 31.359375 24.800781 31.242188 24.597656 31.046875 24.539062 C 30.53125 24.335938 29.996094 24.160156 29.496094 23.917969 C 29.101562 23.722656 28.71875 23.492188 28.550781 23.066406 C 28.484375 22.847656 28.449219 22.621094 28.449219 22.390625 C 28.4375 22.199219 28.4375 22.007812 28.433594 21.816406 C 28.433594 21.335938 27.683594 21.335938 27.683594 21.816406 Z M 27.6875 21.816406 "/>
<path style=" stroke:none;fill-rule:nonzero;fill:rgb(97.254902%,72.156863%,70.588235%);fill-opacity:1;" d="M 15.257812 26.050781 C 16.226562 25.550781 17.421875 25.039062 18.210938 24.726562 C 19.71875 25.835938 22.347656 26.457031 24.554688 26.503906 C 26.695312 26.457031 29.21875 25.871094 30.75 24.828125 L 30.84375 24.867188 C 32.347656 25.394531 33.796875 26.054688 35.183594 26.835938 C 36.320312 27.496094 37.300781 28.390625 38.058594 29.460938 C 38.707031 30.425781 39.238281 31.464844 39.636719 32.554688 C 40.25 34.371094 40.664062 39.019531 40.867188 41.570312 C 40.953125 42.613281 41.015625 43.65625 41.015625 44.703125 C 41.015625 46.070312 40.679688 47.921875 38.921875 48.808594 C 38.039062 49.253906 36.738281 49.144531 35.816406 48.890625 C 35.296875 48.742188 34.789062 48.535156 34.3125 48.28125 C 34.3125 48.664062 34.308594 49.046875 34.296875 49.414062 C 34.304688 49.472656 34.285156 49.527344 34.242188 49.566406 C 34.199219 49.605469 34.140625 49.621094 34.085938 49.609375 C 32.5 49.609375 15.761719 49.628906 15.003906 49.625 C 14.9375 49.628906 14.867188 49.597656 14.832031 49.539062 C 14.8125 49.460938 14.800781 49.382812 14.804688 49.304688 C 14.171875 49.503906 13.5 49.566406 12.839844 49.484375 C 10.210938 49.167969 9.484375 46.816406 9.324219 46.199219 C 8.902344 44.570312 8.902344 42.460938 9.144531 39.914062 C 9.355469 37.476562 9.789062 35.066406 10.445312 32.714844 C 11.097656 30.28125 12.144531 28.019531 14.257812 26.621094 C 14.582031 26.417969 14.914062 26.226562 15.257812 26.050781 Z M 15.257812 26.050781 "/>
<path style=" stroke:none;fill-rule:nonzero;fill:rgb(12.941176%,9.019608%,8.235294%);fill-opacity:1;" d="M 18.199219 25.179688 C 19.640625 26.132812 21.421875 26.5625 23.117188 26.773438 C 23.988281 26.886719 24.867188 26.894531 25.738281 26.804688 C 26.644531 26.710938 27.542969 26.535156 28.417969 26.28125 C 29.316406 26.035156 30.171875 25.652344 30.953125 25.144531 C 31.351562 24.875 30.976562 24.226562 30.578125 24.496094 C 29.242188 25.402344 27.574219 25.828125 25.992188 26.023438 C 25.164062 26.132812 24.328125 26.144531 23.496094 26.066406 C 22.65625 25.984375 21.824219 25.828125 21.011719 25.59375 C 20.152344 25.367188 19.328125 25.007812 18.578125 24.53125 C 18.175781 24.261719 17.800781 24.910156 18.199219 25.179688 Z M 18.199219 25.179688 "/>
<path style=" stroke:none;fill-rule:nonzero;fill:rgb(12.941176%,9.019608%,8.235294%);fill-opacity:1;" d="M 33.9375 47.925781 C 33.9375 48.339844 33.9375 48.75 33.929688 49.160156 C 33.914062 49.246094 33.914062 49.332031 33.925781 49.414062 C 34.027344 49.605469 33.992188 49.199219 34.085938 49.234375 C 34.082031 49.230469 34.078125 49.234375 34.070312 49.234375 C 34.046875 49.230469 34.019531 49.230469 33.992188 49.234375 L 32.15625 49.234375 L 27.671875 49.238281 L 22.3125 49.246094 C 20.738281 49.246094 19.164062 49.246094 17.589844 49.25 C 16.757812 49.25 15.921875 49.25 15.085938 49.25 C 15.070312 49.246094 15.054688 49.246094 15.035156 49.25 C 14.976562 49.257812 15.03125 49.195312 15.097656 49.273438 L 15.191406 49.4375 C 15.164062 49.367188 15.191406 49.507812 15.183594 49.394531 C 15.179688 49.363281 15.179688 49.332031 15.179688 49.300781 C 15.171875 48.820312 14.425781 48.820312 14.429688 49.300781 C 14.425781 49.414062 14.441406 49.527344 14.46875 49.636719 C 14.554688 49.859375 14.769531 50.003906 15.007812 50 C 15.039062 50 15.070312 50 15.097656 50 C 15.222656 50 15.347656 50 15.472656 50 L 16.867188 50 C 18.398438 49.996094 19.933594 49.996094 21.46875 49.996094 L 27.046875 49.988281 C 28.65625 49.988281 30.261719 49.984375 31.867188 49.984375 C 32.394531 49.984375 32.921875 49.984375 33.449219 49.984375 L 33.929688 49.984375 C 33.984375 49.984375 34.035156 49.984375 34.085938 49.984375 C 34.265625 49.984375 34.433594 49.910156 34.554688 49.773438 C 34.65625 49.601562 34.703125 49.398438 34.679688 49.195312 C 34.6875 48.773438 34.6875 48.351562 34.6875 47.925781 C 34.6875 47.445312 33.9375 47.441406 33.9375 47.925781 Z M 33.9375 47.925781 "/>
<path style=" stroke:none;fill-rule:nonzero;fill:rgb(12.941176%,9.019608%,8.235294%);fill-opacity:1;" d="M 30.363281 25.078125 C 32.511719 25.914062 34.824219 26.71875 36.550781 28.308594 C 37.34375 29.0625 38 29.941406 38.496094 30.914062 C 38.964844 31.761719 39.3125 32.671875 39.53125 33.617188 C 39.976562 35.65625 40.160156 37.761719 40.347656 39.839844 C 40.449219 41 40.554688 42.164062 40.609375 43.328125 C 40.65625 44.398438 40.714844 45.472656 40.390625 46.496094 C 40.105469 47.394531 39.453125 48.25 38.535156 48.570312 C 37.488281 48.933594 36.28125 48.695312 35.273438 48.3125 C 35.007812 48.210938 34.75 48.09375 34.5 47.957031 C 34.078125 47.722656 33.699219 48.367188 34.121094 48.605469 C 35.191406 49.210938 36.40625 49.515625 37.632812 49.480469 C 38.261719 49.46875 38.875 49.289062 39.414062 48.960938 C 39.902344 48.65625 40.316406 48.246094 40.625 47.757812 C 41.164062 46.917969 41.363281 45.898438 41.390625 44.914062 C 41.425781 43.566406 41.296875 42.214844 41.1875 40.871094 C 41 38.640625 40.800781 36.394531 40.40625 34.1875 C 40.253906 33.253906 39.984375 32.34375 39.605469 31.476562 C 39.140625 30.390625 38.515625 29.378906 37.757812 28.476562 C 36 26.457031 33.386719 25.417969 30.941406 24.503906 C 30.8125 24.457031 30.6875 24.402344 30.5625 24.355469 C 30.363281 24.300781 30.15625 24.417969 30.101562 24.617188 C 30.050781 24.816406 30.164062 25.019531 30.363281 25.078125 Z M 30.363281 25.078125 "/>
<path style=" stroke:none;fill-rule:nonzero;fill:rgb(100%,100%,100%);fill-opacity:1;" d="M 20.355469 40.335938 L 24.691406 22.933594 L 38.707031 26.425781 L 34.367188 43.828125 Z M 20.355469 40.335938 "/>
<path style=" stroke:none;fill-rule:nonzero;fill:rgb(99.607843%,74.509804%,41.176471%);fill-opacity:1;" d="M 24.535156 23.558594 L 20.355469 40.335938 L 21.953125 40.730469 C 23.175781 35.816406 25.667969 25.828125 26.289062 23.332031 L 24.691406 22.933594 Z M 24.535156 23.558594 "/>
<path style=" stroke:none;fill-rule:nonzero;fill:rgb(12.941176%,9.019608%,8.235294%);fill-opacity:1;" d="M 22.34375 40.707031 C 22.949219 38.273438 23.558594 35.84375 24.164062 33.410156 C 24.777344 30.945312 25.394531 28.480469 26.007812 26.011719 C 26.222656 25.152344 26.4375 24.292969 26.652344 23.433594 C 26.769531 22.964844 26.046875 22.765625 25.929688 23.234375 C 25.46875 25.074219 25.011719 26.917969 24.550781 28.757812 C 23.894531 31.386719 23.238281 34.015625 22.582031 36.648438 C 22.261719 37.933594 21.941406 39.21875 21.621094 40.507812 C 21.503906 40.976562 22.226562 41.175781 22.34375 40.707031 Z M 22.34375 40.707031 "/>
<path style=" stroke:none;fill-rule:nonzero;fill:rgb(12.941176%,9.019608%,8.235294%);fill-opacity:1;" d="M 24.292969 22.984375 L 23.929688 24.441406 L 23.042969 27.996094 L 21.921875 32.5 L 20.863281 36.738281 L 20.160156 39.558594 C 20.121094 39.730469 20.070312 39.898438 20.035156 40.070312 C 19.960938 40.359375 20.128906 40.65625 20.417969 40.734375 C 20.480469 40.757812 20.546875 40.769531 20.613281 40.785156 L 23.292969 41.453125 L 27.660156 42.542969 L 31.851562 43.585938 C 32.589844 43.769531 33.324219 43.972656 34.066406 44.140625 C 34.226562 44.183594 34.394531 44.15625 34.535156 44.066406 C 34.671875 43.976562 34.765625 43.835938 34.792969 43.671875 L 34.980469 42.921875 L 35.761719 39.78125 L 36.855469 35.398438 L 37.957031 30.988281 L 38.773438 27.707031 L 38.988281 26.851562 C 39 26.796875 39.015625 26.746094 39.027344 26.691406 C 39.101562 26.402344 38.929688 26.105469 38.640625 26.027344 C 37.996094 25.824219 37.316406 25.695312 36.660156 25.53125 L 32.535156 24.503906 L 28.132812 23.40625 L 25.253906 22.6875 C 24.925781 22.605469 24.507812 22.480469 24.332031 22.898438 C 24.234375 23.078125 24.292969 23.300781 24.464844 23.410156 C 24.644531 23.511719 24.871094 23.453125 24.976562 23.273438 C 24.953125 23.332031 24.664062 23.285156 24.773438 23.339844 C 24.804688 23.351562 24.835938 23.359375 24.863281 23.363281 L 25.203125 23.449219 L 26.429688 23.753906 L 30.335938 24.726562 L 34.730469 25.824219 L 37.878906 26.609375 L 38.265625 26.703125 C 38.324219 26.730469 38.382812 26.746094 38.445312 26.75 C 38.339844 26.777344 38.363281 26.351562 38.292969 26.539062 C 38.265625 26.617188 38.246094 26.695312 38.230469 26.777344 L 37.621094 29.230469 L 36.621094 33.242188 L 35.511719 37.695312 L 34.566406 41.484375 L 34.066406 43.484375 C 34.058594 43.507812 34.050781 43.53125 34.050781 43.554688 C 34.058594 43.683594 34.253906 43.363281 34.316406 43.429688 C 34.296875 43.410156 34.210938 43.402344 34.1875 43.398438 L 33.289062 43.175781 L 29.769531 42.292969 L 25.335938 41.1875 L 21.730469 40.289062 L 20.777344 40.054688 C 20.726562 40.035156 20.667969 40.019531 20.609375 40.011719 C 20.867188 40.011719 20.707031 40.421875 20.769531 40.214844 C 20.964844 39.59375 21.089844 38.9375 21.246094 38.304688 L 22.179688 34.566406 L 23.289062 30.113281 L 24.296875 26.066406 L 24.929688 23.535156 L 25.015625 23.183594 C 25.132812 22.71875 24.410156 22.515625 24.292969 22.984375 Z M 24.292969 22.984375 "/>
<path style=" stroke:none;fill-rule:nonzero;fill:rgb(12.941176%,9.019608%,8.235294%);fill-opacity:1;" d="M 33.472656 36.222656 L 26.195312 34.410156 C 25.726562 34.292969 25.527344 35.015625 25.996094 35.132812 L 33.273438 36.945312 C 33.742188 37.0625 33.941406 36.339844 33.472656 36.222656 Z M 33.472656 36.222656 "/>
<path style=" stroke:none;fill-rule:nonzero;fill:rgb(99.607843%,74.509804%,41.176471%);fill-opacity:1;" d="M 34.105469 33.378906 L 26.855469 31.570312 L 27.988281 27.042969 L 35.234375 28.847656 Z M 34.105469 33.378906 "/>
<path style=" stroke:none;fill-rule:nonzero;fill:rgb(12.941176%,9.019608%,8.235294%);fill-opacity:1;" d="M 34.207031 33.015625 L 26.957031 31.210938 L 27.21875 31.671875 L 28.207031 27.710938 L 28.347656 27.140625 L 27.886719 27.402344 L 35.136719 29.210938 L 34.875 28.75 L 33.886719 32.707031 L 33.742188 33.277344 C 33.628906 33.746094 34.351562 33.945312 34.46875 33.476562 L 35.453125 29.519531 L 35.597656 28.949219 C 35.648438 28.75 35.53125 28.542969 35.335938 28.488281 L 28.085938 26.679688 C 27.886719 26.628906 27.683594 26.742188 27.625 26.941406 L 26.636719 30.898438 L 26.496094 31.472656 C 26.445312 31.671875 26.558594 31.875 26.757812 31.933594 L 34.003906 33.742188 C 34.472656 33.855469 34.671875 33.132812 34.207031 33.015625 Z M 34.207031 33.015625 "/>
<path style=" stroke:none;fill-rule:nonzero;fill:rgb(12.941176%,9.019608%,8.235294%);fill-opacity:1;" d="M 18.140625 24.355469 C 17.015625 24.785156 15.917969 25.285156 14.851562 25.839844 C 13.773438 26.40625 12.832031 27.203125 12.089844 28.167969 C 11.355469 29.183594 10.789062 30.3125 10.414062 31.511719 C 10.015625 32.746094 9.691406 34.003906 9.441406 35.277344 C 9.167969 36.59375 8.980469 37.921875 8.835938 39.253906 C 8.660156 40.710938 8.585938 42.179688 8.617188 43.648438 C 8.675781 45.367188 8.9375 47.191406 10.132812 48.511719 C 10.863281 49.300781 11.867188 49.785156 12.9375 49.871094 C 14.28125 50.003906 15.558594 49.53125 16.667969 48.804688 C 16.960938 48.613281 17.246094 48.40625 17.523438 48.191406 C 17.695312 48.082031 17.753906 47.859375 17.65625 47.679688 C 17.550781 47.5 17.324219 47.441406 17.144531 47.542969 C 16.171875 48.292969 15.066406 49.015625 13.808594 49.128906 C 12.796875 49.214844 11.726562 48.957031 10.972656 48.289062 C 10.683594 48.035156 10.433594 47.738281 10.234375 47.40625 C 10.144531 47.261719 10.0625 47.109375 9.988281 46.953125 C 9.972656 46.921875 9.957031 46.886719 9.941406 46.851562 C 9.933594 46.832031 9.886719 46.722656 9.921875 46.800781 C 9.894531 46.738281 9.867188 46.671875 9.84375 46.605469 C 9.585938 45.847656 9.433594 45.054688 9.398438 44.253906 C 9.320312 42.894531 9.351562 41.53125 9.496094 40.179688 C 9.613281 38.859375 9.773438 37.539062 10.015625 36.234375 C 10.242188 35.015625 10.53125 33.804688 10.863281 32.609375 C 11.164062 31.457031 11.617188 30.347656 12.214844 29.320312 C 12.800781 28.324219 13.613281 27.484375 14.582031 26.859375 C 15.5625 26.277344 16.585938 25.777344 17.648438 25.359375 C 17.875 25.261719 18.105469 25.167969 18.339844 25.078125 C 18.535156 25.019531 18.648438 24.816406 18.601562 24.617188 C 18.542969 24.417969 18.339844 24.300781 18.140625 24.355469 Z M 18.140625 24.355469 "/>
<path style=" stroke:none;fill-rule:nonzero;fill:rgb(12.941176%,9.019608%,8.235294%);fill-opacity:1;" d="M 13.476562 42.777344 C 14.332031 42.144531 15.226562 41.566406 16.082031 40.933594 C 16.253906 40.824219 16.3125 40.601562 16.214844 40.421875 C 16.109375 40.242188 15.882812 40.183594 15.703125 40.285156 C 14.847656 40.917969 13.953125 41.496094 13.097656 42.128906 C 12.925781 42.238281 12.867188 42.460938 12.964844 42.640625 C 13.070312 42.820312 13.296875 42.878906 13.476562 42.777344 Z M 13.476562 42.777344 "/>
<path style=" stroke:none;fill-rule:nonzero;fill:rgb(12.941176%,9.019608%,8.235294%);fill-opacity:1;" d="M 14.226562 32.953125 C 14.5625 34.664062 15 36.351562 15.527344 38.011719 C 15.679688 38.46875 16.402344 38.273438 16.25 37.8125 C 15.722656 36.152344 15.285156 34.464844 14.949219 32.753906 C 14.851562 32.28125 14.128906 32.484375 14.226562 32.953125 Z M 14.226562 32.953125 "/>
<path style=" stroke:none;fill-rule:nonzero;fill:rgb(100%,100%,100%);fill-opacity:1;" d="M 34.511719 37.734375 C 34.09375 37.609375 33.65625 37.585938 33.226562 37.65625 C 32.839844 37.75 32.554688 38.140625 32.695312 38.511719 C 32.804688 38.726562 32.976562 38.898438 33.1875 39.007812 C 34.035156 39.546875 34.9375 40 35.875 40.355469 C 34.789062 40.210938 33.699219 40.0625 32.613281 39.917969 C 32.382812 39.875 32.148438 39.867188 31.917969 39.890625 C 31.683594 39.914062 31.472656 40.035156 31.332031 40.226562 C 31.179688 40.515625 31.199219 40.867188 31.382812 41.140625 C 31.492188 41.285156 31.636719 41.398438 31.800781 41.46875 L 31.535156 41.507812 C 31.167969 41.570312 30.902344 41.898438 30.914062 42.273438 C 30.925781 42.625 31.128906 42.9375 31.445312 43.089844 C 31.6875 43.210938 31.945312 43.300781 32.210938 43.355469 C 32.09375 43.488281 32.019531 43.570312 32.019531 43.570312 C 31.824219 43.828125 31.804688 44.183594 31.976562 44.457031 C 32.367188 45.125 33.53125 45.285156 34.371094 45.40625 C 34.933594 45.492188 35.511719 45.441406 36.054688 45.265625 C 36.90625 44.976562 37.441406 44.628906 37.925781 43.71875 C 38.25 43.101562 38.34375 42.40625 38.355469 41.671875 C 38.355469 41.132812 38.261719 40.597656 38.078125 40.09375 C 37.941406 39.726562 37.703125 39.410156 37.386719 39.179688 C 37.164062 39.011719 36.898438 38.828125 36.609375 38.648438 C 35.960938 38.242188 35.25 37.933594 34.511719 37.734375 Z M 34.511719 37.734375 "/>
<path style=" stroke:none;fill-rule:nonzero;fill:rgb(12.941176%,9.019608%,8.235294%);fill-opacity:1;" d="M 35.554688 39.828125 C 34.832031 39.519531 34.136719 39.15625 33.46875 38.742188 C 33.304688 38.640625 32.9375 38.457031 33.054688 38.214844 C 33.148438 38.03125 33.382812 37.996094 33.523438 37.988281 C 34.101562 37.960938 34.683594 38.148438 35.214844 38.359375 C 35.855469 38.621094 36.464844 38.960938 37.023438 39.371094 C 37.285156 39.546875 37.503906 39.78125 37.65625 40.058594 C 37.800781 40.363281 37.894531 40.691406 37.933594 41.027344 C 38.035156 41.683594 37.992188 42.359375 37.8125 43 C 37.65625 43.566406 37.332031 44.070312 36.882812 44.445312 C 36.414062 44.785156 35.867188 44.996094 35.289062 45.054688 C 34.585938 45.101562 33.882812 45.019531 33.210938 44.808594 C 32.9375 44.746094 32.679688 44.621094 32.457031 44.453125 C 32.316406 44.328125 32.125 44.035156 32.285156 43.835938 C 32.425781 43.6875 32.425781 43.457031 32.285156 43.308594 C 32.136719 43.160156 31.902344 43.160156 31.753906 43.308594 C 31.203125 43.992188 31.597656 44.855469 32.292969 45.246094 C 32.894531 45.578125 33.601562 45.675781 34.269531 45.769531 C 35.121094 45.890625 35.984375 45.757812 36.761719 45.386719 C 37.386719 45.082031 37.898438 44.585938 38.21875 43.964844 C 38.609375 43.191406 38.785156 42.328125 38.726562 41.464844 C 38.691406 40.632812 38.492188 39.722656 37.886719 39.113281 C 37.574219 38.828125 37.230469 38.574219 36.859375 38.363281 C 36.519531 38.144531 36.164062 37.957031 35.796875 37.792969 C 35.113281 37.492188 34.351562 37.222656 33.59375 37.238281 C 33.195312 37.246094 32.792969 37.351562 32.527344 37.671875 C 32.210938 38.042969 32.214844 38.585938 32.535156 38.953125 C 32.835938 39.316406 33.339844 39.550781 33.746094 39.777344 C 34.210938 40.035156 34.6875 40.265625 35.175781 40.472656 C 35.355469 40.570312 35.582031 40.511719 35.691406 40.339844 C 35.792969 40.160156 35.734375 39.933594 35.554688 39.828125 Z M 35.554688 39.828125 "/>
<path style=" stroke:none;fill-rule:nonzero;fill:rgb(12.941176%,9.019608%,8.235294%);fill-opacity:1;" d="M 35.605469 39.945312 C 34.625 39.8125 33.644531 39.679688 32.660156 39.546875 C 32.214844 39.488281 31.746094 39.453125 31.347656 39.703125 C 31 39.925781 30.808594 40.328125 30.859375 40.742188 C 30.9375 41.46875 31.535156 41.832031 32.1875 42.007812 C 32.648438 42.128906 33.121094 42.230469 33.585938 42.332031 C 34.066406 42.4375 34.542969 42.542969 35.019531 42.644531 C 35.492188 42.746094 35.691406 42.023438 35.21875 41.921875 C 34.414062 41.75 33.609375 41.574219 32.808594 41.386719 C 32.476562 41.308594 32.050781 41.246094 31.78125 41.023438 C 31.625 40.894531 31.527344 40.59375 31.65625 40.414062 C 31.839844 40.164062 32.289062 40.25 32.542969 40.28125 C 33.496094 40.402344 34.453125 40.539062 35.40625 40.667969 C 35.605469 40.714844 35.808594 40.597656 35.867188 40.402344 C 35.921875 40.203125 35.804688 40 35.605469 39.941406 Z M 35.605469 39.945312 "/>
<path style=" stroke:none;fill-rule:nonzero;fill:rgb(12.941176%,9.019608%,8.235294%);fill-opacity:1;" d="M 31.4375 41.144531 C 30.914062 41.253906 30.542969 41.714844 30.539062 42.246094 C 30.546875 42.765625 30.851562 43.234375 31.328125 43.449219 C 32.015625 43.785156 32.832031 43.859375 33.578125 44 C 33.898438 44.058594 34.21875 44.117188 34.535156 44.175781 C 34.734375 44.222656 34.9375 44.109375 34.996094 43.914062 C 35.050781 43.714844 34.933594 43.507812 34.734375 43.453125 C 34.082031 43.339844 33.433594 43.210938 32.785156 43.09375 C 32.371094 43.015625 31.824219 42.957031 31.492188 42.675781 C 31.199219 42.429688 31.21875 41.945312 31.636719 41.867188 C 31.835938 41.8125 31.949219 41.605469 31.898438 41.40625 C 31.839844 41.210938 31.636719 41.09375 31.4375 41.144531 Z M 31.4375 41.144531 "/>
<path style=" stroke:none;fill-rule:nonzero;fill:rgb(100%,100%,100%);fill-opacity:1;" d="M 18.980469 36.191406 C 19.214844 35.894531 19.5 35.644531 19.824219 35.449219 C 20.652344 35.03125 21.5625 34.800781 22.492188 34.769531 C 22.824219 34.742188 23.160156 34.816406 23.449219 34.980469 C 23.699219 35.125 23.820312 35.421875 23.742188 35.699219 C 23.6875 35.898438 23.53125 36.054688 23.332031 36.109375 C 23.117188 36.164062 22.90625 36.234375 22.699219 36.3125 C 22.183594 36.480469 21.6875 36.703125 21.21875 36.976562 L 21.125 37.582031 C 21.800781 37.695312 22.472656 37.839844 23.136719 38.023438 C 23.503906 38.117188 23.859375 38.253906 24.191406 38.433594 C 24.425781 38.53125 24.617188 38.703125 24.746094 38.921875 C 24.832031 39.078125 24.867188 39.257812 24.84375 39.4375 C 24.824219 39.652344 24.683594 39.835938 24.484375 39.917969 C 24.269531 40.015625 24.027344 40.042969 23.796875 39.988281 C 23.601562 39.945312 23.410156 39.898438 23.214844 39.847656 C 23.773438 40.128906 23.8125 40.339844 23.910156 40.660156 C 23.960938 40.839844 23.933594 41.035156 23.839844 41.199219 C 23.636719 41.421875 23.324219 41.523438 23.03125 41.457031 C 22.796875 41.394531 22.574219 41.34375 22.355469 41.292969 L 22.613281 41.480469 C 23.082031 41.8125 22.960938 42.589844 22.5625 42.71875 C 22.234375 42.824219 21.699219 42.730469 21.128906 42.6875 C 21.070312 43.480469 20.285156 44.261719 20.007812 44.414062 C 19.664062 44.605469 19.28125 44.71875 18.886719 44.746094 C 18.019531 44.730469 17.300781 44.132812 16.820312 43.414062 C 16.523438 42.890625 16.503906 42.257812 16.761719 41.71875 C 17.148438 40.996094 17.445312 40.230469 17.652344 39.441406 C 17.882812 38.527344 18.425781 36.863281 18.980469 36.191406 "/>
<path style=" stroke:none;fill-rule:nonzero;fill:rgb(12.941176%,9.019608%,8.235294%);fill-opacity:1;" d="M 20.011719 35.773438 C 20.597656 35.488281 21.21875 35.292969 21.859375 35.191406 C 22.152344 35.144531 22.449219 35.132812 22.742188 35.148438 C 22.949219 35.164062 23.25 35.210938 23.359375 35.410156 C 23.394531 35.472656 23.402344 35.542969 23.378906 35.609375 C 23.351562 35.675781 23.300781 35.726562 23.234375 35.746094 C 22.96875 35.84375 22.691406 35.914062 22.425781 36.015625 C 21.945312 36.1875 21.476562 36.402344 21.03125 36.652344 C 20.609375 36.890625 20.988281 37.535156 21.410156 37.300781 C 21.804688 37.074219 22.222656 36.882812 22.652344 36.726562 C 22.902344 36.636719 23.148438 36.550781 23.40625 36.476562 C 23.6875 36.40625 23.925781 36.207031 24.046875 35.941406 C 24.308594 35.375 23.976562 34.78125 23.433594 34.546875 C 22.886719 34.316406 22.234375 34.378906 21.660156 34.46875 C 20.957031 34.585938 20.273438 34.808594 19.632812 35.125 C 19.457031 35.230469 19.398438 35.457031 19.5 35.636719 C 19.605469 35.8125 19.832031 35.871094 20.011719 35.773438 Z M 20.011719 35.773438 "/>
<path style=" stroke:none;fill-rule:nonzero;fill:rgb(12.941176%,9.019608%,8.235294%);fill-opacity:1;" d="M 18.714844 35.925781 C 18.15625 36.621094 17.847656 37.519531 17.574219 38.359375 C 17.441406 38.773438 17.335938 39.199219 17.214844 39.617188 C 17.050781 40.1875 16.835938 40.742188 16.570312 41.273438 C 16.339844 41.734375 16.167969 42.164062 16.214844 42.691406 C 16.269531 43.203125 16.488281 43.683594 16.839844 44.054688 C 17.496094 44.824219 18.492188 45.316406 19.5 45.023438 C 19.902344 44.921875 20.273438 44.722656 20.578125 44.441406 C 20.980469 44.0625 21.28125 43.585938 21.445312 43.058594 C 21.578125 42.59375 20.855469 42.394531 20.722656 42.859375 C 20.601562 43.234375 20.394531 43.570312 20.113281 43.84375 C 19.9375 44.035156 19.714844 44.175781 19.46875 44.25 C 19.097656 44.398438 18.683594 44.398438 18.3125 44.25 C 17.953125 44.09375 17.636719 43.851562 17.390625 43.546875 C 17.132812 43.289062 16.980469 42.941406 16.957031 42.574219 C 16.945312 42.121094 17.15625 41.792969 17.34375 41.390625 C 17.570312 40.90625 17.761719 40.402344 17.917969 39.886719 C 18.03125 39.507812 18.121094 39.121094 18.242188 38.742188 C 18.371094 38.320312 18.519531 37.898438 18.691406 37.488281 C 18.773438 37.292969 18.867188 37.097656 18.964844 36.90625 C 19.011719 36.820312 19.058594 36.738281 19.109375 36.65625 C 19.15625 36.582031 19.214844 36.496094 19.246094 36.457031 C 19.386719 36.308594 19.386719 36.078125 19.246094 35.925781 C 19.097656 35.78125 18.863281 35.78125 18.714844 35.925781 Z M 18.714844 35.925781 "/>
<path style=" stroke:none;fill-rule:nonzero;fill:rgb(12.941176%,9.019608%,8.235294%);fill-opacity:1;" d="M 21.023438 37.945312 C 21.671875 38.050781 22.3125 38.1875 22.945312 38.359375 C 23.21875 38.425781 23.488281 38.515625 23.746094 38.628906 C 23.953125 38.726562 24.226562 38.828125 24.367188 39.015625 C 24.480469 39.167969 24.535156 39.433594 24.386719 39.546875 C 24.152344 39.726562 23.824219 39.609375 23.570312 39.550781 C 22.871094 39.382812 22.179688 39.195312 21.46875 39.082031 C 21.269531 39.035156 21.066406 39.148438 21.007812 39.34375 C 20.953125 39.542969 21.070312 39.75 21.269531 39.804688 C 21.933594 39.910156 22.585938 40.082031 23.238281 40.242188 C 23.542969 40.339844 23.859375 40.390625 24.179688 40.382812 C 24.5 40.359375 24.800781 40.210938 25.011719 39.96875 C 25.414062 39.472656 25.210938 38.710938 24.738281 38.339844 C 24.285156 38.019531 23.777344 37.785156 23.234375 37.660156 C 22.574219 37.476562 21.902344 37.332031 21.222656 37.222656 C 21.023438 37.171875 20.820312 37.289062 20.761719 37.484375 C 20.707031 37.683594 20.824219 37.886719 21.023438 37.945312 Z M 21.023438 37.945312 "/>
<path style=" stroke:none;fill-rule:nonzero;fill:rgb(12.941176%,9.019608%,8.235294%);fill-opacity:1;" d="M 23.320312 40.34375 C 23.34375 40.363281 23.371094 40.386719 23.394531 40.410156 C 23.4375 40.457031 23.402344 40.410156 23.4375 40.460938 C 23.453125 40.488281 23.46875 40.515625 23.480469 40.542969 C 23.496094 40.578125 23.472656 40.511719 23.492188 40.574219 C 23.515625 40.644531 23.542969 40.71875 23.558594 40.789062 C 23.546875 40.734375 23.558594 40.796875 23.558594 40.824219 C 23.5625 40.859375 23.558594 40.890625 23.554688 40.925781 C 23.5625 40.871094 23.539062 40.984375 23.539062 40.984375 C 23.550781 40.953125 23.554688 40.949219 23.542969 40.972656 C 23.53125 40.992188 23.53125 40.992188 23.546875 40.964844 C 23.503906 41 23.457031 41.03125 23.40625 41.058594 C 23.28125 41.109375 23.140625 41.113281 23.011719 41.066406 C 22.285156 40.886719 21.542969 40.75 20.800781 40.65625 C 20.59375 40.660156 20.425781 40.824219 20.425781 41.03125 C 20.429688 41.238281 20.59375 41.402344 20.800781 41.40625 C 21.238281 41.464844 21.679688 41.535156 22.113281 41.625 C 22.558594 41.71875 23.042969 41.925781 23.496094 41.816406 C 23.730469 41.761719 23.941406 41.640625 24.105469 41.464844 C 24.25 41.28125 24.324219 41.054688 24.308594 40.824219 C 24.292969 40.371094 24.066406 39.957031 23.699219 39.695312 C 23.519531 39.59375 23.289062 39.652344 23.183594 39.832031 C 23.085938 40.011719 23.144531 40.234375 23.320312 40.34375 Z M 23.320312 40.34375 "/>
<path style=" stroke:none;fill-rule:nonzero;fill:rgb(12.941176%,9.019608%,8.235294%);fill-opacity:1;" d="M 22.425781 41.804688 C 22.339844 41.742188 22.425781 41.808594 22.445312 41.824219 C 22.453125 41.835938 22.464844 41.847656 22.476562 41.863281 C 22.441406 41.816406 22.4375 41.808594 22.460938 41.84375 C 22.472656 41.867188 22.488281 41.890625 22.503906 41.914062 C 22.550781 41.992188 22.484375 41.851562 22.507812 41.917969 C 22.515625 41.949219 22.527344 41.976562 22.53125 42.007812 C 22.535156 42.023438 22.539062 42.035156 22.542969 42.050781 C 22.546875 42.089844 22.546875 42.082031 22.539062 42.019531 C 22.53125 42.074219 22.53125 42.125 22.539062 42.175781 C 22.535156 42.246094 22.558594 42.082031 22.535156 42.1875 C 22.53125 42.207031 22.527344 42.230469 22.519531 42.25 C 22.515625 42.261719 22.511719 42.277344 22.507812 42.289062 C 22.492188 42.328125 22.496094 42.316406 22.519531 42.257812 C 22.503906 42.28125 22.492188 42.304688 22.480469 42.332031 C 22.4375 42.40625 22.492188 42.316406 22.492188 42.316406 C 22.496094 42.320312 22.441406 42.371094 22.441406 42.371094 C 22.492188 42.335938 22.503906 42.324219 22.472656 42.347656 C 22.460938 42.355469 22.449219 42.363281 22.441406 42.367188 C 22.394531 42.40625 22.53125 42.34375 22.453125 42.363281 C 22.425781 42.367188 22.398438 42.375 22.375 42.382812 C 22.269531 42.402344 22.421875 42.382812 22.351562 42.386719 C 22.285156 42.390625 22.222656 42.394531 22.160156 42.394531 C 22 42.394531 21.84375 42.378906 21.683594 42.367188 C 21.324219 42.324219 20.960938 42.300781 20.597656 42.292969 C 20.390625 42.292969 20.222656 42.460938 20.222656 42.667969 C 20.222656 42.875 20.390625 43.042969 20.597656 43.042969 C 20.925781 43.046875 21.253906 43.066406 21.582031 43.105469 C 21.855469 43.144531 22.128906 43.152344 22.402344 43.128906 C 22.691406 43.113281 22.953125 42.964844 23.117188 42.726562 C 23.25 42.515625 23.308594 42.269531 23.289062 42.019531 C 23.261719 41.675781 23.085938 41.359375 22.804688 41.15625 C 22.625 41.054688 22.394531 41.113281 22.292969 41.292969 C 22.191406 41.472656 22.25 41.695312 22.425781 41.804688 Z M 22.425781 41.804688 "/>
</g>
</svg>
